<?xml version="1.0" standalone="no"?>
<!DOCTYPE svg PUBLIC "-//W3C//DTD SVG 20010904//EN"
 "http://www.w3.org/TR/2001/REC-SVG-20010904/DTD/svg10.dtd">
<svg version="1.0" xmlns="http://www.w3.org/2000/svg"
 width="1024.000000pt" height="1024.000000pt" viewBox="0 0 1024.000000 1024.000000"
 preserveAspectRatio="xMidYMid meet">

<g transform="translate(0.000000,1024.000000) scale(0.100000,-0.100000)"
fill="#000000" stroke="none">
<path d="M6467 8553 c-4 -38 -7 -177 -7 -310 l0 -243 -25 0 -25 0 2 303 3 302
-25 0 -25 0 -3 -302 c-2 -282 -3 -302 -21 -308 -10 -3 -28 -17 -41 -30 -22
-23 -24 -36 -32 -202 -6 -122 -5 -192 2 -222 22 -90 120 -202 260 -299 52 -36
98 -71 102 -77 4 -5 8 -27 8 -47 0 -20 4 -48 10 -62 9 -24 14 -26 72 -26 l63
0 0 -255 0 -254 -27 -6 c-71 -16 -78 -66 -67 -467 4 -183 11 -345 15 -361 6
-24 -3 -37 -69 -110 -62 -68 -301 -286 -320 -291 -8 -2 -317 296 -317 306 0 4
33 46 73 93 88 103 153 208 218 355 62 139 84 223 100 381 35 364 -37 663
-228 949 -153 228 -343 400 -565 508 -212 104 -382 143 -628 145 -238 2 -432
-44 -655 -155 -122 -61 -175 -96 -285 -187 -250 -207 -432 -502 -501 -814 -30
-135 -37 -418 -14 -557 27 -161 86 -318 162 -433 25 -37 44 -69 42 -71 -2 -1
-33 -11 -68 -21 -124 -37 -234 -130 -472 -402 l-124 -143 -88 0 c-67 0 -97 -5
-125 -19 -67 -35 -120 -89 -154 -158 l-33 -67 -3 -200 c-7 -352 17 -451 126
-526 45 -31 54 -43 76 -105 14 -38 23 -71 22 -73 -2 -2 -55 -12 -117 -23 -208
-37 -406 -113 -464 -179 -25 -28 -30 -118 -20 -337 8 -169 17 -195 83 -239
118 -80 436 -157 883 -215 l176 -23 6 -210 c4 -115 7 -268 7 -340 l-1 -131
-32 -20 c-43 -27 -67 -78 -67 -144 0 -48 3 -57 35 -87 37 -34 88 -50 128 -40
68 17 119 117 97 190 -12 39 -52 88 -80 98 -13 4 -16 54 -19 338 l-3 333 68
-6 c38 -4 110 -9 159 -12 146 -10 131 13 125 -186 l-5 -173 -29 -7 c-75 -20
-117 -110 -82 -177 25 -48 53 -65 105 -66 56 -1 85 19 107 71 27 63 12 125
-38 161 -20 14 -20 53 -2 290 l6 72 96 -6 c54 -4 101 -10 106 -15 5 -4 5 -144
1 -322 l-7 -314 -34 -16 c-47 -23 -67 -67 -62 -135 4 -48 10 -60 40 -88 92
-84 216 -34 226 91 5 63 -15 108 -62 136 -31 18 -34 24 -40 89 -3 39 -3 180 1
315 l6 245 46 0 c25 0 69 -3 96 -6 l50 -6 -4 -249 c-1 -137 0 -261 3 -274 4
-16 13 -25 26 -25 36 0 42 32 34 179 -3 75 -3 190 1 255 l7 117 92 -3 91 -3
-3 -310 c-1 -170 2 -371 7 -445 8 -123 7 -137 -9 -155 -20 -23 -40 -59 -40
-74 0 -34 82 -57 94 -26 3 8 13 15 22 15 13 0 15 7 9 48 -10 69 -21 559 -16
765 l3 177 89 0 89 0 2 -272 3 -273 25 0 25 0 3 273 2 272 90 0 90 0 0 -382
c0 -211 3 -393 6 -405 5 -17 2 -23 -10 -23 -31 0 -76 -30 -92 -62 -35 -67 -7
-160 56 -193 64 -33 167 -8 195 46 36 69 6 176 -56 206 -26 12 -26 14 -32 170
-4 87 -7 266 -7 399 l0 241 53 7 c28 3 71 6 95 6 l42 0 0 -231 c0 -231 5 -269
36 -269 28 0 32 46 27 273 l-6 227 85 0 84 0 0 -278 c-1 -226 2 -282 13 -296
9 -11 18 -13 24 -7 13 13 26 223 27 423 l0 157 91 3 c50 2 93 1 95 -1 2 -2 4
-127 4 -278 0 -235 2 -274 15 -279 8 -4 22 -1 30 6 13 10 15 56 15 285 l0 273
93 4 c50 3 93 4 94 4 1 -1 5 -153 9 -338 7 -329 7 -336 -13 -342 -38 -12 -75
-62 -80 -108 -4 -35 1 -51 23 -85 33 -50 64 -68 114 -67 112 3 160 147 77 229
-18 18 -38 34 -45 36 -10 3 -13 73 -14 337 -1 186 3 337 8 341 5 5 62 11 127
14 l117 5 0 -164 0 -164 -32 -29 c-31 -27 -33 -34 -33 -91 0 -57 2 -64 33 -91
26 -24 41 -29 81 -29 43 0 52 4 80 35 24 28 31 45 31 79 0 48 -27 91 -65 106
-21 8 -22 15 -29 175 -3 91 -4 170 -2 174 3 4 43 11 88 14 46 3 110 9 144 13
l61 7 6 -332 7 -331 -35 -31 c-92 -81 -62 -235 52 -269 34 -11 45 -10 77 5 97
46 116 176 38 258 -14 15 -36 27 -49 27 l-23 0 0 173 c0 96 -3 248 -6 338 l-7
165 124 18 c68 9 174 24 234 33 141 20 389 68 483 93 155 43 273 125 287 202
3 18 5 126 3 239 l-3 206 -27 36 c-15 19 -52 47 -81 61 -48 24 -204 73 -303
96 -57 13 -289 40 -346 40 -34 0 -48 4 -48 14 0 26 35 53 83 66 67 18 138 84
178 166 32 64 32 68 37 237 7 273 -16 362 -126 476 l-57 59 330 315 c449 430
399 392 531 400 137 8 204 26 315 83 72 37 103 61 166 128 148 157 193 270
201 502 4 127 2 146 -16 188 -15 32 -27 46 -40 46 -22 0 -143 -105 -282 -245
-150 -151 -231 -181 -338 -126 -112 58 -194 241 -148 330 10 18 74 92 144 164
147 152 196 211 212 251 25 66 -71 103 -240 93 -276 -16 -509 -183 -603 -433
-37 -99 -47 -150 -53 -292 -4 -86 -12 -140 -24 -167 -20 -47 -80 -120 -219
-265 l-101 -104 0 119 c-1 134 -15 351 -25 377 -4 9 -20 21 -36 27 l-29 10 7
93 c4 51 8 163 8 250 l0 156 63 7 c78 8 92 22 92 89 0 62 5 67 110 122 90 47
201 153 245 234 l30 55 -2 160 c-1 88 -5 179 -8 202 -8 57 -40 89 -98 97 l-47
7 0 310 0 309 -34 0 -33 0 -7 -92 c-4 -51 -2 -187 4 -302 5 -115 7 -212 4
-217 -3 -5 -16 -9 -30 -9 l-24 0 -1 255 c-1 140 -3 260 -4 265 -1 6 -3 30 -4
55 -1 43 -2 45 -32 45 l-30 0 3 -310 3 -310 -27 0 -28 0 0 243 c0 133 -3 272
-7 310 -5 62 -8 67 -29 67 l-24 0 0 -311 0 -310 -22 3 c-25 3 -24 -23 -27 471
l-1 147 -30 0 -30 0 0 -310 c0 -297 -1 -310 -19 -310 -28 0 -33 70 -30 364 l3
251 -32 3 -32 3 0 -310 0 -311 -25 0 -25 0 0 310 0 310 -24 0 c-22 0 -24 -5
-31 -77 -4 -43 -6 -181 -4 -308 4 -225 4 -230 -16 -227 -11 2 -21 5 -22 6 -2
1 -4 137 -5 302 -3 297 -3 299 -24 302 -21 3 -22 0 -29 -214 -4 -120 -5 -257
-3 -306 5 -87 5 -88 -18 -88 l-24 0 -2 223 c-2 122 -3 259 -2 305 l1 82 -28 0
-29 0 -2 -307 -3 -308 -22 -3 c-17 -2 -23 2 -23 15 -1 10 0 149 0 309 1 260
-1 292 -15 298 -29 11 -32 7 -38 -61z m-1240 -617 c259 -53 465 -163 670 -360
91 -88 213 -230 160 -187 -11 8 -17 9 -17 3 0 -6 -16 -27 -35 -46 -19 -20 -35
-40 -35 -46 0 -6 27 -64 59 -129 33 -65 74 -163 92 -217 17 -54 35 -103 39
-109 4 -5 8 -57 9 -115 1 -58 4 -114 7 -125 3 -11 0 -76 -5 -145 -7 -92 -17
-150 -40 -219 -16 -52 -28 -98 -26 -101 7 -12 -132 -248 -182 -309 -63 -78
-75 -83 -134 -58 l-48 20 61 66 c70 77 157 204 192 282 112 245 121 599 23
860 -90 238 -278 459 -497 582 -31 18 -44 31 -42 44 2 11 0 14 -5 7 -6 -9 -20
-6 -51 9 -31 14 -40 22 -30 28 7 5 -4 6 -26 2 -31 -5 -37 -3 -31 7 6 10 4 12
-8 7 -8 -3 -21 1 -27 9 -7 8 -16 14 -21 14 -4 0 -19 11 -33 25 -14 14 -42 27
-66 31 -29 5 -40 11 -36 20 3 8 1 14 -5 14 -5 0 -13 -8 -16 -17 -9 -23 -23
-33 -50 -33 -13 0 -23 -4 -23 -9 0 -17 -31 -21 -63 -7 -27 12 -29 14 -9 15 12
1 22 5 22 10 0 4 -28 7 -62 6 -35 -1 -53 0 -40 2 33 7 27 23 -10 23 -28 0 -30
2 -15 13 18 13 115 15 135 3 7 -4 12 -3 12 3 0 5 12 12 28 14 15 2 -16 5 -70
6 -60 0 -98 -3 -100 -10 -2 -5 -27 -12 -55 -14 -28 -1 -56 -6 -61 -9 -5 -3
-22 -2 -38 3 -30 8 -91 1 -165 -19 -37 -11 -41 -14 -24 -21 18 -7 18 -8 -5 -9
-14 -2 -31 -2 -39 -1 -7 2 -10 -2 -7 -7 3 -5 -7 -15 -23 -22 -16 -6 -37 -20
-47 -31 -9 -10 -23 -19 -29 -19 -7 0 -23 -8 -36 -19 -13 -10 -35 -22 -49 -26
-40 -12 -92 -68 -84 -89 5 -14 9 -15 15 -4 7 10 9 9 9 -4 0 -12 6 -16 18 -12
13 4 13 2 -3 -8 -11 -7 -54 -49 -95 -92 -41 -44 -90 -95 -108 -114 -19 -20
-37 -31 -40 -26 -6 8 -20 9 -69 5 -7 -1 -13 -8 -13 -17 0 -8 -3 -13 -7 -11 -5
3 -16 -6 -26 -19 -14 -19 -15 -23 -2 -18 19 8 20 -19 2 -38 -22 -21 -35 -71
-26 -96 10 -27 -7 -30 -27 -4 -12 15 -13 14 -4 -11 15 -43 12 -50 -12 -27
l-23 21 -9 -30 c-5 -17 -13 -31 -17 -31 -5 0 -9 -7 -9 -16 0 -9 -6 -22 -14
-28 -24 -19 -58 -209 -63 -361 -5 -117 -2 -159 16 -255 41 -214 119 -440 152
-440 12 0 51 -79 44 -90 -3 -6 -21 -10 -40 -10 -48 0 -104 68 -176 215 -85
173 -110 277 -116 487 -10 320 42 527 196 781 141 231 337 415 571 532 90 45
284 110 389 130 94 18 390 13 498 -9z m2208 -32 c8 -4 15 -16 15 -29 0 -27
-39 -39 -170 -53 -72 -8 -77 -9 -33 -11 42 -1 53 -5 58 -21 3 -11 12 -20 18
-20 30 0 39 -40 31 -144 -4 -55 -7 -104 -6 -108 1 -5 -3 -8 -9 -8 -5 0 -8 -4
-5 -9 12 -19 -66 -101 -132 -137 -37 -21 -95 -57 -129 -81 -35 -24 -69 -43
-77 -43 -8 0 -18 -5 -21 -10 -4 -6 -10 -8 -15 -5 -5 3 -24 -2 -42 -12 -25 -13
-56 -18 -130 -18 l-98 0 -47 47 c-27 25 -81 70 -120 100 -84 62 -158 152 -174
210 -7 27 -8 95 -3 199 l7 158 26 4 c38 7 1038 -3 1056 -9z m-55 -274 c0 -5
-2 -10 -4 -10 -3 0 -8 5 -11 10 -3 6 -1 10 4 10 6 0 11 -4 11 -10z m-2464
-247 c6 -120 9 -291 6 -380 l-4 -161 -63 -31 c-97 -48 -164 -147 -165 -242 -1
-152 115 -280 252 -278 152 1 268 122 268 279 0 108 -54 189 -180 271 l-25 16
0 189 c0 104 3 268 7 364 7 203 -2 191 126 170 94 -15 186 -46 292 -100 95
-47 128 -72 252 -194 81 -79 92 -95 152 -218 63 -129 84 -200 101 -333 3 -27
8 -59 10 -71 4 -20 -1 -21 -164 -30 -187 -11 -204 -17 -199 -68 l3 -31 189 -3
189 -2 -6 -66 c-9 -93 -34 -188 -72 -271 -42 -91 -154 -259 -221 -332 l-52
-56 -673 -3 -674 -4 -17 29 c-9 15 -53 78 -99 138 -126 168 -177 293 -195 482
l-6 72 27 7 c15 4 72 4 128 1 77 -3 123 0 188 14 56 12 103 16 137 12 l52 -6
0 37 0 38 -38 -7 c-21 -3 -111 1 -200 9 -89 9 -189 16 -222 16 -59 0 -60 1
-60 28 0 37 44 214 71 286 43 115 121 246 181 304 l34 32 -4 -35 c-4 -31 2
-41 69 -110 41 -42 91 -85 111 -96 37 -19 37 -19 48 0 22 43 12 67 -67 148
-80 82 -116 108 -133 98 -6 -3 -10 0 -10 7 0 30 143 142 234 184 43 20 370
111 407 114 3 0 10 -98 15 -217z m-956 -227 c0 -3 -4 -8 -10 -11 -5 -3 -10 -1
-10 4 0 6 5 11 10 11 6 0 10 -2 10 -4z m4248 -5 c10 -6 -27 -48 -132 -154
-197 -198 -228 -264 -192 -407 45 -174 168 -281 324 -283 117 -1 170 31 365
222 75 74 140 132 143 129 8 -9 -14 -188 -29 -230 -10 -28 -16 -35 -27 -27
-10 6 -11 9 -2 9 6 0 12 9 12 20 0 37 -17 21 -39 -37 -33 -86 -75 -145 -157
-222 -80 -74 -103 -88 -230 -132 -69 -24 -100 -29 -174 -29 -73 0 -90 -3 -90
-15 0 -8 4 -15 9 -15 5 0 12 -7 15 -16 10 -27 -76 -10 -163 33 -227 111 -373
429 -317 693 23 111 87 233 160 306 67 66 195 137 276 153 59 11 231 13 248 2z
m-1275 -205 c3 -45 6 -156 7 -247 2 -184 -1 -193 -62 -187 -42 4 -42 5 -33
296 l7 223 38 -3 38 -2 5 -80z m-746 -158 c-3 -8 -6 -5 -6 6 -1 11 2 17 5 13
3 -3 4 -12 1 -19z m-1218 -42 l22 -23 -32 -7 c-52 -10 -96 -44 -118 -90 -28
-57 -26 -91 8 -161 17 -33 26 -61 21 -63 -18 -7 -60 31 -80 72 -40 83 -20 185
47 247 59 55 97 62 132 25z m1920 -312 c17 -4 28 -11 24 -16 -3 -6 -5 -65 -4
-132 3 -199 -7 -292 -36 -327 -28 -33 -72 -39 -97 -13 -14 13 -16 48 -16 223
0 125 4 221 11 240 10 27 15 31 49 31 21 0 51 -3 69 -6z m621 -196 c6 -29 13
-63 16 -75 4 -23 -44 -90 -119 -166 -48 -48 -520 -494 -608 -575 -32 -29 -74
-75 -94 -102 -27 -36 -46 -52 -73 -59 -32 -9 -159 -15 -231 -12 -24 1 -24 1 5
23 75 57 724 670 944 892 69 69 130 126 136 126 7 0 17 -24 24 -52z m233 -303
l49 -39 -24 -18 c-13 -9 -43 -24 -68 -33 -25 -8 -76 -36 -114 -61 -67 -45
-430 -385 -525 -491 l-49 -54 -132 10 c-73 6 -137 8 -144 5 -16 -9 87 91 259
248 83 76 249 238 370 361 l220 224 55 -57 c30 -31 77 -74 103 -95z m-933 -25
c11 -6 31 -22 44 -35 14 -14 31 -25 38 -25 7 0 -14 -27 -47 -60 -33 -33 -63
-60 -67 -60 -4 0 -8 43 -8 95 0 98 3 105 40 85z m-1135 -181 c33 -6 73 -18 90
-26 31 -16 465 -441 465 -455 0 -5 -255 -7 -567 -6 l-568 3 -80 85 c-177 189
-327 323 -410 366 l-55 29 238 5 c466 11 828 10 887 -1z m-1705 -62 c0 -35 -3
-146 -7 -245 l-6 -182 -331 1 c-182 1 -364 4 -404 8 l-73 6 166 183 c241 265
287 291 518 292 l137 0 0 -63z m478 48 c93 -28 196 -107 375 -288 180 -182
186 -192 92 -179 -46 7 -50 10 -82 64 -18 31 -52 73 -75 92 -41 35 -43 36
-130 36 -99 0 -130 -11 -172 -60 -21 -26 -26 -42 -26 -86 l0 -54 -197 2 -198
3 -2 243 -3 242 183 0 c135 0 197 -4 235 -15z m3121 -14 c-68 -95 -176 -224
-261 -312 -57 -58 -116 -126 -133 -150 -16 -24 -31 -46 -32 -48 -2 -3 -20 3
-41 13 l-37 18 148 142 c82 77 197 189 255 249 104 105 128 126 101 88z
m-2899 -342 c50 -30 90 -70 90 -90 0 -15 -14 -18 -102 -21 -120 -5 -152 4
-156 45 -4 33 12 55 53 73 43 19 75 17 115 -7z m-1130 -189 l427 0 -5 -462
c-2 -255 -5 -464 -6 -464 0 -1 -72 -5 -159 -9 l-159 -8 7 65 c17 157 -33 296
-143 400 -101 95 -143 113 -267 113 -87 -1 -107 -4 -158 -27 -131 -61 -246
-220 -261 -362 -4 -36 -11 -66 -15 -66 -15 0 -41 36 -56 79 -11 33 -15 89 -15
237 l0 194 25 0 c67 0 153 75 175 154 11 39 10 54 -3 101 -11 40 -12 55 -4 59
7 3 52 4 101 1 49 -3 281 -5 516 -5z m2090 2 c597 2 1134 2 1194 1 118 -3 204
-20 263 -53 75 -41 157 -97 161 -108 2 -8 -27 -11 -104 -11 -70 0 -109 -4
-114 -11 -4 -7 -10 -11 -14 -11 -28 4 -38 -1 -32 -15 5 -14 2 -15 -21 -8 -45
13 -692 12 -734 -1 -49 -16 -105 -60 -141 -113 -28 -40 -32 -43 -46 -28 -12
11 -16 31 -14 68 3 66 27 93 89 103 26 4 53 14 62 23 14 14 11 15 -39 9 -30
-4 -169 -10 -307 -14 -139 -3 -253 -9 -253 -12 0 -8 100 -171 128 -208 24 -32
24 -36 27 -281 l2 -249 -32 -11 c-17 -7 -46 -12 -63 -12 l-32 0 0 88 c0 159
-35 270 -112 357 -102 115 -239 162 -387 131 -223 -47 -364 -253 -348 -511 l4
-68 -135 7 c-74 3 -239 6 -365 6 l-230 0 8 348 c3 191 7 367 8 392 1 25 -2 78
-7 117 l-8 72 154 4 c84 2 198 2 253 0 55 -2 588 -3 1185 -1z m-2869 -184 c-9
-31 -9 -31 -10 -6 -1 30 11 67 16 51 2 -6 0 -26 -6 -45z m3242 -78 c-8 -116
-20 -130 -112 -130 -54 0 -74 4 -95 21 -31 25 -90 108 -82 116 6 7 238 31 271
29 16 -1 20 -7 18 -36z m1317 0 c24 -31 40 -101 27 -117 -11 -15 -159 -18
-186 -4 -19 11 -91 122 -91 141 0 9 31 11 116 8 109 -3 116 -4 134 -28z m-373
-46 c15 -12 29 -28 31 -36 2 -13 -49 -14 -400 -11 -303 3 -402 7 -400 16 2 7
15 22 30 35 l27 22 342 -2 c330 -3 343 -4 370 -24z m153 -52 c0 -7 -4 -10 -10
-7 -5 3 -10 16 -10 28 0 18 2 19 10 7 5 -8 10 -21 10 -28z m-100 -71 c0 -11 3
-26 6 -35 6 -14 -36 -16 -430 -16 l-436 0 0 35 0 35 430 0 c417 0 430 -1 430
-19z m-3637 -44 c63 -38 132 -118 157 -185 43 -112 34 -276 -19 -380 -25 -49
-91 -108 -150 -135 -72 -34 -188 -31 -263 6 -67 33 -130 100 -167 177 -23 49
-26 67 -26 170 0 110 2 119 32 180 40 82 103 144 179 176 81 34 189 30 257 -9z
m1936 12 c137 -61 221 -200 221 -364 0 -156 -102 -311 -238 -364 -271 -106
-526 217 -412 522 39 104 110 175 210 210 65 23 165 21 219 -4z m1689 -88 c8
-4 12 -19 10 -32 l-3 -24 -418 -3 -417 -2 -10 26 c-6 14 -10 30 -10 35 0 11
830 12 848 0z m-68 -151 c-19 -16 -44 -32 -56 -35 -11 -4 -148 -5 -305 -3
l-284 3 -42 29 c-24 16 -43 30 -43 32 0 2 172 4 382 4 l382 0 -34 -30z m-954
-1 c10 -17 7 -70 -4 -81 -15 -15 -132 1 -139 18 -9 23 6 62 25 67 35 10 111 7
118 -4z m1335 -5 c16 -10 9 -53 -10 -63 -10 -6 -48 -13 -85 -17 l-66 -7 0 42
c0 34 4 43 23 51 21 10 121 5 138 -6z m-1371 -156 c0 -5 5 -6 11 -2 7 4 10 1
7 -7 -2 -7 -15 -16 -29 -19 -21 -5 -22 -7 -6 -13 29 -11 37 -9 46 16 8 19 10
20 16 5 12 -29 -2 -48 -34 -48 -42 0 -61 9 -61 30 0 10 -9 22 -20 25 -11 3
-20 11 -20 16 0 13 14 11 29 -3 7 -7 12 -8 11 -3 -2 6 -2 13 -1 16 2 10 51 -2
51 -13z m-1877 -170 c19 -7 85 -8 202 -4 l173 7 30 -44 c34 -48 83 -95 131
-123 17 -10 31 -21 31 -25 0 -13 -373 -21 -674 -13 -235 5 -306 10 -291 18 10
6 51 41 91 78 65 60 76 67 125 73 176 21 188 24 72 20 -86 -3 -113 0 -113 9 0
7 2 15 5 17 8 9 189 -2 218 -13z m2249 -36 c9 -15 42 -52 72 -80 31 -29 56
-57 56 -61 0 -19 -123 -23 -585 -21 l-220 1 28 22 c65 51 129 113 145 139 l16
28 236 0 236 0 16 -28z m958 -62 c335 -45 542 -104 614 -177 34 -34 33 -48 -6
-87 -119 -118 -812 -242 -1658 -296 -488 -31 -1567 -37 -1955 -10 -82 5 -220
15 -305 20 -445 31 -1027 106 -1244 161 -177 45 -294 89 -331 123 -19 18 -35
43 -35 54 0 21 40 57 95 85 83 42 449 133 491 123 11 -3 38 -20 60 -37 21 -17
50 -36 64 -42 22 -9 15 -12 -55 -19 -116 -13 -155 -25 -155 -48 0 -18 7 -20
64 -20 68 0 76 -6 76 -55 0 -13 10 -29 25 -39 86 -57 670 -132 1259 -162 590
-30 1587 -20 2031 21 88 8 243 22 345 30 249 21 475 57 568 91 45 17 72 53 72
98 0 20 8 27 47 40 26 9 56 16 67 17 16 0 13 3 -9 10 -41 13 -351 32 -397 25
-40 -6 -53 8 -18 19 11 3 43 26 72 50 29 25 58 45 63 45 6 0 75 -9 155 -20z
m-3440 -196 c85 -8 252 -18 370 -23 238 -9 2023 -8 2055 2 11 3 94 11 185 17
91 6 233 15 315 21 190 12 440 2 461 -19 69 -69 -311 -125 -1196 -177 -570
-33 -1174 -31 -1925 6 -395 19 -914 78 -983 111 -32 16 -42 56 -17 74 22 16
522 8 735 -12z m-1393 -178 c100 -39 259 -82 378 -101 44 -8 157 -27 250 -44
94 -16 211 -34 260 -40 155 -18 485 -49 595 -56 58 -3 206 -13 330 -23 313
-23 1400 -22 1840 2 168 9 316 18 330 21 49 9 359 25 374 19 22 -8 5 -29 -38
-48 -175 -78 -1782 -118 -2693 -66 -197 11 -859 81 -988 105 -389 71 -439 82
-570 127 -146 50 -165 62 -165 103 0 19 2 35 4 35 2 0 44 -15 93 -34z m4043
-1060 c18 -23 8 -61 -17 -64 -26 -4 -47 29 -38 58 7 23 37 26 55 6z m-2600
-15 c23 -43 -1 -101 -41 -101 -18 0 -59 44 -59 64 0 48 78 77 100 37z m3007
-302 c34 -68 -42 -137 -105 -93 -29 20 -31 83 -2 109 11 10 20 14 20 10 0 -5
5 -4 11 2 16 16 62 0 76 -28z m-3364 3 c43 -38 5 -112 -58 -112 -47 0 -69 31
-55 81 16 56 68 70 113 31z m677 -2 c47 -47 7 -140 -60 -140 -51 0 -77 39 -70
105 5 54 89 76 130 35z m1978 -67 c2 -23 -2 -51 -8 -63 -24 -44 -100 -9 -100
47 0 40 27 65 69 61 35 -3 36 -5 39 -45z m-1002 -101 c22 -15 44 -58 44 -85 0
-38 -40 -77 -80 -77 -41 0 -80 39 -80 80 0 56 76 110 116 82z"/>
<path d="M4165 7470 c-3 -5 -1 -10 4 -10 6 0 11 5 11 10 0 6 -2 10 -4 10 -3 0
-8 -4 -11 -10z"/>
<path d="M3975 7310 c-3 -5 -2 -10 4 -10 5 0 13 5 16 10 3 6 2 10 -4 10 -5 0
-13 -4 -16 -10z"/>
<path d="M6452 7698 c2 -125 5 -110 10 40 2 45 0 82 -4 82 -5 0 -7 -55 -6
-122z"/>
<path d="M6875 7688 c-120 -42 -172 -168 -116 -282 43 -87 146 -130 219 -92
31 16 84 71 101 103 30 59 1 180 -57 239 -44 44 -87 53 -147 32z m104 -113
c35 -41 42 -96 16 -145 -33 -63 -85 -76 -136 -33 -68 57 -71 134 -8 188 45 37
89 34 128 -10z"/>
<path d="M5574 7281 c-60 -44 -142 -133 -149 -161 -5 -19 0 -31 19 -49 23 -21
28 -23 55 -11 17 6 69 53 117 102 l87 91 -34 28 c-19 16 -39 29 -45 29 -6 0
-29 -13 -50 -29z"/>
<path d="M4530 7011 c-26 -50 3 -90 40 -56 24 22 26 61 4 69 -25 10 -33 7 -44
-13z"/>
<path d="M5334 7006 c-9 -25 0 -51 20 -54 31 -6 41 14 22 42 -18 29 -34 33
-42 12z"/>
<path d="M5460 6566 c0 -14 5 -26 10 -26 6 0 10 9 10 19 0 11 -4 23 -10 26 -6
4 -10 -5 -10 -19z"/>
<path d="M4366 6081 c-23 -43 -20 -61 8 -61 34 0 78 38 74 64 -2 16 -11 22
-35 24 -27 3 -34 -2 -47 -27z"/>
<path d="M5464 6086 c4 -16 14 -39 22 -52 21 -30 108 -88 112 -74 5 14 -41
112 -60 128 -8 6 -30 15 -48 18 -32 7 -33 6 -26 -20z"/>
<path d="M4932 6038 c4 -28 42 -37 52 -13 9 24 -1 35 -30 35 -21 0 -25 -4 -22
-22z"/>
<path d="M4158 5073 c23 -2 59 -2 80 0 20 2 1 4 -43 4 -44 0 -61 -2 -37 -4z"/>
<path d="M4096 4974 c-3 -8 -6 -27 -6 -41 l0 -26 126 5 c133 5 149 12 134 52
-7 19 -16 21 -127 24 -103 2 -122 0 -127 -14z"/>
<path d="M3155 4546 c-40 -17 -90 -75 -105 -121 -7 -20 -10 -67 -8 -105 3 -55
9 -74 32 -104 16 -21 42 -46 60 -57 35 -21 105 -25 139 -8 95 49 144 186 101
287 -40 96 -137 144 -219 108z"/>
<path d="M5102 4539 c-69 -34 -102 -99 -102 -198 1 -93 56 -180 126 -197 45
-11 112 2 148 29 55 42 79 104 74 192 -3 64 -7 78 -34 112 -33 42 -104 83
-144 83 -14 0 -44 -10 -68 -21z"/>
<path d="M4690 8380 c-24 -24 -25 -34 -4 -54 19 -19 19 -19 47 -4 12 7 35 12
52 12 21 1 31 7 33 19 3 14 -1 18 -15 15 -10 -3 -35 4 -55 14 -37 18 -38 18
-58 -2z"/>
<path d="M4992 8388 c-20 -20 -15 -66 8 -73 24 -8 60 11 60 30 0 16 -34 55
-48 55 -4 0 -13 -5 -20 -12z"/>
<path d="M3961 8383 c-13 -3 -45 -26 -71 -52 -53 -54 -64 -93 -48 -173 11 -55
55 -100 117 -119 110 -33 227 61 218 174 -4 52 -42 115 -87 148 -27 20 -90 30
-129 22z m103 -91 c54 -49 56 -111 4 -162 -82 -82 -198 24 -143 130 29 57 94
72 139 32z"/>
<path d="M5733 8284 c-15 -24 -15 -28 -1 -52 22 -36 34 -38 54 -8 14 22 14 31
4 56 -15 37 -34 38 -57 4z"/>
<path d="M5553 8274 c-8 -21 13 -64 31 -64 9 0 20 9 26 19 13 25 13 27 -6 45
-20 20 -43 20 -51 0z"/>
<path d="M5862 8228 c-28 -28 1 -64 43 -54 20 5 25 13 25 36 0 26 -4 30 -28
30 -15 0 -33 -5 -40 -12z"/>
<path d="M3007 8110 c-27 -5 -58 -15 -70 -23 -12 -8 -48 -62 -80 -120 l-58
-106 60 -103 c33 -57 64 -109 68 -116 9 -15 232 -29 277 -18 20 5 33 19 48 53
12 26 38 76 59 110 22 35 39 70 39 77 0 20 -67 155 -96 193 -35 46 -147 70
-247 53z m183 -70 c23 -23 90 -153 90 -174 0 -17 -49 -104 -86 -153 -25 -33
-26 -33 -110 -33 -83 0 -87 1 -115 31 -15 17 -43 56 -60 86 l-32 56 17 46 c28
77 66 132 99 146 18 8 65 14 105 15 59 0 76 -4 92 -20z"/>
<path d="M3400 8113 c0 -18 31 -85 56 -122 15 -23 24 -29 24 -19 0 10 -11 34
-25 54 -14 20 -25 42 -25 48 -1 14 -30 53 -30 39z"/>
<path d="M8060 7985 c0 -14 5 -25 10 -25 6 0 10 4 10 9 0 5 3 16 6 25 4 11 1
16 -10 16 -10 0 -16 -9 -16 -25z"/>
<path d="M8038 7905 c-11 -11 8 -78 25 -89 23 -15 37 6 37 57 0 34 -2 37 -28
37 -16 0 -31 -2 -34 -5z"/>
<path d="M2620 7776 c0 -2 18 -6 39 -8 22 -2 37 0 35 4 -5 8 -74 11 -74 4z"/>
<path d="M3495 7770 c-13 -5 -14 -9 -5 -9 8 0 24 4 35 9 13 5 14 9 5 9 -8 0
-24 -4 -35 -9z"/>
<path d="M2710 7730 c6 -11 13 -20 16 -20 2 0 0 9 -6 20 -6 11 -13 20 -16 20
-2 0 0 -9 6 -20z"/>
<path d="M3452 7723 c-27 -39 -52 -90 -52 -105 0 -7 9 5 20 27 11 22 30 55 41
73 25 39 18 43 -9 5z"/>
<path d="M8047 7726 c-4 -10 -19 -12 -56 -8 -54 5 -61 -1 -40 -40 9 -17 17
-19 54 -13 l44 6 3 -68 c3 -65 4 -68 28 -68 24 0 25 2 24 71 l-2 71 34 -10
c25 -8 37 -7 49 3 30 25 18 40 -34 40 -34 0 -51 4 -55 15 -7 19 -42 20 -49 1z"/>
<path d="M2750 7660 c11 -22 23 -40 25 -40 3 0 -4 18 -15 40 -11 22 -23 40
-25 40 -3 0 4 -18 15 -40z"/>
<path d="M2986 7475 c8 -50 14 -58 14 -19 0 16 -5 36 -11 44 -7 11 -8 4 -3
-25z"/>
<path d="M3177 7493 c-4 -3 -7 -16 -6 -27 0 -19 1 -19 10 3 10 24 8 36 -4 24z"/>
<path d="M3105 7098 l-6 -33 -67 0 c-37 0 -76 -4 -87 -8 -20 -8 -20 -9 -1 -23
13 -9 44 -14 87 -14 63 0 67 -1 73 -25 7 -29 36 -34 36 -7 0 10 6 27 14 37 14
19 15 19 34 2 12 -11 31 -17 49 -15 22 2 28 8 28 28 0 24 -2 25 -62 22 l-62
-3 -3 32 c-4 44 -25 48 -33 7z"/>
<path d="M2857 7061 c-13 -26 -13 -32 0 -50 20 -30 37 -26 51 11 10 27 9 35
-5 50 -22 25 -29 23 -46 -11z"/>
<path d="M2762 6306 c-17 -19 -33 -44 -37 -55 -14 -46 50 -121 105 -121 36 0
77 28 94 64 15 31 15 39 3 69 -19 45 -62 77 -102 77 -25 0 -40 -8 -63 -34z"/>
<path d="M3108 6324 c-62 -33 -75 -114 -29 -166 25 -28 36 -33 74 -33 34 0 52
6 70 23 56 53 58 112 7 163 -32 33 -77 38 -122 13z"/>
<path d="M2410 6205 c0 -5 5 -17 10 -25 5 -8 10 -10 10 -5 0 6 -5 17 -10 25
-5 8 -10 11 -10 5z"/>
<path d="M2795 6001 c-75 -32 -91 -141 -28 -191 72 -56 186 14 169 104 -12 61
-89 109 -141 87z"/>
<path d="M3091 5979 c-81 -76 -15 -217 90 -194 39 9 89 68 89 106 0 37 -24 85
-49 99 -35 18 -105 12 -130 -11z"/>
<path d="M2492 5524 c-12 -39 0 -76 31 -102 12 -10 18 -6 35 22 17 28 18 37 7
46 -7 6 -18 24 -25 40 -17 40 -34 38 -48 -6z"/>
<path d="M2254 5516 c-7 -31 1 -46 26 -46 21 0 37 40 25 59 -12 21 -44 12 -51
-13z"/>
<path d="M1893 5268 c-6 -7 -13 -28 -17 -47 -9 -48 -23 -61 -64 -61 -25 0 -44
8 -63 26 l-27 25 -71 -82 c-73 -84 -83 -107 -55 -129 52 -44 36 -86 -37 -96
-62 -8 -69 -20 -69 -116 0 -107 5 -118 49 -118 21 0 46 -6 56 -14 26 -19 25
-74 -3 -113 -12 -17 -22 -34 -22 -38 0 -11 142 -155 153 -155 5 0 22 11 39 25
58 49 112 29 122 -45 8 -61 20 -65 131 -53 84 9 90 13 100 75 5 31 11 38 42
49 32 10 41 9 79 -12 55 -29 72 -21 137 67 l48 65 -25 30 c-20 23 -24 37 -20
57 9 38 23 52 51 52 50 0 60 14 68 93 3 41 3 90 0 109 -6 34 -9 36 -53 41 -71
8 -94 57 -51 111 28 35 20 52 -57 126 l-65 63 -23 -22 c-26 -24 -47 -28 -89
-18 -29 8 -47 39 -47 81 0 30 -21 36 -126 36 -54 0 -85 -4 -91 -12z m169 -89
c3 -46 4 -46 91 -80 l57 -23 30 23 31 22 29 -23 c44 -34 47 -56 14 -83 -27
-22 -28 -23 -15 -66 7 -24 22 -59 33 -76 17 -28 25 -33 59 -33 l39 0 0 -59 0
-60 -44 -6 c-44 -7 -44 -7 -70 -78 l-26 -71 26 -27 c26 -27 26 -29 10 -54 -24
-36 -42 -41 -83 -21 -34 16 -38 16 -102 -5 -85 -28 -93 -35 -89 -78 l3 -36
-55 0 -55 0 -3 35 c-5 47 -11 53 -91 81 l-70 23 -24 -22 c-32 -30 -50 -28 -81
9 -32 37 -32 37 -1 78 23 32 23 35 9 70 -33 79 -48 96 -85 96 -41 0 -47 11
-48 84 l-1 53 35 -6 c47 -9 68 5 94 59 27 58 27 73 -5 106 l-26 27 31 46 c18
25 35 46 38 46 4 0 19 -12 34 -26 l28 -27 50 22 c27 11 59 21 71 21 22 0 40
33 40 76 0 23 3 24 59 24 l60 0 3 -41z"/>
<path d="M1929 5006 c-75 -26 -103 -51 -136 -115 -69 -132 -23 -265 111 -327
60 -28 93 -30 164 -9 140 42 202 190 138 331 -19 41 -36 61 -73 84 -78 50
-137 60 -204 36z m140 -71 c45 -23 78 -70 92 -129 11 -50 10 -58 -11 -100 -51
-107 -197 -130 -277 -44 -29 31 -53 89 -53 129 0 46 44 115 88 139 44 23 122
26 161 5z"/>
<path d="M8159 5273 c-47 -4 -47 -4 -53 -47 -5 -33 -13 -46 -32 -55 -34 -15
-60 -14 -90 6 -25 16 -26 15 -75 -33 -28 -27 -60 -62 -71 -77 -19 -26 -19 -29
-4 -46 20 -23 20 -50 0 -81 -25 -37 -45 -50 -75 -50 -26 0 -28 -3 -35 -56 -3
-30 -3 -74 2 -97 8 -39 12 -42 44 -45 45 -5 57 -16 71 -62 10 -33 9 -41 -11
-68 -17 -23 -20 -34 -11 -49 13 -26 119 -123 134 -123 6 0 21 9 33 21 17 16
29 19 53 14 34 -7 71 -47 71 -76 0 -10 9 -23 19 -29 22 -11 140 -13 158 -2 6
4 14 24 18 45 7 38 44 77 72 77 8 0 28 -10 45 -21 l29 -21 30 28 c16 16 43 50
60 76 25 38 28 51 20 67 -6 11 -11 33 -11 50 0 24 7 34 30 46 16 8 38 15 48
15 27 0 32 18 32 121 0 98 8 87 -75 104 -34 7 -45 65 -20 111 20 37 24 28 -49
117 -41 49 -60 58 -70 32 -8 -22 -68 -19 -99 5 -14 11 -29 35 -32 53 -13 59
-18 61 -156 50z m91 -70 c0 -58 9 -69 80 -96 81 -32 76 -32 108 -7 l25 20 24
-22 c29 -27 30 -62 2 -82 -21 -14 -21 -17 -7 -48 9 -18 19 -44 23 -58 10 -36
45 -70 70 -70 20 0 22 -6 24 -60 l2 -60 -29 0 c-37 0 -54 -19 -85 -97 -20 -53
-22 -64 -11 -74 19 -15 18 -44 -2 -64 -15 -14 -19 -14 -49 5 -19 12 -36 17
-39 11 -4 -5 -30 -17 -59 -27 -60 -20 -67 -27 -67 -72 l0 -33 -46 3 c-43 3
-47 6 -58 36 -9 27 -24 39 -91 72 -79 39 -80 39 -97 19 -9 -10 -19 -25 -22
-32 -3 -8 -14 -1 -30 18 -30 35 -32 52 -11 75 14 16 13 23 -11 81 -36 84 -41
89 -79 89 -36 0 -45 15 -45 83 0 36 1 37 38 37 38 0 40 1 75 74 21 41 37 77
37 82 0 4 -9 18 -21 30 l-20 21 31 32 c35 34 51 38 70 16 16 -19 39 -19 60 0
9 8 32 16 53 19 51 6 57 12 57 56 0 37 1 39 38 43 20 2 43 4 50 5 7 1 12 -9
12 -25z"/>
<path d="M8100 5012 c-19 -9 -53 -35 -75 -57 -140 -139 -41 -380 160 -393 55
-4 70 0 116 24 114 63 157 198 98 314 -53 105 -201 161 -299 112z m185 -72
c41 -25 75 -92 75 -146 0 -58 -37 -125 -85 -151 -126 -71 -275 39 -252 184 20
119 156 178 262 113z"/>
<path d="M7684 4255 c-12 -30 16 -45 46 -25 13 9 12 12 -4 25 -25 19 -35 19
-42 0z"/>
<path d="M1786 4025 c-79 -28 -125 -103 -111 -184 10 -57 38 -96 90 -121 57
-28 109 -23 158 14 102 78 87 231 -27 285 -53 24 -58 25 -110 6z m119 -86 c33
-36 36 -46 31 -78 -8 -50 -36 -84 -84 -101 -39 -13 -43 -13 -69 6 -38 28 -67
88 -58 121 3 14 21 41 40 60 49 49 91 46 140 -8z"/>
<path d="M8445 3953 l0 -48 -49 -3 c-53 -3 -78 10 -58 30 7 7 12 20 12 31 0
13 -6 18 -22 15 -23 -3 -27 -17 -14 -49 5 -10 -1 -19 -19 -27 -32 -15 -32 -42
1 -65 24 -18 27 -18 44 -2 12 11 31 15 61 13 38 -3 44 -7 53 -35 6 -17 15 -35
19 -39 11 -11 27 15 27 42 0 24 17 34 60 34 16 0 30 6 33 13 9 26 -6 37 -50
37 l-45 0 4 48 c3 46 2 47 -27 50 -30 3 -30 2 -30 -45z"/>
<path d="M8180 3182 c-49 -22 -95 -78 -110 -133 -22 -80 26 -175 105 -204 153
-59 294 117 210 261 -38 65 -142 104 -205 76z m110 -67 c82 -43 77 -179 -9
-214 -125 -52 -223 139 -107 210 38 23 77 24 116 4z"/>
<path d="M1970 3099 l0 -51 -56 7 -55 7 3 -34 c3 -32 5 -33 53 -38 l50 -5 -3
-37 c-3 -28 1 -39 17 -47 34 -19 51 -4 51 45 l0 44 51 0 c49 0 50 1 47 28 -3
25 -7 27 -51 30 l-49 3 4 47 c3 47 3 47 -29 50 l-33 3 0 -52z"/>
<path d="M7544 2959 c-11 -18 -23 -100 -17 -116 3 -7 17 -13 30 -13 25 0 26 1
19 56 -8 67 -19 93 -32 73z"/>
<path d="M2666 2909 c-10 -54 -7 -69 13 -69 27 0 31 9 24 58 -7 50 -28 56 -37
11z"/>
<path d="M3084 2790 c-68 -34 -83 -93 -35 -141 22 -21 39 -29 66 -29 50 0 95
44 95 93 0 27 -8 42 -35 66 -20 17 -39 31 -43 31 -4 0 -25 -9 -48 -20z"/>
<path d="M7062 2778 c-33 -33 9 -80 54 -59 24 11 29 26 18 55 -7 19 -55 21
-72 4z"/>
<path d="M7513 2570 c-57 -34 -69 -89 -33 -148 52 -84 156 -52 167 52 5 42 3
48 -30 81 -40 40 -59 43 -104 15z m73 -75 c9 -38 -4 -65 -32 -65 -17 0 -27 8
-34 26 -13 34 -13 40 5 57 20 20 54 10 61 -18z"/>
<path d="M2645 2568 c-51 -28 -65 -50 -65 -103 0 -41 5 -58 24 -78 66 -72 186
-23 186 76 0 52 -13 73 -60 97 -45 23 -57 24 -85 8z m73 -70 c17 -17 15 -48
-5 -70 -19 -21 -44 -23 -61 -6 -16 16 -15 75 1 81 22 10 53 7 65 -5z"/>
<path d="M5465 2375 c-21 -20 -25 -34 -25 -83 0 -74 19 -101 76 -109 82 -11
141 49 131 134 -7 65 -28 83 -99 83 -49 0 -63 -4 -83 -25z"/>
<path d="M4290 1339 c-443 -4 -897 -12 -1010 -18 -113 -6 -218 -11 -235 -12
-29 -1 -29 -1 -5 -8 26 -7 170 -4 178 4 3 3 11 0 19 -6 7 -6 26 -9 42 -6 24 5
31 2 36 -13 5 -15 15 -20 40 -20 18 0 35 -4 37 -9 2 -5 51 -11 111 -12 59 -2
107 -7 107 -11 0 -5 -53 -9 -117 -10 l-118 -1 140 -8 c178 -8 2624 -8 3010 0
160 4 272 8 250 9 -30 2 -36 5 -25 12 8 5 27 10 43 10 15 0 27 5 27 10 0 6 7
10 16 10 9 0 25 9 35 21 16 18 26 20 91 16 95 -7 141 -17 151 -34 11 -18 91
-17 106 1 10 12 7 18 -13 31 -19 13 -65 19 -193 25 -92 5 -188 12 -213 15 -78
9 -1671 12 -2510 4z"/>
<path d="M7393 1303 c9 -2 23 -2 30 0 6 3 -1 5 -18 5 -16 0 -22 -2 -12 -5z"/>
<path d="M7440 1294 c0 -8 5 -12 10 -9 6 4 8 11 5 16 -9 14 -15 11 -15 -7z"/>
<path d="M2868 1293 c7 -3 16 -2 19 1 4 3 -2 6 -13 5 -11 0 -14 -3 -6 -6z"/>
<path d="M7828 1279 c-21 -12 -23 -40 -6 -57 17 -17 74 -15 92 4 21 21 20 30
-6 48 -26 18 -55 20 -80 5z"/>
<path d="M2213 1250 c-21 -9 -32 -22 -15 -18 4 0 14 -2 23 -6 9 -4 38 -6 65
-4 36 2 49 7 49 18 0 18 -86 25 -122 10z"/>
</g>
</svg>
