<?xml version="1.0" standalone="no"?>
<!DOCTYPE svg PUBLIC "-//W3C//DTD SVG 20010904//EN"
 "http://www.w3.org/TR/2001/REC-SVG-20010904/DTD/svg10.dtd">
<svg version="1.0" xmlns="http://www.w3.org/2000/svg"
 width="1024.000000pt" height="1024.000000pt" viewBox="0 0 1024.000000 1024.000000"
 preserveAspectRatio="xMidYMid meet">

<g transform="translate(0.000000,1024.000000) scale(0.100000,-0.100000)"
fill="#000000" stroke="none">
<path d="M4158 8963 c-9 -10 -26 -38 -38 -61 -19 -40 -23 -42 -38 -29 -9 7
-24 18 -32 23 -13 7 -12 4 1 -16 9 -14 28 -26 43 -28 22 -3 29 3 45 40 35 82
69 87 100 14 11 -24 24 -47 30 -50 12 -8 62 16 80 38 17 20 1 21 -25 1 -34
-26 -53 -18 -73 29 -25 57 -63 73 -93 39z"/>
<path d="M3987 8893 c-4 -3 -7 -21 -7 -39 0 -18 -5 -34 -12 -36 -7 -3 -4 -12
11 -27 12 -12 24 -21 26 -19 2 2 0 21 -5 43 -5 22 -7 50 -3 63 5 22 2 28 -10
15z"/>
<path d="M4394 8876 c22 -21 23 -29 19 -89 l-6 -66 47 -23 c53 -25 72 -64 41
-82 -69 -41 -96 -90 -66 -120 9 -10 11 -16 4 -16 -7 0 -15 5 -18 10 -3 6 -11
10 -16 10 -5 0 -3 -10 6 -23 11 -18 12 -31 4 -60 -11 -40 -36 -49 -59 -21 -9
10 -26 14 -49 12 -33 -3 -38 -8 -60 -55 -34 -73 -58 -72 -94 2 -29 60 -48 68
-97 40 -37 -21 -55 -18 -70 13 -7 16 -14 22 -17 14 -7 -18 24 -62 44 -62 8 0
31 10 50 21 32 20 35 20 53 4 11 -10 24 -33 30 -51 17 -51 63 -70 94 -39 9 9
20 34 26 55 12 45 28 50 88 24 35 -14 38 -14 55 7 9 12 20 33 23 48 3 14 9 33
14 42 4 9 4 22 -1 30 -15 24 -10 49 15 74 15 15 31 22 44 18 26 -6 45 26 34
58 -5 12 -26 34 -48 48 -47 32 -63 70 -45 105 12 22 10 27 -19 60 -18 20 -37
36 -41 36 -5 0 2 -11 15 -24z"/>
<path d="M2630 8859 c-217 -36 -447 -267 -496 -497 -18 -89 -18 -253 1 -327
77 -297 365 -502 680 -482 292 19 542 243 590 531 11 67 6 213 -10 282 -45
195 -226 400 -409 464 -102 36 -242 47 -356 29z m301 -54 c43 -12 98 -34 123
-49 76 -44 53 -46 -31 -3 -53 27 -80 33 -118 24 -11 -2 -14 -2 -7 0 7 3 10 9
7 14 -8 12 -65 12 -65 -1 0 -5 5 -10 10 -10 15 0 12 -30 -2 -31 -7 -1 7 -7 32
-14 25 -7 38 -14 30 -14 -16 -1 35 -31 54 -31 6 0 25 -11 41 -25 l30 -26 -35
19 c-84 45 -141 57 -265 57 -117 0 -122 -1 -185 -33 -87 -45 -106 -63 -174
-165 -61 -92 -96 -169 -96 -215 0 -18 -3 -23 -9 -14 -6 10 -10 8 -14 -10 -11
-37 -8 -76 6 -90 7 -7 18 -50 25 -96 15 -106 54 -182 133 -257 96 -92 231
-145 373 -147 64 -1 67 -2 31 -9 -22 -4 -55 -8 -73 -8 -35 -1 -180 43 -196 60
-6 5 -25 9 -43 9 -27 0 -34 -5 -39 -26 -5 -18 -1 -29 12 -39 18 -13 18 -14 2
-15 -10 0 -18 4 -18 8 0 4 -15 13 -32 20 -74 27 -196 166 -247 282 -32 74 -44
161 -38 278 9 182 59 295 185 417 77 74 128 108 200 135 118 45 252 46 393 5z
m-66 -120 c165 -44 317 -190 360 -349 14 -50 17 -90 13 -169 -4 -94 -8 -112
-41 -180 -42 -90 -138 -191 -214 -227 -203 -96 -402 -55 -565 119 -73 77 -100
134 -119 251 -20 118 12 258 81 360 39 57 127 133 196 169 74 39 197 50 289
26z m210 -65 c3 -5 1 -10 -4 -10 -6 0 -11 5 -11 10 0 6 2 10 4 10 3 0 8 -4 11
-10z m115 -132 c0 -13 -7 -6 -69 73 -33 43 -33 43 18 -8 28 -28 51 -57 51 -65z
m-60 -762 c0 -2 -12 -11 -27 -20 l-28 -17 24 20 c23 21 31 25 31 17z m-60 -40
c0 -2 -7 -7 -16 -10 -8 -3 -12 -2 -9 4 6 10 25 14 25 6z m-473 -62 c-3 -3 -12
-4 -19 -1 -8 3 -5 6 6 6 11 1 17 -2 13 -5z m78 -14 c18 -8 18 -9 -5 -9 -14 0
-34 4 -45 9 -18 8 -18 9 5 9 14 0 34 -4 45 -9z m108 -17 c-13 -2 -33 -2 -45 0
-13 2 -3 4 22 4 25 0 35 -2 23 -4z"/>
<path d="M2675 8789 c-82 -16 -168 -47 -200 -75 l-30 -25 45 24 c51 28 138 51
188 49 19 -1 30 3 27 8 -4 6 7 10 24 10 17 0 31 5 31 10 0 12 -16 11 -85 -1z"/>
<path d="M2405 8662 c-11 -10 -36 -36 -55 -58 -21 -24 -13 -18 23 16 31 30 57
56 57 57 0 5 -5 2 -25 -15z"/>
<path d="M2202 8300 c0 -14 2 -19 5 -12 2 6 2 18 0 25 -3 6 -5 1 -5 -13z"/>
<path d="M2673 8623 c9 -2 23 -2 30 0 6 3 -1 5 -18 5 -16 0 -22 -2 -12 -5z"/>
<path d="M2593 8604 c-17 -7 -35 -18 -38 -24 -4 -7 10 -3 31 8 22 11 46 22 54
25 13 5 13 5 0 5 -8 0 -29 -6 -47 -14z"/>
<path d="M2917 8590 c50 -25 77 -48 131 -113 38 -45 74 -91 80 -102 6 -11 12
-15 12 -9 0 15 -104 152 -138 182 -31 27 -86 56 -122 66 -14 4 3 -7 37 -24z"/>
<path d="M2792 8487 l3 -122 28 -3 c48 -6 167 89 167 132 0 40 -80 92 -168
109 l-33 7 3 -123z"/>
<path d="M2623 8578 c-29 -11 -65 -32 -79 -45 l-27 -25 74 -74 c55 -56 80 -74
101 -74 15 0 29 4 32 9 3 4 9 58 12 120 l7 111 -34 -1 c-19 0 -58 -10 -86 -21z"/>
<path d="M2457 8442 c-41 -47 -105 -244 -67 -206 6 6 46 7 102 3 51 -4 96 -5
99 -3 4 2 16 21 27 42 l20 38 -83 71 c-76 66 -85 70 -98 55z"/>
<path d="M2980 8400 c-25 -25 -56 -54 -68 -62 -27 -18 -24 -40 9 -82 19 -25
25 -26 116 -26 l96 0 -6 60 c-4 34 -12 71 -18 83 -16 31 -61 77 -73 76 -6 -1
-31 -23 -56 -49z"/>
<path d="M3141 8334 c0 -11 3 -14 6 -6 3 7 2 16 -1 19 -3 4 -6 -2 -5 -13z"/>
<path d="M3152 8280 c0 -19 2 -27 5 -17 2 9 2 25 0 35 -3 9 -5 1 -5 -18z"/>
<path d="M2726 8254 c-33 -32 -8 -104 35 -104 29 0 59 31 59 60 0 49 -61 78
-94 44z"/>
<path d="M3163 8170 c0 -41 2 -58 4 -37 2 20 2 54 0 75 -2 20 -4 3 -4 -38z"/>
<path d="M2352 8170 c0 -14 2 -19 5 -12 2 6 2 18 0 25 -3 6 -5 1 -5 -13z"/>
<path d="M2395 8144 c9 -60 39 -141 65 -174 l19 -25 76 75 c41 41 75 82 75 92
0 9 -10 28 -22 42 -21 22 -34 25 -122 31 l-99 7 8 -48z"/>
<path d="M2916 8168 c-37 -59 -34 -66 53 -148 l81 -77 30 46 c31 46 60 127 60
166 0 20 -7 23 -77 29 -119 10 -131 8 -147 -16z"/>
<path d="M3143 8050 c-5 -22 -7 -37 -2 -35 9 6 23 64 17 70 -2 3 -9 -13 -15
-35z"/>
<path d="M2639 8038 c-19 -18 -53 -55 -77 -82 l-42 -49 22 -25 c29 -31 89 -58
151 -67 l47 -7 0 111 c0 98 -2 113 -20 131 -27 27 -42 25 -81 -12z"/>
<path d="M2817 8058 l-28 -10 3 -116 3 -117 28 -3 c34 -4 101 27 152 71 l38
33 -73 69 c-86 84 -88 85 -123 73z"/>
<path d="M3081 7940 c-38 -48 -121 -111 -176 -134 -32 -13 -34 -16 -10 -11 65
13 148 77 207 158 29 41 16 33 -21 -13z"/>
<path d="M2465 7910 c10 -11 20 -20 23 -20 3 0 -3 9 -13 20 -10 11 -20 20 -23
20 -3 0 3 -9 13 -20z"/>
<path d="M2504 7872 c10 -17 108 -72 126 -71 8 0 -5 9 -28 20 -24 10 -58 29
-75 41 -17 12 -27 16 -23 10z"/>
<path d="M2680 7786 c0 -8 48 -12 66 -5 13 5 7 8 -23 8 -24 1 -43 -1 -43 -3z"/>
<path d="M2798 7783 c12 -2 32 -2 45 0 12 2 2 4 -23 4 -25 0 -35 -2 -22 -4z"/>
<path d="M4139 8791 c-50 -16 -71 -33 -90 -74 -24 -54 -24 -108 0 -156 24 -46
32 -53 98 -81 l53 -22 53 26 c79 38 122 123 103 202 -18 79 -127 132 -217 105z
m141 -40 c32 -22 60 -77 60 -116 -1 -65 -80 -155 -137 -155 -13 0 -44 10 -69
22 -37 17 -51 31 -66 66 -22 48 -20 113 3 150 37 58 148 76 209 33z"/>
<path d="M6878 8780 c-58 -45 -38 -143 31 -155 l36 -6 0 -477 0 -477 27 -28
27 -27 522 2 522 3 20 28 c14 18 20 39 18 65 -1 20 -3 233 -5 473 l-3 436 31
9 c44 13 62 54 47 105 -22 73 12 69 -652 69 -578 0 -597 -1 -621 -20z m1210
-26 c15 -10 22 -25 22 -48 l0 -34 -252 -7 c-139 -3 -415 -5 -613 -3 l-360 3
-3 39 c-6 71 -54 66 595 66 517 0 591 -2 611 -16z m-573 -145 c55 -1 88 -4 73
-6 -16 -2 -28 -9 -28 -14 0 -5 -10 -9 -22 -9 -29 -1 -52 -19 -56 -45 -4 -22
-51 -115 -117 -230 -83 -145 -98 -182 -93 -233 6 -57 29 -110 67 -148 35 -36
165 -114 189 -114 22 0 74 -34 65 -43 -3 -4 -136 -7 -295 -7 -185 0 -288 -4
-288 -10 0 -5 5 -10 11 -10 5 0 8 -4 5 -9 -4 -5 -1 -11 4 -13 15 -5 1 -68 -15
-68 -7 0 -17 6 -23 13 -11 14 -28 930 -16 948 5 9 59 11 223 6 119 -4 261 -8
316 -8z m75 -48 c0 -11 3 -27 7 -37 5 -12 3 -15 -6 -9 -10 6 -11 3 -1 -15 10
-18 9 -21 -1 -18 -15 5 -38 68 -31 86 7 19 32 14 32 -7z m-58 -48 c9 -10 28
-43 43 -73 15 -30 56 -95 90 -145 80 -116 95 -146 95 -193 0 -100 -85 -223
-164 -238 -106 -19 -212 21 -271 104 -25 37 -30 54 -33 115 l-4 72 72 115 c39
63 87 148 106 188 20 39 39 72 43 72 4 0 15 -8 23 -17z m-362 -784 c12 -8 9
-9 -12 -5 -25 6 -30 2 -27 -20 1 -10 -24 -24 -44 -24 -10 0 -15 5 -12 10 3 6
-1 10 -10 10 -11 0 -15 5 -12 14 3 8 1 17 -6 20 -7 2 15 5 48 5 33 0 67 -4 75
-10z m-97 -66 c-7 -2 -19 -2 -25 0 -7 3 -2 5 12 5 14 0 19 -2 13 -5z m232 -13
c-16 -4 -43 -8 -60 -8 -29 0 -29 0 -5 8 14 4 41 8 60 8 l35 0 -30 -8z"/>
<path d="M7948 8723 c18 -2 45 -2 60 0 15 2 0 4 -33 4 -33 0 -45 -2 -27 -4z"/>
<path d="M8048 8693 c6 -2 18 -2 25 0 6 3 1 5 -13 5 -14 0 -19 -2 -12 -5z"/>
<path d="M3936 8747 l7 -46 -37 -6 c-20 -4 -39 -12 -42 -17 -9 -14 15 -66 34
-73 14 -5 14 -4 -1 13 -28 31 -22 59 15 66 50 10 57 21 44 61 -18 53 -27 54
-20 2z"/>
<path d="M3956 8498 c4 -13 8 -31 8 -41 0 -17 2 -17 18 3 17 21 17 24 2 41
-23 26 -37 24 -28 -3z"/>
<path d="M1585 8419 c-4 -6 -5 -12 -2 -15 2 -3 7 2 10 11 7 17 1 20 -8 4z"/>
<path d="M1616 8405 c-3 -8 -1 -17 3 -20 5 -3 11 2 15 10 3 8 1 17 -3 20 -5 3
-11 -2 -15 -10z"/>
<path d="M1362 8123 c-39 -19 -82 -87 -82 -130 0 -41 19 -93 42 -119 22 -24
96 -49 124 -41 14 3 12 5 -7 6 -57 2 -89 22 -109 67 -25 54 -25 85 0 135 15
29 29 41 51 46 23 4 27 8 17 15 -9 7 -4 8 15 4 20 -5 27 -3 27 9 0 12 5 10 21
-6 17 -17 23 -19 30 -8 6 10 8 8 7 -7 -2 -18 -5 -20 -30 -10 -57 21 -128 -44
-128 -118 0 -55 18 -85 56 -92 47 -9 82 2 117 37 26 27 29 35 25 77 -4 40 -2
48 12 49 9 1 17 -4 18 -10 1 -7 4 -25 8 -41 4 -18 2 -31 -5 -36 -7 -4 -13 -14
-15 -23 -1 -9 -15 -30 -31 -47 -16 -16 -24 -30 -19 -30 13 0 58 48 73 77 15
30 14 89 -3 122 -8 15 -31 42 -51 60 -29 25 -44 31 -83 31 -26 0 -62 -8 -80
-17z m131 -73 c10 -9 21 -35 24 -57 7 -53 -25 -92 -83 -100 -35 -4 -44 -2 -58
18 -28 40 -21 92 18 134 38 40 62 41 99 5z"/>
<path d="M5075 8040 l-1090 -5 -65 -31 c-74 -35 -154 -111 -194 -183 -44 -82
-56 -150 -56 -327 0 -158 -1 -162 -23 -177 -34 -22 -60 -151 -41 -201 4 -10
18 -16 35 -16 l30 0 -3 -82 c-3 -82 -3 -83 -30 -86 l-28 -3 0 -182 c0 -100 4
-187 8 -193 4 -6 17 -14 30 -18 17 -6 22 -15 22 -41 0 -28 -5 -35 -30 -44
l-30 -10 1 -173 c1 -217 7 -262 35 -266 l21 -3 4 -697 c2 -383 2 -807 -1 -942
-4 -217 -6 -241 -18 -208 -24 68 -55 77 -262 78 l-145 2 -27 -31 c-23 -26 -28
-41 -28 -84 0 -102 46 -139 205 -161 52 -7 97 -15 100 -18 3 -2 -19 -35 -49
-72 -123 -154 -134 -210 -137 -661 -2 -344 8 -892 16 -932 3 -12 16 -35 30
-51 l25 -30 -37 -6 c-21 -3 -193 -5 -383 -4 -252 1 -339 4 -325 12 50 28 112
98 125 138 10 34 13 173 11 643 -2 601 -6 761 -22 781 -5 6 1 24 17 45 14 19
37 55 50 82 21 40 24 56 18 100 -4 28 -13 59 -21 69 -8 9 -63 48 -122 87 -98
65 -151 86 -151 61 0 -5 -7 -7 -15 -4 -19 8 -126 -105 -150 -157 -9 -19 -28
-43 -43 -52 l-27 -16 26 -1 c17 0 58 -24 113 -65 47 -35 126 -90 176 -120 49
-31 94 -64 100 -74 5 -11 12 -231 16 -534 l7 -516 -27 -7 c-17 -4 -31 -2 -35
5 -9 14 -62 -41 -84 -89 -25 -53 -39 -67 -91 -93 -34 -17 -43 -26 -32 -30 9
-4 16 -1 16 6 0 8 3 8 9 -2 7 -11 9 -11 14 0 3 8 6 -17 6 -56 1 -63 4 -73 30
-101 24 -26 36 -30 75 -30 25 1 46 0 46 -1 0 -2 -17 -11 -38 -22 -77 -39 -145
-44 -677 -45 l-510 -1 -45 24 c-84 44 -121 90 -140 176 -14 64 -15 1412 -1
1518 12 90 25 118 80 175 69 71 76 72 410 72 172 0 312 -4 333 -10 63 -18 132
-80 158 -144 12 -31 25 -56 29 -56 48 1 16 113 -51 173 -82 74 -68 72 -421 75
-365 3 -393 -1 -469 -67 -59 -52 -96 -135 -109 -243 -5 -46 -9 -390 -9 -779 0
-757 0 -752 56 -827 34 -45 50 -59 87 -76 26 -12 16 -13 -101 -19 -71 -4 -144
-4 -160 -1 -48 10 -104 -4 -100 -24 3 -15 218 -16 2932 -19 1611 -1 2995 -3
3075 -3 80 -1 148 -1 151 0 3 0 464 3 1025 6 561 3 1022 7 1024 10 11 10 -12
16 -72 17 -63 2 -64 2 -38 18 67 42 91 96 91 207 l0 74 -52 -6 c-78 -8 -1725
-12 -1733 -4 -12 12 4 40 19 35 8 -3 407 -9 888 -13 l875 -7 6 124 c9 177 -5
230 -75 282 -36 27 -136 36 -413 37 l-230 1 70 23 c366 118 630 493 628 891
-1 235 -90 444 -257 610 -165 162 -312 237 -523 265 -106 13 -229 3 -353 -31
-327 -89 -579 -384 -631 -741 -16 -111 -6 -302 21 -396 56 -199 158 -345 331
-476 90 -69 227 -136 277 -136 10 0 23 -4 31 -9 9 -6 -97 -9 -271 -8 l-286 2
-43 -30 c-80 -57 -79 -51 -83 -315 -5 -276 1 -303 72 -357 l44 -33 -286 0
-286 0 33 46 32 46 3 645 c3 716 4 699 -63 839 -19 39 -55 94 -80 122 -25 28
-42 53 -38 55 5 2 31 8 58 11 147 21 225 59 251 122 22 53 18 90 -15 126 l-29
33 -184 0 c-119 0 -190 -4 -203 -12 -20 -11 -20 -8 -20 909 l0 921 21 7 c20 8
21 17 28 223 4 118 4 315 0 437 -7 205 -9 223 -26 228 -17 4 -18 23 -18 346 0
448 -10 495 -128 618 -92 97 -173 133 -312 140 -36 2 -555 1 -1155 -2z m-1009
-49 c-3 -4 -32 -18 -65 -30 -138 -50 -239 -171 -271 -324 -15 -74 -35 -77 -26
-4 21 163 124 306 253 353 42 15 117 19 109 5z m338 -103 c7 -13 17 -40 20
-60 9 -50 49 -95 94 -108 23 -6 259 -10 639 -10 529 0 607 2 643 16 43 17 72
55 89 119 19 70 9 67 217 63 183 -3 191 -4 246 -31 75 -37 139 -109 173 -195
l26 -67 -3 -1650 c-2 -907 -7 -1658 -12 -1667 -13 -27 -21 -22 -42 24 -21 48
-129 212 -180 273 -54 66 -135 116 -212 131 -207 39 -816 60 -1302 45 -195 -7
-375 -14 -400 -17 l-45 -6 -46 91 c-42 83 -59 101 -59 64 0 -8 -19 -52 -42
-99 -41 -81 -45 -86 -103 -115 -33 -17 -75 -45 -92 -62 -38 -36 -113 -144
-164 -236 -20 -36 -40 -66 -45 -68 -14 -5 -7 3237 7 3312 14 75 39 125 89 175
80 80 140 97 352 99 132 1 138 0 152 -21z m989 -35 c-7 -2 -21 -2 -30 0 -10 3
-4 5 12 5 17 0 24 -2 18 -5z m-1136 -3090 c-5 -7 -2 -13 9 -15 9 -1 -3 -8 -27
-13 l-44 -11 30 62 30 62 5 -36 c3 -21 2 -42 -3 -49z m1298 -23 c262 -12 494
-35 563 -55 112 -34 190 -112 303 -305 35 -60 93 -158 128 -217 83 -142 81
-135 36 -131 -37 3 -38 5 -94 113 -125 240 -237 410 -300 452 -79 53 -243 78
-636 94 -327 14 -888 6 -1110 -16 -232 -22 -299 -43 -370 -112 -45 -45 -153
-216 -240 -383 -78 -148 -83 -155 -114 -158 -30 -3 -32 -2 -25 20 15 49 185
350 254 452 82 121 134 164 238 196 149 47 866 73 1367 50z m2675 -80 c0 -5
-39 -21 -87 -35 -203 -60 -269 -91 -368 -171 -176 -144 -289 -361 -320 -617
-4 -31 -12 -60 -18 -64 -14 -9 -1 207 16 272 22 81 76 202 118 264 116 174
329 320 511 350 74 12 148 13 148 1z m-3683 -26 c13 -4 20 -11 17 -19 -4 -10
1 -12 17 -8 15 4 20 3 15 -6 -4 -6 -11 -9 -15 -7 -4 3 -17 -3 -28 -13 -27 -25
-83 -53 -168 -84 -38 -13 -118 -45 -177 -70 -59 -26 -133 -54 -165 -63 -32 -9
-65 -21 -73 -28 -14 -11 3 21 66 120 53 84 91 121 142 138 106 35 307 57 369
40z m4009 -224 c219 -110 349 -291 383 -532 15 -111 -13 -269 -69 -385 -33
-67 -143 -191 -218 -247 -51 -37 -174 -90 -250 -107 -138 -31 -339 1 -457 72
-82 49 -179 141 -218 207 -66 108 -89 192 -95 332 -9 263 68 440 255 585 100
77 144 97 278 129 11 3 79 4 152 3 l132 -3 107 -54z m-4991 -218 c24 -6 36
-21 63 -76 18 -37 30 -71 27 -76 -12 -19 -89 -19 -239 -1 -178 23 -196 31
-196 91 0 36 16 59 50 74 20 8 256 -1 295 -12z m3474 5 c63 -32 78 -107 26
-127 -35 -13 -311 -42 -365 -38 -44 3 -45 4 -48 39 -4 51 12 85 50 105 55 29
293 44 337 21z m-4341 -105 c86 -59 113 -85 99 -98 -3 -3 -15 0 -28 6 -19 11
-21 10 -16 -4 8 -21 -2 -20 -33 4 -14 11 -29 20 -33 20 -4 0 -25 17 -47 38
-21 22 -52 45 -69 51 -37 16 -48 41 -25 58 20 15 22 14 152 -75z m-202 -45
c-14 -19 -26 -39 -26 -45 0 -14 -26 -16 -35 -2 -7 11 18 61 54 109 l26 35 3
-32 c2 -22 -5 -42 -22 -65z m74 11 c-1 -19 -67 -91 -74 -80 -3 5 8 22 24 37
17 16 30 35 30 42 0 7 5 13 10 13 6 0 10 -6 10 -12z m3954 -54 c38 -3 92 -14
120 -25 68 -25 172 -111 218 -179 42 -62 49 -83 15 -52 -12 11 -40 28 -61 37
-44 18 -103 12 -306 -31 -63 -14 -162 -34 -220 -45 -58 -11 -141 -29 -185 -41
-79 -20 -81 -20 -230 -2 -130 16 -224 18 -700 18 -302 -1 -658 -3 -790 -5
l-240 -3 -230 48 c-297 63 -309 65 -380 65 -43 1 -69 -5 -92 -19 -18 -11 -33
-17 -33 -15 0 17 56 88 101 129 116 105 158 114 539 126 272 8 2365 3 2474 -6z
m-2846 -304 c67 -41 78 -131 23 -184 -62 -59 -165 -38 -197 41 -22 51 -11 95
32 132 42 37 92 41 142 11z m3042 5 c34 -18 70 -73 70 -109 0 -67 -55 -116
-131 -116 -33 0 -47 6 -75 34 -28 28 -34 42 -34 76 0 97 89 157 170 115z
m-902 -55 c65 -7 131 -19 155 -29 59 -26 255 -162 300 -208 35 -36 37 -42 27
-69 -6 -16 -77 -94 -158 -174 -157 -155 -220 -198 -320 -219 -78 -16 -152 -15
-152 4 0 8 13 16 33 19 216 34 220 36 457 266 65 64 101 115 94 133 -9 24
-192 157 -262 190 -101 47 -177 52 -892 52 -756 0 -716 5 -872 -102 -54 -37
-119 -85 -145 -109 l-48 -42 19 -37 c30 -55 204 -218 225 -209 9 3 405 8 881
9 476 1 834 -1 795 -5 -38 -4 -403 -9 -810 -10 -407 -1 -769 -5 -805 -9 l-65
-6 64 -43 c35 -23 83 -47 105 -53 23 -5 49 -13 60 -16 12 -3 16 -1 12 6 -5 8
10 11 48 11 l56 0 0 -104 c0 -57 3 -112 6 -121 17 -43 35 -44 539 -40 263 3
483 9 489 13 6 4 238 9 516 11 558 4 553 3 610 67 43 50 62 100 64 172 1 58
-1 66 -27 88 -39 33 -86 31 -250 -10 -168 -42 -267 -82 -432 -173 -166 -92
-284 -133 -382 -133 l-73 0 0 74 0 73 83 5 c105 5 179 39 292 130 133 108 276
273 275 317 -1 31 -76 98 -228 207 -76 53 -82 59 -60 65 51 15 80 9 116 -22
50 -44 318 -173 388 -187 88 -18 202 -15 249 7 49 22 91 70 118 134 38 90 42
53 42 -361 l0 -387 -28 -57 c-34 -70 -111 -141 -175 -162 -26 -9 -85 -17 -132
-18 -151 -4 -926 -3 -1115 1 -66 2 -205 2 -310 2 -104 0 -210 3 -235 8 l-45 8
54 2 c30 0 52 4 49 7 -14 13 -183 43 -235 42 -50 -1 -58 -4 -72 -30 -9 -16
-25 -31 -36 -34 -11 -3 -261 -4 -555 -2 -532 3 -535 3 -584 26 -80 37 -132 85
-168 159 l-33 67 3 355 c3 412 16 507 50 385 17 -60 64 -118 114 -143 52 -25
163 -29 250 -9 53 12 324 144 395 192 32 22 49 26 110 26 40 0 73 -3 73 -7 0
-5 -39 -28 -86 -53 -93 -48 -240 -161 -263 -202 -13 -22 -12 -29 7 -69 12 -25
61 -84 109 -131 205 -202 302 -259 432 -257 l56 1 -78 14 c-43 8 -94 22 -115
33 -60 30 -150 101 -246 192 -102 96 -146 152 -146 185 0 34 65 92 216 194
150 100 126 94 439 111 200 10 1021 2 1163 -11z m-415 -57 c-46 -2 -120 -2
-165 0 -46 1 -9 3 82 3 91 0 128 -2 83 -3z m-670 -10 c-7 -2 -21 -2 -30 0 -10
3 -4 5 12 5 17 0 24 -2 18 -5z m977 -3 c16 -5 -11 -8 -75 -8 -76 1 -89 3 -55
8 61 10 100 10 130 0z m-787 -7 c-13 -2 -33 -2 -45 0 -13 2 -3 4 22 4 25 0 35
-2 23 -4z m90 0 c-7 -2 -21 -2 -30 0 -10 3 -4 5 12 5 17 0 24 -2 18 -5z m70 0
c-7 -2 -19 -2 -25 0 -7 3 -2 5 12 5 14 0 19 -2 13 -5z m765 0 c-21 -2 -55 -2
-75 0 -21 2 -4 4 37 4 41 0 58 -2 38 -4z m-1053 -93 c-260 -12 -577 -11 -570
0 4 6 136 9 368 8 299 -1 334 -3 202 -8z m928 3 c-51 -2 -135 -2 -185 0 -51 1
-10 3 92 3 102 0 143 -2 93 -3z m345 0 c-10 -2 -28 -2 -40 0 -13 2 -5 4 17 4
22 1 32 -1 23 -4z m-1359 -83 c52 0 92 -3 88 -6 -10 -10 -687 -14 -687 -4 0 9
432 20 485 13 11 -1 62 -3 114 -3z m494 -7 c-24 -2 -62 -2 -85 0 -24 2 -5 4
42 4 47 0 66 -2 43 -4z m820 0 c-89 -2 -237 -2 -330 0 -92 1 -19 3 162 3 182
0 257 -2 168 -3z m2 -83 c99 -1 170 -5 157 -8 -21 -6 -1737 -7 -1987 -1 l-110
3 115 5 c103 5 1364 6 1825 1z m80 -100 c-4 -7 -338 -10 -968 -9 -540 0 -953
4 -942 9 29 12 1918 12 1910 0z m-464 -218 c12 -40 9 -195 -3 -208 -4 -4 -218
-9 -476 -12 -420 -4 -470 -3 -484 12 -28 27 -36 199 -12 238 3 4 221 8 484 8
l479 0 12 -38z m1106 -17 c9 -32 -17 -38 -204 -51 -304 -21 -292 -22 -280 10
4 10 30 16 89 21 46 4 130 13 188 20 120 14 202 15 207 0z m843 -159 c0 -89
-11 -113 -54 -121 -20 -4 -37 -14 -39 -24 -3 -9 -5 28 -6 81 -1 89 1 98 21
112 12 9 35 16 50 16 28 0 28 -1 28 -64z m140 5 c0 -65 -7 -71 -77 -71 -33 0
-33 0 -33 49 0 75 5 81 61 81 l49 0 0 -59z m150 21 c0 -49 -14 -62 -67 -62
l-43 0 0 44 c0 50 6 54 68 55 l42 1 0 -38z m308 -67 c0 -106 -11 -146 -24 -80
-3 19 -4 52 -2 74 3 39 3 40 -34 46 -24 4 -39 13 -43 26 -10 30 3 39 54 39
l48 0 1 -105z m172 -7 c0 -140 -16 -133 -22 10 -3 78 -1 102 9 102 10 0 13
-27 13 -112z m-320 78 c0 -31 -20 -47 -70 -53 l-40 -6 0 42 0 41 55 0 c51 0
55 -2 55 -24z m664 -38 c9 -77 7 -168 -4 -143 -9 25 -18 195 -9 195 3 0 9 -24
13 -52z m173 -58 c4 -57 3 -80 -6 -80 -7 0 -11 26 -11 79 0 44 -3 88 -6 98 -5
16 -5 17 6 1 6 -10 13 -53 17 -98z m-1415 3 c-2 -51 -8 -93 -13 -93 -16 0 -40
47 -41 83 -1 25 7 47 26 72 16 20 29 35 30 33 1 -2 0 -45 -2 -95z m1075 -40
c-2 -27 -3 -5 -3 47 0 52 1 74 3 48 2 -27 2 -69 0 -95z m480 -6 c-2 -23 -3 -1
-3 48 0 50 1 68 3 42 2 -26 2 -67 0 -90z m-4104 -84 c-7 -2 -19 -2 -25 0 -7 3
-2 5 12 5 14 0 19 -2 13 -5z m4257 -4 c0 -12 -394 -19 -1077 -19 -608 0 -703
2 -703 15 0 12 118 14 890 12 489 -1 890 -5 890 -8z m-5663 -161 c-2 -18 -4
-4 -4 32 0 36 2 50 4 33 2 -18 2 -48 0 -65z m2651 82 c21 0 22 -2 9 -20 -7
-10 -26 -29 -41 -41 l-27 -21 -890 -3 c-490 -1 -909 1 -931 5 -25 5 -53 20
-74 41 l-35 34 118 5 c65 3 507 4 983 2 476 -1 875 -2 888 -2z m441 -162 c0
-84 -3 -144 -7 -133 -7 21 -4 285 4 285 2 0 4 -69 3 -152z m-2596 54 c18 -18
61 -48 97 -65 l65 -32 515 -6 c283 -3 729 -5 990 -5 471 1 475 1 520 23 77 39
144 96 157 133 10 31 11 18 15 -102 3 -123 5 -139 26 -167 l23 -31 -1255 0
c-719 0 -1257 4 -1260 9 -3 5 2 15 11 22 36 31 45 77 38 198 -6 111 -6 115 10
86 9 -16 31 -45 48 -63z m2804 -29 c-2 -21 -4 -6 -4 32 0 39 2 55 4 38 2 -18
2 -50 0 -70z m-3200 20 c-2 -16 -4 -5 -4 22 0 28 2 40 4 28 2 -13 2 -35 0 -50z
m100 -135 c-2 -35 -3 -9 -3 57 0 66 1 94 3 63 2 -32 2 -86 0 -120z m3753 50
l0 -93 -19 25 c-21 26 -31 64 -31 115 0 36 6 45 32 45 16 0 18 -9 18 -92z
m120 60 c0 -13 -3 -47 -6 -75 -6 -47 -9 -53 -30 -53 -13 0 -24 -4 -24 -9 0 -5
9 -7 20 -4 23 6 28 -18 7 -35 -28 -23 -40 4 -45 102 l-5 96 42 0 c36 0 41 -3
41 -22z m953 -48 c3 -36 1 -83 -3 -105 -6 -30 -8 -13 -9 69 -1 120 5 138 12
36z m-173 -46 c0 -67 -4 -103 -10 -99 -15 9 -9 205 6 205 2 0 4 -48 4 -106z
m500 -85 c-9 -21 -10 -19 -5 16 2 22 6 69 7 105 2 63 2 63 5 -16 2 -44 -1 -91
-7 -105z m157 69 c-2 -24 -4 -7 -4 37 0 44 2 63 4 43 2 -21 2 -57 0 -80z
m-837 5 c0 -67 -3 -93 -10 -83 -18 27 -12 180 7 180 2 0 3 -44 3 -97z m-1473
-25 c-2 -24 -4 -7 -4 37 0 44 2 63 4 43 2 -21 2 -57 0 -80z m1998 -6 c-10 -84
-17 -54 -8 39 5 52 9 71 11 49 2 -19 1 -59 -3 -88z m-1898 6 c-2 -18 -4 -6 -4
27 0 33 2 48 4 33 2 -15 2 -42 0 -60z m-3310 -15 c-2 -16 -4 -5 -4 22 0 28 2
40 4 28 2 -13 2 -35 0 -50z m5510 -45 c-3 -7 -5 -2 -5 12 0 14 2 19 5 13 2 -7
2 -19 0 -25z"/>
<path d="M6222 7735 c-34 -15 -35 -22 -4 -57 29 -34 132 -13 132 27 0 20 -40
45 -70 45 -14 -1 -40 -7 -58 -15z"/>
<path d="M6006 7727 c-11 -8 -17 -23 -14 -38 3 -22 7 -24 52 -22 93 3 117 20
80 57 -19 20 -93 21 -118 3z"/>
<path d="M4020 7710 c0 -26 34 -43 70 -35 34 8 42 17 34 39 -4 12 -20 16 -55
16 -42 0 -49 -3 -49 -20z"/>
<path d="M4207 7723 c-13 -12 -7 -41 9 -47 9 -3 31 -6 49 -6 39 0 63 28 43 48
-13 13 -90 16 -101 5z"/>
<path d="M6161 7714 c0 -11 3 -14 6 -6 3 7 2 16 -1 19 -3 4 -6 -2 -5 -13z"/>
<path d="M4594 7376 c-9 -23 3 -46 23 -46 28 0 45 16 41 36 -4 25 -56 32 -64
10z"/>
<path d="M4054 7235 l0 -135 28 0 28 0 0 72 c0 64 2 70 13 53 8 -11 22 -41 32
-67 34 -92 61 -87 95 18 12 35 26 66 31 69 5 4 9 -28 9 -74 0 -75 2 -81 20
-81 27 0 27 3 35 153 l7 127 -45 0 c-44 0 -45 0 -55 -43 -6 -23 -21 -65 -33
-91 -25 -58 -30 -54 -64 59 l-21 70 -40 3 -40 3 0 -136z"/>
<path d="M4920 7336 c0 -13 -7 -26 -15 -30 -8 -3 -15 -12 -15 -20 0 -7 7 -16
15 -20 10 -3 15 -20 16 -48 0 -68 19 -110 52 -119 16 -4 35 -5 43 -2 18 7 19
53 1 53 -23 0 -45 24 -52 58 -6 27 -4 32 12 32 42 0 58 50 23 72 -11 7 -20 21
-20 30 0 13 -8 18 -30 18 -25 0 -30 -4 -30 -24z"/>
<path d="M4412 7294 c-12 -8 -22 -24 -22 -34 0 -17 4 -18 26 -10 14 6 39 10
55 10 41 0 38 -26 -5 -33 -56 -9 -86 -34 -86 -73 0 -23 7 -38 22 -48 29 -20
72 -20 89 0 11 14 13 14 21 0 5 -9 19 -16 31 -16 21 0 22 3 19 95 -3 84 -6 97
-25 110 -28 20 -96 19 -125 -1z m78 -123 c0 -27 -18 -40 -52 -41 -17 0 -6 40
14 54 32 22 38 20 38 -13z"/>
<path d="M4737 7303 l-48 -4 3 -102 c3 -97 4 -102 26 -105 21 -3 22 0 22 65 0
74 10 93 47 93 26 0 31 -16 35 -100 3 -48 6 -55 25 -58 19 -3 23 3 29 43 9 60
-2 134 -23 157 -9 10 -28 17 -42 16 -14 -1 -48 -3 -74 -5z"/>
<path d="M5079 7282 c-24 -21 -32 -38 -36 -75 -5 -43 -3 -49 30 -82 44 -44 91
-48 131 -10 30 28 35 51 9 39 -10 -4 -35 -9 -55 -12 -29 -3 -39 0 -44 12 -9
23 -7 24 64 29 35 3 66 7 69 10 11 11 -19 67 -49 92 -39 33 -80 32 -119 -3z
m99 -44 c3 -15 -4 -18 -32 -18 -30 0 -36 4 -36 21 0 17 5 20 32 17 22 -2 34
-9 36 -20z"/>
<path d="M5275 7298 c-2 -7 -6 -55 -7 -106 l-3 -92 26 0 c23 0 27 5 33 38 3
20 6 51 6 68 0 26 5 33 26 38 15 4 30 3 35 -1 4 -4 9 -41 11 -81 3 -71 4 -73
28 -70 24 3 25 6 28 86 3 76 1 84 -22 107 -29 29 -62 32 -87 9 -17 -15 -19
-15 -34 0 -20 19 -34 21 -40 4z"/>
<path d="M5550 7303 c-28 -6 -40 -19 -40 -46 0 -14 4 -16 19 -7 30 15 71 13
71 -5 0 -9 -8 -18 -17 -21 -55 -17 -93 -39 -94 -53 -4 -57 15 -81 66 -81 17 0
37 6 44 13 11 10 14 10 18 0 3 -7 16 -13 29 -13 23 0 24 2 24 85 0 72 -3 88
-20 105 -11 11 -26 20 -34 20 -8 0 -20 2 -28 4 -7 2 -24 1 -38 -1z m54 -122
c17 -27 -35 -64 -58 -41 -8 9 -5 16 13 31 26 21 37 24 45 10z"/>
<path d="M5790 7300 c-8 -5 -32 -7 -52 -3 l-38 6 0 -107 c0 -105 0 -106 24
-106 22 0 24 5 32 78 8 71 11 77 33 80 31 5 41 -12 41 -73 0 -74 9 -97 34 -93
20 3 21 9 21 91 0 85 -1 90 -28 113 -30 26 -44 29 -67 14z"/>
<path d="M5948 7281 c-29 -26 -33 -35 -31 -77 4 -112 110 -154 165 -65 l21 33
-34 -7 c-19 -4 -41 -14 -50 -22 -15 -13 -19 -12 -33 9 -21 29 -21 82 0 99 14
11 21 10 46 -4 16 -9 36 -17 44 -17 23 0 16 37 -12 59 -38 30 -77 27 -116 -8z"/>
<path d="M6151 7284 c-73 -61 -38 -194 52 -194 35 0 77 30 77 55 0 17 -26 20
-35 5 -3 -5 -22 -10 -41 -10 -29 0 -34 3 -34 24 0 22 3 24 39 19 81 -11 109
14 80 70 -30 59 -89 73 -138 31z m79 -44 c0 -17 -33 -34 -44 -22 -11 10 -6 40
7 45 20 7 37 -4 37 -23z"/>
<path d="M4600 7194 c0 -104 0 -105 23 -102 21 3 22 8 25 106 l3 102 -26 0
-25 0 0 -106z"/>
<path d="M4216 6618 c-43 -102 -58 -155 -50 -180 6 -21 68 -58 97 -58 34 0 82
34 96 68 12 29 9 39 -40 146 -30 64 -56 116 -59 116 -3 0 -23 -41 -44 -92z"/>
<path d="M4252 6108 c-3 -12 -27 -64 -54 -116 -50 -99 -55 -119 -37 -170 14
-41 49 -62 104 -62 38 0 52 6 82 34 47 43 47 77 1 172 -19 38 -43 90 -53 117
-19 51 -34 60 -43 25z"/>
<path d="M4217 5411 c-36 -72 -47 -106 -46 -136 l2 -40 6 43 c4 23 27 80 50
126 24 46 42 88 40 93 -2 6 -26 -33 -52 -86z"/>
<path d="M4286 5453 c4 -15 22 -58 41 -94 38 -77 40 -92 13 -119 -11 -11 -16
-20 -11 -20 14 0 41 41 41 62 0 10 -16 49 -35 87 -19 37 -35 75 -35 84 0 9 -5
19 -10 22 -7 4 -8 -3 -4 -22z"/>
<path d="M4244 5348 c-23 -48 -25 -59 -15 -72 15 -18 44 -21 72 -6 25 14 24
24 -5 85 l-24 49 -28 -56z"/>
<path d="M4248 5203 c7 -3 16 -2 19 1 4 3 -2 6 -13 5 -11 0 -14 -3 -6 -6z"/>
<path d="M8005 4335 c-88 -51 -170 -125 -217 -198 -17 -26 -29 -49 -27 -51 15
-12 223 -90 273 -101 146 -35 150 -27 110 216 -23 141 -32 179 -44 179 -9 0
-51 -20 -95 -45z m102 -161 c13 -76 21 -145 18 -151 -2 -7 -13 -13 -25 -13
-21 0 -185 50 -245 76 -35 14 -35 15 -21 43 32 60 206 197 240 187 6 -1 20
-65 33 -142z"/>
<path d="M8437 4333 c-3 -27 -15 -110 -27 -186 -20 -129 -21 -140 -5 -163 15
-23 21 -25 58 -19 87 15 327 107 327 125 0 20 -40 89 -72 125 -56 65 -212 165
-256 165 -16 0 -20 -9 -25 -47z m155 -58 c97 -64 165 -153 136 -180 -7 -7 -73
-32 -147 -55 -140 -45 -157 -44 -147 5 4 20 32 190 42 252 l5 33 37 -15 c20
-9 54 -27 74 -40z"/>
<path d="M8229 4044 c-30 -36 39 -95 75 -64 21 17 26 49 9 65 -19 20 -67 19
-84 -1z"/>
<path d="M8219 3915 c-36 -19 -63 -78 -55 -119 7 -37 49 -82 86 -91 53 -13
125 35 136 90 7 38 -16 99 -43 113 -35 18 -97 21 -124 7z"/>
<path d="M8037 3892 c-34 -38 -15 -82 35 -82 40 0 58 39 34 75 -19 29 -46 32
-69 7z"/>
<path d="M8462 3903 c-7 -3 -18 -17 -23 -30 -12 -33 12 -63 51 -63 51 0 66 42
27 78 -24 22 -32 25 -55 15z"/>
<path d="M7689 3754 c-6 -94 56 -281 108 -327 20 -17 23 -16 137 106 117 124
156 172 156 194 0 18 -88 31 -252 38 -140 7 -148 6 -149 -11z m239 -29 c69 -7
92 -13 92 -25 0 -18 -93 -129 -149 -178 l-60 -52 -25 42 c-26 45 -56 148 -56
191 0 39 7 39 198 22z"/>
<path d="M8593 3760 c-50 -4 -93 -14 -108 -24 l-26 -17 20 -32 c36 -58 159
-212 201 -252 l42 -40 30 35 c59 69 118 212 118 285 l0 42 -67 6 c-75 8 -92 7
-210 -3z m189 -30 l51 0 -6 -50 c-6 -53 -53 -158 -88 -200 l-21 -25 -49 54
c-48 51 -124 156 -135 185 -3 7 3 17 13 21 22 9 153 23 171 18 8 -1 36 -3 64
-3z"/>
<path d="M8111 3644 c-26 -33 -26 -36 3 -63 20 -19 28 -21 45 -12 11 6 26 21
32 32 9 17 7 25 -12 45 -29 31 -43 30 -68 -2z"/>
<path d="M8347 3652 c-31 -34 -18 -82 23 -82 39 0 66 33 54 68 -12 34 -52 41
-77 14z"/>
<path d="M8238 3523 c-15 -16 -48 -64 -75 -108 -27 -44 -64 -100 -81 -124 -18
-24 -32 -49 -32 -56 0 -31 155 -61 264 -51 73 7 156 25 156 34 0 9 -142 276
-162 305 -11 15 -25 27 -32 27 -7 0 -24 -12 -38 -27z m76 -95 c19 -40 47 -94
62 -119 15 -25 25 -53 21 -62 -8 -21 -108 -41 -165 -33 -70 9 -122 28 -122 43
0 18 148 243 159 243 5 0 25 -33 45 -72z"/>
<path d="M3503 3100 c-42 -18 -56 -54 -50 -130 6 -75 16 -101 56 -143 58 -64
39 -62 571 -65 267 -2 483 -1 480 2 -3 3 -39 9 -80 14 -86 11 -198 54 -292
113 -34 21 -92 54 -128 73 -157 80 -494 163 -557 136z m202 -120 c238 -26 285
-33 302 -45 10 -7 15 -17 11 -21 -10 -9 -450 25 -462 36 -16 16 3 40 31 40 15
0 69 -4 118 -10z"/>
<path d="M4568 2973 c6 -2 18 -2 25 0 6 3 1 5 -13 5 -14 0 -19 -2 -12 -5z"/>
<path d="M6794 2758 l-19 -23 23 19 c12 11 22 21 22 23 0 8 -8 2 -26 -19z"/>
<path d="M9142 7748 c-16 -16 -15 -63 2 -77 34 -29 68 24 42 64 -18 28 -27 30
-44 13z"/>
<path d="M8246 7391 c-26 -28 -10 -53 28 -45 48 10 54 16 38 42 -13 20 -49 22
-66 3z"/>
<path d="M8938 7160 c-110 -19 -210 -132 -224 -252 l-6 -54 -502 -505 c-428
-432 -515 -515 -596 -569 l-95 -64 -120 0 c-108 -1 -125 -4 -177 -28 -143 -67
-248 -262 -248 -460 0 -85 18 -116 63 -104 13 3 84 62 156 131 73 69 136 125
139 125 28 -1 212 -175 212 -201 0 -25 -18 -52 -127 -188 -46 -57 -83 -111
-83 -121 0 -49 95 -73 203 -50 115 23 242 108 291 193 33 56 56 151 56 228 0
70 28 150 77 222 15 23 230 247 478 497 248 250 484 491 526 536 64 69 81 82
116 87 115 19 237 198 219 321 -15 96 -95 205 -179 239 -46 20 -122 27 -179
17z m167 -52 c176 -89 205 -290 61 -426 -85 -80 -170 -93 -275 -41 -87 43
-131 107 -146 211 -10 67 16 136 73 199 80 87 187 108 287 57z m-373 -336 c8
-30 2 -37 -209 -254 -258 -264 -719 -726 -818 -819 l-71 -66 -52 26 c-29 14
-52 28 -52 31 0 3 23 18 50 33 101 57 204 153 660 615 256 259 469 470 475
469 5 -2 13 -17 17 -35z m44 -96 c10 -25 90 -75 144 -88 l53 -14 -53 -57 c-52
-57 -74 -68 -83 -44 -4 8 -6 7 -7 -3 -1 -8 -3 -23 -5 -32 -5 -26 -687 -709
-702 -704 -7 3 -25 -6 -40 -19 -17 -15 -23 -24 -14 -25 8 0 23 8 34 18 11 9
18 12 16 5 -2 -6 -54 -63 -115 -127 -62 -63 -109 -117 -106 -120 2 -3 -8 -10
-23 -16 -22 -8 -30 -8 -37 2 -5 8 -8 9 -8 2 0 -7 -38 27 -85 74 l-86 86 33 25
c76 60 217 193 423 403 121 122 314 319 429 436 115 116 213 212 218 212 5 0
11 -6 14 -14z m-1224 -1043 c152 -76 273 -229 285 -362 7 -79 -12 -177 -48
-240 -67 -116 -317 -223 -393 -168 -17 13 -13 21 68 122 91 113 126 170 126
206 0 42 -218 229 -266 229 -17 0 -48 -23 -102 -77 -186 -185 -192 -190 -208
-169 -18 25 -18 58 2 154 26 131 85 233 170 298 55 42 100 54 195 52 78 -3 93
-7 171 -45z"/>
<path d="M8922 7044 c-73 -37 -121 -128 -107 -202 16 -86 105 -162 189 -162
98 0 186 94 186 197 0 100 -73 174 -177 180 -40 3 -68 -1 -91 -13z m141 -28
c18 -7 45 -28 61 -45 24 -25 30 -42 34 -88 3 -49 0 -64 -20 -93 -27 -39 -91
-80 -127 -80 -44 0 -111 42 -137 86 -75 128 53 278 189 220z"/>
<path d="M8886 6553 c-25 -13 -27 -17 -13 -24 11 -7 22 -4 37 8 38 33 24 42
-24 16z"/>
<path d="M8865 6510 c-3 -5 -1 -10 4 -10 6 0 11 5 11 10 0 6 -2 10 -4 10 -3 0
-8 -4 -11 -10z"/>
<path d="M8790 6445 c-11 -13 -10 -14 4 -9 9 3 16 10 16 15 0 13 -6 11 -20 -6z"/>
<path d="M8750 6390 c0 -5 7 -7 15 -4 8 4 15 8 15 10 0 2 -7 4 -15 4 -8 0 -15
-4 -15 -10z"/>
<path d="M8714 6366 c-10 -8 -16 -18 -12 -21 4 -4 15 0 24 9 21 22 13 30 -12
12z"/>
<path d="M8650 6289 c0 -5 -4 -8 -9 -4 -5 3 -12 1 -16 -5 -10 -16 31 -12 45 5
10 12 10 15 -4 15 -9 0 -16 -5 -16 -11z"/>
<path d="M8483 6130 c-23 -9 -32 -30 -13 -30 6 0 10 5 10 10 0 6 7 10 15 10 8
0 15 5 15 10 0 6 -1 10 -2 9 -2 0 -13 -4 -25 -9z"/>
<path d="M8420 6053 c-13 -15 -12 -16 4 -10 10 4 20 7 22 7 2 0 4 5 4 10 0 15
-13 12 -30 -7z"/>
<path d="M8329 5953 c-13 -15 -12 -15 9 -4 23 12 28 21 13 21 -5 0 -15 -7 -22
-17z"/>
<path d="M8238 5879 c-19 -11 -24 -29 -8 -29 5 0 14 9 20 20 12 23 12 23 -12
9z"/>
<path d="M8176 5804 c-26 -26 -18 -39 9 -14 14 13 25 25 25 27 0 9 -20 1 -34
-13z"/>
<path d="M8011 5644 c-12 -13 -21 -28 -19 -34 2 -6 16 2 31 18 34 35 23 49
-12 16z"/>
<path d="M1755 7018 c-49 -4 -178 -14 -285 -21 l-195 -12 0 -118 0 -117 -46 0
c-88 0 -108 -8 -121 -52 -10 -34 -9 -42 8 -66 18 -26 19 -48 14 -652 -4 -491
-3 -631 7 -652 28 -60 8 -58 585 -58 l528 0 38 34 37 34 1 619 c1 340 -2 648
-6 686 -7 55 -16 81 -53 140 -57 91 -154 189 -220 222 -56 28 -118 31 -292 13z
m288 -56 c100 -54 221 -220 231 -316 10 -95 17 -488 9 -484 -68 30 -196 103
-263 149 -133 91 -165 102 -268 94 -161 -11 -185 -15 -166 -29 13 -10 15 -20
8 -57 -5 -24 -8 -51 -7 -59 1 -11 -20 -26 -64 -45 -44 -19 -85 -47 -123 -84
-68 -67 -86 -118 -77 -216 10 -103 31 -132 155 -206 79 -49 82 -52 82 -87 0
-26 -7 -43 -21 -56 -13 -11 -19 -25 -16 -37 3 -11 1 -17 -5 -13 -6 4 -14 0
-19 -7 -5 -9 -42 -15 -123 -19 -63 -3 -118 -9 -123 -14 -4 -5 138 -4 317 0
179 5 417 9 530 9 176 0 205 -2 205 -15 0 -13 -16 -14 -100 -12 -125 5 -372
-8 -356 -18 8 -4 2 -11 -17 -19 -19 -8 -32 -22 -36 -39 -3 -15 -15 -37 -26
-50 -19 -23 -22 -24 -286 -29 -292 -6 -305 -4 -324 50 -11 32 -14 90 -4 99 3
3 5 266 4 584 l-1 577 248 -6 c136 -4 289 -7 339 -7 l90 0 31 -44 c46 -64 259
-226 299 -226 27 0 34 36 34 191 0 122 -8 162 -46 218 -35 52 -145 162 -174
173 -14 6 -87 9 -162 9 -105 -1 -138 2 -138 11 0 7 -3 23 -6 35 -6 22 -4 22
102 26 159 5 212 -1 267 -31z m-598 -2 c48 0 53 -2 57 -24 3 -14 2 -29 -1 -35
-4 -5 -49 -11 -101 -12 -94 -2 -94 -2 -103 25 -15 46 -3 60 50 52 25 -3 69 -6
98 -6z m170 -2 c10 -10 -17 -56 -35 -61 -27 -7 -50 12 -50 42 0 25 3 27 40 26
21 0 42 -3 45 -7z m381 -116 c50 -37 127 -120 148 -160 12 -24 16 -61 16 -161
0 -71 -4 -132 -10 -136 -12 -7 -210 135 -244 176 -31 37 -32 50 -6 74 28 25
27 81 -1 96 -11 6 -63 13 -115 16 l-94 6 0 58 0 59 133 0 c131 0 135 -1 173
-28z m-618 -27 c17 -37 15 -55 -7 -55 -11 0 -26 -3 -35 -6 -13 -5 -16 2 -16
40 0 42 2 46 23 46 16 0 28 -9 35 -25z m91 -27 c1 -5 -3 -8 -8 -8 -11 0 -21
37 -13 45 6 5 20 -19 21 -37z m421 -96 c0 -41 -10 -42 -381 -42 -316 0 -358 2
-363 16 -17 45 -28 44 369 44 354 0 375 -1 375 -18z m-284 -588 c37 -25 65
-78 71 -137 7 -70 -9 -118 -54 -158 -34 -29 -40 -31 -102 -27 -78 4 -119 28
-147 85 -34 70 -13 163 49 221 46 43 129 51 183 16z m160 8 c7 -4 14 -67 19
-169 l7 -163 -36 0 -36 0 0 170 c0 155 2 170 18 170 9 0 22 -4 28 -8z m142
-129 l3 -133 74 0 75 0 0 -35 0 -36 -107 3 -108 3 -3 159 c-3 168 0 179 43
174 19 -3 20 -12 23 -135z"/>
<path d="M1492 6047 c-59 -33 -74 -121 -29 -173 19 -22 32 -27 63 -26 54 2 74
29 74 99 0 47 -4 59 -29 84 -32 32 -45 34 -79 16z"/>
<path d="M7187 6944 c-4 -4 -7 -14 -7 -23 0 -36 -51 -121 -107 -182 -80 -86
-97 -120 -97 -194 1 -133 106 -236 240 -237 85 -1 173 62 209 148 43 104 25
174 -75 294 -40 47 -84 110 -98 140 -26 51 -48 70 -65 54z m-47 -260 c-46 -92
-73 -125 -88 -109 -9 9 18 76 54 132 18 28 43 71 56 95 l23 43 3 -30 c3 -21
-12 -60 -48 -131z m50 29 c-4 -16 -17 -52 -29 -81 -26 -66 -27 -112 0 -163 11
-23 18 -43 16 -46 -3 -2 -19 8 -36 24 -52 46 -51 81 5 196 25 53 48 97 50 97
1 0 -1 -12 -6 -27z m150 -228 c0 -32 -41 -75 -71 -75 -21 0 -21 1 6 28 15 15
34 37 42 50 19 28 23 28 23 -3z"/>
<path d="M3124 6845 c-4 -11 -36 -84 -70 -162 -35 -77 -64 -153 -64 -168 0
-41 29 -94 61 -110 15 -8 49 -15 75 -15 89 0 151 63 141 144 -4 36 -91 253
-124 311 l-12 20 -7 -20z m16 -95 c0 -11 18 -53 39 -94 51 -96 66 -149 51
-186 -21 -51 -107 -67 -167 -30 -58 35 -55 66 19 238 39 89 58 113 58 72z"/>
<path d="M3151 6662 c-1 -13 -5 -21 -10 -17 -11 6 -35 -42 -51 -102 -13 -53
-2 -79 40 -88 65 -14 99 44 47 80 -12 8 -16 15 -10 15 20 0 22 54 3 95 -15 32
-18 36 -19 17z"/>
<path d="M8867 5983 c-13 -27 -37 -78 -52 -113 -15 -36 -36 -84 -46 -107 -53
-117 11 -226 132 -227 55 0 105 27 137 75 38 55 28 112 -47 260 -35 68 -71
132 -81 142 -16 18 -18 17 -43 -30z m13 -136 c0 -7 14 -41 30 -76 40 -83 37
-115 -9 -119 l-33 -3 4 70 c2 38 0 65 -4 58 -4 -7 -8 -38 -8 -69 0 -44 -4 -58
-15 -58 -8 0 -19 8 -24 18 -20 37 -15 80 14 140 27 54 45 70 45 39z"/>
<path d="M3141 5922 c-11 -21 -54 -92 -95 -157 -42 -65 -79 -134 -82 -154 -17
-90 37 -201 119 -242 87 -45 216 0 264 91 19 37 23 57 21 116 -3 70 -5 74 -71
173 -37 56 -78 126 -92 156 -13 30 -29 55 -34 55 -6 0 -19 -17 -30 -38z m27
-89 c-3 -21 -15 -83 -27 -138 -47 -208 -60 -234 -95 -183 -18 26 -21 112 -6
155 16 42 114 203 124 203 4 0 6 -17 4 -37z"/>
<path d="M3086 5150 c-1 -3 0 -18 3 -34 6 -28 7 -29 24 -12 14 15 33 17 117
15 55 -2 103 0 106 4 15 14 107 7 126 -10 17 -15 18 -15 18 10 0 26 -1 27 -67
28 -38 0 -126 1 -196 2 -71 1 -130 0 -131 -3z"/>
<path d="M2666 5101 c-21 -23 -15 -51 21 -98 15 -21 33 -33 48 -33 21 0 24 6
31 57 6 51 5 58 -16 75 -29 23 -62 23 -84 -1z m62 -51 c-2 -17 -9 -25 -22 -25
-24 0 -33 49 -14 72 10 13 14 13 25 -4 8 -10 13 -29 11 -43z"/>
<path d="M1550 4041 c-30 -4 -66 -12 -78 -20 -34 -18 -52 -70 -52 -149 0 -61
3 -71 26 -93 32 -30 101 -34 389 -21 223 9 235 13 273 81 40 71 22 141 -48
184 -33 21 -48 22 -245 23 -115 1 -235 -1 -265 -5z m511 -69 c40 -45 40 -99 0
-144 l-29 -33 -265 -3 c-183 -3 -272 0 -286 8 -18 9 -21 20 -21 79 0 59 3 71
24 90 38 35 73 40 319 38 l229 -2 29 -33z"/>
<path d="M1470 3443 l-37 -38 3 -397 c2 -244 7 -405 13 -416 6 -11 26 -33 45
-50 l34 -30 477 0 476 -1 34 30 c18 17 38 44 44 62 7 20 10 174 8 420 l-2 389
-37 34 -38 34 -491 0 -491 0 -38 -37z m397 -221 c49 -35 73 -95 73 -184 0 -90
-16 -134 -64 -176 -60 -53 -164 -53 -238 -1 -42 31 -68 95 -68 172 0 98 28
156 95 199 43 27 157 22 202 -10z m213 -174 c0 -112 -4 -209 -9 -216 -5 -8
-21 -12 -37 -10 l-29 3 -3 213 -2 212 40 0 40 0 0 -202z m151 37 c4 -88 7
-163 8 -167 0 -5 40 -8 87 -8 l85 0 -3 -42 c-3 -40 -5 -43 -30 -42 -16 0 -73
1 -128 2 l-100 2 0 211 0 210 38 -3 37 -3 6 -160z"/>
<path d="M1698 3157 c-33 -27 -48 -64 -48 -122 0 -87 37 -135 106 -135 35 0
47 5 68 30 30 36 41 85 32 148 -11 88 -96 131 -158 79z"/>
<path d="M858 2184 c-5 -4 -8 -16 -8 -26 0 -14 8 -18 39 -18 36 0 72 22 58 36
-9 10 -82 16 -89 8z"/>
<path d="M9480 2181 c-14 -4 -26 -15 -28 -24 -3 -14 5 -17 50 -17 60 0 84 11
75 34 -7 17 -50 20 -97 7z"/>
<path d="M9215 2169 c-11 -17 16 -30 60 -27 28 2 40 8 40 18 0 19 -89 27 -100
9z"/>
<path d="M6710 2033 c-14 -3 -29 -8 -33 -13 -18 -17 65 -29 213 -31 146 -2
155 -1 155 17 0 16 -10 20 -55 26 -62 7 -242 8 -280 1z"/>
<path d="M3240 2021 l-25 -7 25 -7 c14 -4 100 -10 192 -13 125 -5 182 -4 230
7 l63 14 -50 6 c-66 9 -403 9 -435 0z"/>
<path d="M4010 2016 c0 -10 37 -15 161 -20 89 -4 164 -5 167 -1 16 16 -27 23
-170 29 -128 5 -158 3 -158 -8z"/>
<path d="M5930 2007 c-29 -7 -38 -12 -26 -15 27 -6 125 8 131 19 8 12 -47 10
-105 -4z"/>
<path d="M8230 1885 c0 -15 4 -24 10 -20 6 3 10 12 10 20 0 8 -4 17 -10 20 -6
4 -10 -5 -10 -20z"/>
<path d="M2076 1804 c-21 -8 -46 -20 -54 -26 -27 -23 -59 -83 -71 -135 -24
-97 28 -197 126 -247 101 -51 261 24 292 137 21 72 -8 167 -67 222 -65 62
-144 79 -226 49z m169 -28 c73 -43 124 -141 109 -209 -19 -91 -66 -137 -160
-158 -99 -22 -167 12 -210 106 -28 59 -29 75 -9 143 18 60 56 109 100 128 50
22 122 17 170 -10z"/>
<path d="M2110 1750 c-88 -21 -121 -142 -67 -247 43 -81 163 -83 229 -5 15 18
29 45 33 61 14 67 -43 171 -103 185 -15 4 -34 8 -42 10 -8 2 -31 0 -50 -4z
m116 -42 c43 -33 52 -49 60 -96 12 -76 -28 -133 -104 -150 -58 -13 -92 -2
-120 39 -21 30 -23 43 -20 112 3 68 6 81 27 98 34 28 119 26 157 -3z"/>
<path d="M7545 1770 c-23 -6 -15 -8 36 -9 37 0 86 -8 110 -16 24 -9 39 -11 34
-6 -10 10 -121 42 -140 40 -5 -1 -23 -5 -40 -9z"/>
<path d="M8801 1719 c-28 -30 -26 -47 5 -61 36 -17 59 0 59 43 0 27 -4 35 -22
37 -12 2 -30 -6 -42 -19z"/>
<path d="M7740 1726 c0 -2 8 -10 18 -17 15 -13 16 -12 3 4 -13 16 -21 21 -21
13z"/>
<path d="M5821 1706 c-86 -31 -154 -124 -155 -211 -1 -156 186 -250 316 -159
62 43 83 85 83 165 0 87 -36 148 -113 190 -57 31 -79 34 -131 15z m109 -65
c38 -27 68 -78 76 -128 13 -89 -54 -173 -140 -173 -57 0 -119 40 -145 93 -24
51 -26 76 -8 120 44 103 140 142 217 88z"/>
<path d="M5835 1516 c-13 -19 -14 -29 -6 -45 25 -45 81 -33 81 18 0 52 -48 69
-75 27z"/>
<path d="M7597 1600 c55 -11 82 -26 94 -53 8 -19 9 -19 6 -2 -10 44 -13 50
-32 57 -11 3 -40 6 -65 6 l-45 0 42 -8z"/>
<path d="M4530 1460 c-11 -22 -40 -70 -64 -108 -56 -87 -79 -154 -71 -209 13
-87 89 -153 177 -153 62 0 124 46 152 113 18 42 19 53 7 95 -7 26 -43 99 -82
163 -38 64 -69 121 -69 128 0 26 -31 8 -50 -29z m38 -48 c5 -16 8 -40 5 -53
-3 -16 5 -36 21 -59 34 -46 52 -87 59 -132 5 -31 1 -44 -20 -68 -22 -27 -21
-41 3 -22 5 4 -2 -3 -16 -15 -44 -40 -124 -25 -169 33 -25 32 -27 85 -5 151
19 58 92 193 104 193 4 0 12 -13 18 -28z"/>
<path d="M3090 1331 c0 -31 13 -41 26 -20 5 8 37 10 100 7 87 -5 94 -4 94 13
0 17 -9 19 -87 19 -49 0 -98 3 -110 6 -20 6 -23 3 -23 -25z"/>
</g>
</svg>
