<?xml version="1.0" standalone="no"?>
<!DOCTYPE svg PUBLIC "-//W3C//DTD SVG 20010904//EN"
 "http://www.w3.org/TR/2001/REC-SVG-20010904/DTD/svg10.dtd">
<svg version="1.0" xmlns="http://www.w3.org/2000/svg"
 width="1024.000000pt" height="1024.000000pt" viewBox="0 0 1024.000000 1024.000000"
 preserveAspectRatio="xMidYMid meet">

<g transform="translate(0.000000,1024.000000) scale(0.100000,-0.100000)"
fill="#000000" stroke="none">
<path d="M8313 9253 c9 -2 23 -2 30 0 6 3 -1 5 -18 5 -16 0 -22 -2 -12 -5z"/>
<path d="M8256 9241 c-4 -5 3 -7 14 -4 23 6 26 13 6 13 -8 0 -17 -4 -20 -9z"/>
<path d="M8389 9155 c-5 -67 9 -56 -152 -131 -53 -25 -102 -42 -107 -39 -6 3
-10 2 -10 -4 0 -5 -3 -17 -7 -27 -5 -14 5 -11 51 14 31 18 105 53 164 77 78
32 102 46 89 51 -10 3 -16 12 -14 18 2 6 1 31 -3 56 l-7 45 -4 -60z"/>
<path d="M6184 9161 c-79 -38 -102 -55 -87 -64 8 -5 166 64 208 90 19 11 18
12 -10 12 -16 0 -67 -17 -111 -38z"/>
<path d="M6405 9150 c3 -5 11 -10 16 -10 6 0 7 5 4 10 -3 6 -11 10 -16 10 -6
0 -7 -4 -4 -10z"/>
<path d="M6278 9069 c-65 -34 -118 -67 -118 -73 0 -36 25 -30 153 35 95 49
143 68 172 69 53 1 27 17 -41 25 -46 5 -56 2 -166 -56z"/>
<path d="M8458 9093 c7 -3 16 -2 19 1 4 3 -2 6 -13 5 -11 0 -14 -3 -6 -6z"/>
<path d="M6485 9081 c-28 -7 -154 -70 -253 -125 -24 -13 -39 -27 -34 -30 17
-10 44 -129 45 -200 2 -88 -21 -158 -69 -215 -46 -54 -87 -75 -129 -67 -93 18
-125 140 -53 201 38 32 61 32 87 -1 l21 -27 0 48 c0 70 -27 162 -67 228 -19
31 -37 57 -39 57 -3 0 -3 -4 1 -9 3 -5 -7 -16 -22 -24 -16 -8 -125 -65 -243
-128 -118 -62 -225 -118 -237 -123 -26 -13 -28 -25 -9 -51 13 -18 16 -19 33
-4 34 31 503 272 512 264 10 -11 -24 -30 -244 -144 -115 -60 -226 -118 -246
-130 l-36 -21 20 -58 c25 -74 27 -198 3 -269 -33 -100 -106 -173 -173 -173
-40 0 -88 39 -103 86 -11 31 -9 41 12 82 18 35 33 50 58 58 47 16 60 8 60 -33
0 -23 4 -32 11 -27 8 5 10 34 6 90 -4 65 -11 97 -35 146 -52 110 -40 108 -177
33 -66 -36 -198 -104 -292 -151 -152 -76 -173 -89 -173 -110 0 -13 6 -24 13
-24 7 0 78 34 158 76 281 147 442 221 387 177 -17 -14 -288 -156 -416 -218
-73 -36 -101 -54 -98 -65 3 -8 15 -42 27 -75 30 -79 32 -199 5 -270 -21 -56
-86 -130 -122 -139 -59 -15 -134 45 -134 108 0 37 30 105 51 116 24 13 25 13
48 -12 l20 -21 -29 -34 c-17 -18 -30 -38 -30 -42 0 -18 32 -20 61 -6 28 15 29
17 29 94 0 83 -32 230 -52 242 -7 4 -18 3 -25 -3 -10 -8 -13 -6 -13 8 -1 49
-14 50 -107 9 -48 -21 -144 -71 -213 -111 -69 -40 -146 -82 -171 -94 -36 -18
-45 -27 -41 -42 7 -29 20 -31 55 -10 62 38 467 241 467 234 0 -9 -176 -110
-351 -202 l-135 -71 23 -47 c51 -103 54 -249 8 -327 -34 -60 -89 -105 -126
-105 -96 0 -149 96 -98 180 25 41 37 50 64 50 47 0 51 -16 17 -64 -37 -51 -41
-76 -12 -76 22 0 44 30 54 72 9 38 -19 155 -49 203 -13 22 -33 59 -44 83 -11
23 -23 42 -25 42 -6 0 -109 -55 -209 -111 -38 -22 -70 -39 -73 -39 -4 0 -227
-120 -233 -126 -2 -2 1 -16 8 -30 11 -24 13 -25 35 -11 65 43 471 257 487 257
5 0 9 -6 9 -13 0 -8 -24 -24 -52 -38 -75 -34 -431 -219 -441 -228 -4 -4 4 -42
18 -84 51 -152 20 -290 -83 -370 -46 -36 -75 -42 -113 -26 -40 16 -69 63 -69
112 0 85 69 146 114 102 19 -20 10 -44 -20 -51 -13 -3 -28 -12 -34 -19 -15
-17 3 -62 25 -62 17 0 17 1 0 13 -20 15 -11 37 13 32 24 -5 42 36 42 96 0 71
-14 113 -61 187 -50 78 -48 76 -57 62 -10 -16 -156 -104 -262 -158 -100 -51
-142 -83 -204 -155 -65 -76 -61 -61 -106 -485 -11 -104 -22 -210 -25 -235 -20
-190 -28 -348 -36 -705 -4 -225 -13 -435 -18 -465 -5 -30 -11 -171 -14 -313
-3 -200 -7 -261 -17 -267 -10 -6 -12 -27 -7 -82 3 -40 8 -80 12 -89 6 -15 74
-51 121 -64 12 -3 28 2 42 15 l22 21 10 -26 c6 -16 10 -160 10 -351 l0 -324
-517 -258 -518 -258 -7 -74 c-11 -103 -28 -115 -28 -18 l0 75 -138 -72 c-383
-200 -406 -215 -456 -289 -85 -126 -66 -247 54 -340 25 -19 113 -68 195 -108
272 -135 1662 -826 2045 -1017 429 -215 539 -257 698 -267 56 -4 141 -2 199 5
192 22 208 29 751 314 89 47 168 89 175 95 17 13 529 291 897 487 173 92 324
173 335 180 11 6 92 49 180 95 88 45 196 102 240 125 44 23 220 115 390 203
171 88 429 224 575 302 146 77 316 166 378 197 l112 56 0 83 c0 45 3 90 6 99
5 13 0 12 -27 -6 -61 -38 -240 -133 -519 -276 -151 -77 -376 -194 -500 -260
-124 -66 -360 -191 -525 -278 -502 -263 -610 -321 -825 -435 -273 -146 -412
-221 -520 -279 -58 -31 -130 -70 -160 -86 -69 -36 -144 -76 -240 -130 -219
-123 -477 -258 -546 -285 -101 -41 -203 -60 -313 -60 -150 0 -209 21 -589 210
-289 144 -343 174 -336 188 4 9 9 29 11 44 6 32 -4 39 -148 108 -51 25 -309
153 -572 284 l-479 239 -49 -17 c-30 -11 -60 -15 -76 -11 -40 10 -511 241
-566 278 -82 54 -111 146 -66 211 45 66 63 76 1299 698 213 107 284 138 315
138 l40 1 -49 17 c-33 11 -59 30 -80 55 l-31 39 -3 1369 -2 1369 27 0 c23 0
346 152 588 276 175 90 1074 544 1710 864 413 207 894 451 1070 541 176 90
391 199 478 242 l158 79 -3 152 c-2 122 -7 158 -21 188 -24 48 -82 107 -121
123 -42 17 -124 25 -161 16z m-3229 -1610 c-3 -5 -69 -46 -147 -92 -280 -165
-318 -234 -321 -579 l-1 -195 -10 155 c-12 202 -1 297 48 397 46 94 107 148
276 245 123 72 169 92 155 69z m-789 -5290 c252 -125 510 -254 574 -285 131
-63 159 -86 138 -112 -19 -23 -60 -12 -159 45 -47 27 -299 154 -560 283 -261
129 -482 243 -490 253 -13 15 -12 19 5 31 10 8 22 14 26 14 5 0 214 -103 466
-229z"/>
<path d="M5880 9045 c6 -8 9 -18 6 -23 -3 -6 -71 -36 -152 -67 -115 -46 -147
-62 -154 -81 -6 -14 -32 -35 -67 -53 -65 -33 -121 -77 -110 -87 6 -7 234 105
308 152 19 12 69 39 110 59 40 21 84 46 97 55 l23 18 -30 21 c-34 24 -49 27
-31 6z"/>
<path d="M8112 9025 c0 -16 2 -22 5 -12 2 9 2 23 0 30 -3 6 -5 -1 -5 -18z"/>
<path d="M8032 8730 c-12 -16 -22 -32 -22 -37 0 -4 11 8 25 27 14 19 25 35 25
37 0 8 -8 0 -28 -27z"/>
<path d="M7988 8663 c-16 -19 -33 -62 -30 -75 1 -5 -2 -8 -8 -8 -11 0 -34 -79
-26 -88 3 -3 6 3 6 14 0 16 2 16 10 4 5 -8 7 -33 5 -55 -3 -22 -7 -66 -11 -98
-3 -35 -9 -55 -16 -51 -5 3 -7 17 -4 30 4 13 2 24 -2 24 -10 0 -27 -368 -18
-377 3 -4 6 12 6 35 0 30 4 42 14 42 8 0 16 -6 19 -12 7 -21 16 96 23 287 5
169 21 281 44 326 13 24 8 24 -12 2z m-41 -125 c-3 -8 -6 -5 -6 6 -1 11 2 17
5 13 3 -3 4 -12 1 -19z m-30 -325 c-3 -10 -5 -2 -5 17 0 19 2 27 5 18 2 -10 2
-26 0 -35z"/>
<path d="M5205 8660 c-11 -5 -78 -34 -150 -65 -71 -31 -141 -65 -155 -75 -14
-10 -44 -23 -67 -29 -23 -6 -74 -30 -112 -52 -39 -22 -76 -37 -82 -34 -6 4 -3
-4 6 -19 10 -14 20 -26 24 -26 26 0 570 288 571 303 0 9 -9 8 -35 -3z"/>
<path d="M6020 8566 c0 -18 26 -40 34 -27 9 14 -4 41 -20 41 -8 0 -14 -6 -14
-14z"/>
<path d="M7913 8415 c0 -27 2 -38 4 -22 2 15 2 37 0 50 -2 12 -4 0 -4 -28z"/>
<path d="M4486 8305 c4 -11 4 -17 -1 -13 -4 4 -31 -5 -59 -21 -28 -16 -74 -36
-102 -44 -62 -18 -122 -48 -160 -80 -16 -13 -48 -34 -72 -46 l-42 -22 -9 23
c-9 23 -9 23 -20 -5 -12 -30 -15 -67 -6 -67 3 0 88 42 188 94 100 52 211 106
247 122 36 15 67 29 69 31 3 2 -5 14 -18 26 -20 20 -22 21 -15 2z"/>
<path d="M6451 8271 c-13 -8 -35 -100 -26 -109 11 -11 32 20 28 41 -3 14 2 31
11 40 27 27 18 48 -13 28z"/>
<path d="M5332 8231 c-16 -10 -12 -53 6 -59 8 -2 12 8 12 32 0 40 0 39 -18 27z"/>
<path d="M6384 8232 c-5 -4 -11 -25 -12 -47 -2 -22 -5 -48 -8 -59 -4 -12 -2
-16 5 -12 6 4 11 17 11 29 0 12 7 31 15 41 26 34 18 68 -11 48z"/>
<path d="M6325 8150 c0 -33 3 -60 7 -60 5 0 8 27 8 60 0 33 -3 60 -8 60 -4 0
-7 -27 -7 -60z"/>
<path d="M8655 8119 c-92 -49 -170 -89 -174 -89 -3 0 -87 -40 -186 -89 -367
-181 -571 -280 -605 -294 -39 -16 -90 -63 -90 -83 0 -7 -6 -14 -12 -17 -7 -2
-11 -6 -8 -8 3 -3 70 29 150 69 80 40 134 70 120 67 -14 -3 -33 -8 -42 -10
-10 -2 -18 0 -18 4 0 9 71 46 87 44 7 0 11 4 10 10 -1 5 14 14 33 19 19 6 37
13 40 16 11 15 83 34 89 24 4 -7 15 -5 31 4 l25 14 -26 -6 c-15 -3 -30 -1 -33
5 -4 7 -1 8 8 5 9 -3 16 -2 16 3 0 5 24 20 53 33 118 52 137 60 146 60 5 0 22
5 38 12 15 6 31 11 36 10 4 -1 7 3 7 9 0 5 5 7 10 4 6 -3 10 -1 10 5 0 6 5 8
12 4 7 -4 8 -3 4 5 -4 6 -12 9 -17 6 -5 -4 -9 -4 -9 -1 0 3 53 32 118 64 64
32 153 77 197 99 79 40 141 62 131 45 -2 -4 14 -7 37 -6 28 2 54 -4 77 -18 34
-20 35 -20 17 0 -10 11 -40 31 -66 45 l-49 25 -167 -89z"/>
<path d="M6255 8176 c-16 -12 -17 -17 -6 -44 13 -30 14 -31 37 -15 30 19 34
73 6 73 -10 0 -27 -6 -37 -14z m40 -27 c0 -7 -8 -15 -17 -17 -18 -3 -25 18
-11 32 10 10 28 1 28 -15z"/>
<path d="M6195 8133 c16 -40 17 -55 5 -79 -8 -13 -22 -24 -34 -24 -14 0 -17
-3 -10 -10 13 -13 60 5 67 25 3 6 3 32 0 58 -4 32 -10 47 -20 47 -11 0 -13 -5
-8 -17z"/>
<path d="M6163 8133 c-15 -6 -18 -83 -3 -83 6 0 10 7 10 15 0 8 5 15 10 15 6
0 10 -5 10 -12 0 -6 3 -8 7 -5 3 4 -2 16 -12 27 -9 10 -15 26 -12 35 4 8 5 15
4 14 -1 0 -8 -3 -14 -6z"/>
<path d="M6274 8075 c-16 -12 -17 -14 -3 -15 9 0 19 7 23 15 7 19 5 19 -20 0z"/>
<path d="M8575 8030 c-3 -6 1 -7 9 -4 18 7 21 14 7 14 -6 0 -13 -4 -16 -10z"/>
<path d="M1723 8001 c-153 -44 -352 -215 -486 -419 -146 -222 -224 -496 -214
-752 8 -202 30 -258 178 -471 52 -73 140 -217 196 -319 56 -102 116 -212 135
-244 39 -71 129 -166 155 -166 40 0 119 114 171 246 33 84 122 295 157 374 18
41 59 134 90 205 31 72 84 186 117 255 75 157 138 318 131 336 -8 22 -22 17
-16 -6 3 -12 0 -20 -7 -20 -7 0 -9 -8 -5 -19 4 -12 -4 -30 -21 -51 -19 -22
-24 -34 -15 -39 15 -10 -14 -82 -31 -78 -7 1 -15 -15 -18 -38 -7 -45 -28 -90
-31 -65 -1 8 -5 -1 -8 -20 -4 -19 -12 -34 -18 -33 -8 2 -10 -4 -6 -14 4 -9 2
-14 -3 -11 -5 4 -10 -5 -11 -19 0 -14 -6 -29 -13 -33 -6 -4 -11 -9 -9 -11 3
-5 -21 -79 -34 -104 -10 -19 -10 -19 -19 0 -7 17 -7 16 -4 -5 7 -37 -3 -67
-24 -73 -14 -3 -18 -14 -17 -41 1 -20 -5 -42 -12 -49 -10 -10 -11 -9 -6 6 8
19 -19 25 -30 7 -3 -5 -2 -10 2 -10 8 0 9 -21 4 -78 -1 -7 -5 -11 -10 -7 -6 3
-14 -3 -20 -12 -8 -15 -10 -11 -11 20 0 30 -4 37 -20 37 -18 0 -20 7 -20 75 0
68 -2 75 -20 75 -16 0 -20 -7 -20 -35 l0 -35 -80 0 c-73 0 -80 -2 -80 -20 0
-17 -7 -20 -40 -20 -40 0 -40 0 -40 -39 0 -21 -6 -43 -13 -49 -18 -15 -20 -68
-4 -84 8 -7 17 -26 21 -41 3 -15 13 -27 20 -27 11 0 14 -21 13 -100 -2 -90 -4
-99 -21 -102 -22 -3 -76 45 -76 68 0 8 -6 14 -12 14 -7 0 -18 10 -24 23 -37
73 -52 98 -91 153 -23 34 -43 64 -43 68 0 9 -117 204 -140 233 -11 14 -20 35
-20 47 0 20 -39 140 -52 161 -19 30 -30 145 -25 243 11 196 58 372 142 537 60
117 118 195 211 286 171 165 352 249 513 236 l66 -5 -45 20 c-142 62 -225 71
-337 39z m-485 -1496 c-3 -3 -9 2 -12 12 -6 14 -5 15 5 6 7 -7 10 -15 7 -18z
m561 -712 c-1 -21 -3 -30 -6 -20 -2 9 -8 17 -13 17 -6 0 -7 17 -1 38 1 1 6 2
11 2 6 0 9 -17 9 -37z"/>
<path d="M8500 7995 c-14 -8 -20 -14 -15 -14 6 0 21 6 35 14 14 8 21 14 15 14
-5 0 -21 -6 -35 -14z"/>
<path d="M3814 7960 c-5 -4 -40 -18 -79 -30 -76 -25 -231 -98 -281 -133 -18
-12 -46 -30 -63 -39 -31 -17 -60 -62 -48 -75 4 -3 15 1 24 9 26 22 168 102
336 189 89 45 143 79 134 82 -8 3 -18 2 -23 -3z"/>
<path d="M5774 7921 c-15 -25 -20 -27 -35 -18 -14 9 -21 9 -30 0 -8 -8 -6 -14
10 -22 15 -9 21 -22 22 -49 0 -35 1 -36 11 -12 6 14 21 49 34 78 24 56 16 71
-12 23z"/>
<path d="M6439 7882 c-68 -35 -90 -73 -97 -161 -6 -96 3 -99 91 -29 36 29 50
14 51 -53 1 -42 -3 -54 -23 -70 -28 -23 -64 -25 -81 -5 -16 20 -40 9 -40 -19
0 -29 21 -46 57 -47 69 -2 136 67 148 154 7 44 5 50 -23 78 -17 16 -39 30 -49
30 -20 0 -61 -24 -80 -48 -11 -14 -13 -13 -13 9 0 61 19 93 75 128 30 18 55
40 55 47 0 20 -11 18 -71 -14z"/>
<path d="M5656 7871 c-3 -4 0 -22 6 -39 13 -33 -1 -62 -29 -62 -12 0 -14 10
-11 40 2 28 0 40 -10 40 -18 0 -25 -25 -18 -63 11 -58 20 -63 60 -32 29 22 36
34 36 60 0 53 -18 82 -34 56z"/>
<path d="M7722 7845 c-17 -37 -14 -45 4 -12 9 16 14 31 11 33 -2 2 -9 -7 -15
-21z"/>
<path d="M5540 7783 c0 -45 -14 -51 -22 -9 -4 26 -28 33 -28 8 0 -27 38 -72
61 -72 21 0 23 17 13 83 -9 52 -24 46 -24 -10z"/>
<path d="M7682 7764 c-12 -19 -20 -34 -18 -34 7 0 49 61 44 65 -2 2 -13 -12
-26 -31z"/>
<path d="M8720 7790 c-9 -6 -10 -10 -3 -10 6 0 15 5 18 10 8 12 4 12 -15 0z"/>
<path d="M6194 7748 c-28 -28 -46 -55 -51 -77 -9 -48 14 -37 44 22 25 47 50
65 38 26 -4 -11 -6 -74 -5 -140 2 -175 0 -168 30 -149 12 7 16 40 21 147 7
162 2 213 -18 213 -8 0 -34 -19 -59 -42z"/>
<path d="M5440 7763 c0 -35 21 -94 32 -91 25 9 30 34 15 71 -16 38 -47 51 -47
20z"/>
<path d="M1556 7679 c-47 -45 -86 -88 -86 -97 0 -12 5 -9 17 8 10 14 51 58 93
97 41 40 72 73 68 73 -4 0 -45 -36 -92 -81z"/>
<path d="M7910 7709 c0 -5 5 -7 10 -4 6 3 10 8 10 11 0 2 -4 4 -10 4 -5 0 -10
-5 -10 -11z"/>
<path d="M8515 7680 c-200 -96 -363 -169 -425 -192 -30 -11 -59 -24 -64 -29
-12 -11 65 13 142 44 35 15 88 31 118 36 65 12 94 27 94 46 0 9 39 34 93 61
50 25 96 49 102 55 13 13 7 11 -60 -21z"/>
<path d="M7880 7689 c0 -5 5 -7 10 -4 6 3 10 8 10 11 0 2 -4 4 -10 4 -5 0 -10
-5 -10 -11z"/>
<path d="M1822 7645 c-317 -152 -516 -539 -448 -873 33 -163 104 -244 225
-259 117 -14 238 44 371 178 104 104 171 212 216 351 76 228 58 469 -41 560
-94 87 -202 101 -323 43z m73 -95 c10 -11 13 -20 7 -20 -10 0 -15 -11 -27 -62
-5 -20 -2 -18 23 10 38 42 99 55 129 26 10 -11 28 -20 38 -22 36 -5 45 -11 45
-30 0 -10 -5 -23 -11 -29 -6 -6 -12 -30 -13 -52 -2 -41 -36 -91 -61 -91 -30 0
-64 -44 -90 -115 -30 -83 -28 -92 27 -121 25 -13 29 -13 40 6 17 27 42 25 62
-5 18 -28 20 -74 6 -126 -12 -43 -80 -123 -122 -145 -38 -20 -55 -7 -64 51 -6
46 -28 68 -79 81 -20 5 -32 1 -51 -17 -33 -31 -50 -61 -31 -53 8 3 20 16 27
29 16 30 34 37 63 24 21 -9 25 -22 35 -97 6 -48 12 -98 14 -111 3 -21 -6 -29
-57 -54 -33 -17 -78 -32 -101 -35 -35 -4 -44 0 -61 21 -14 18 -23 23 -30 16
-14 -14 -48 4 -63 32 -9 17 -14 18 -26 8 -21 -18 -34 4 -33 56 2 67 12 89 54
111 27 14 52 40 77 80 l38 61 -16 49 c-23 67 -28 71 -67 49 -46 -25 -62 -16
-77 43 -11 46 -10 53 15 102 14 29 24 55 21 58 -9 8 15 32 31 32 9 0 31 14 50
30 18 17 40 30 48 30 9 0 12 6 9 15 -4 11 -10 12 -18 6 -7 -6 -17 -6 -26 -1
-13 8 -12 10 3 10 15 0 16 3 7 21 -9 16 -8 26 5 45 8 13 20 24 26 24 6 0 26
12 45 27 32 24 105 51 145 52 9 1 24 -8 34 -19z m-439 -709 c-4 -6 -17 -11
-29 -10 -21 0 -21 1 3 11 15 6 20 12 13 15 -7 3 -13 10 -13 16 0 6 7 4 16 -5
9 -9 13 -21 10 -27z m94 29 c0 -5 -4 -10 -10 -10 -5 0 -10 5 -10 10 0 6 5 10
10 10 6 0 10 -4 10 -10z m-42 -40 c-7 -11 -15 -20 -18 -20 -3 0 -7 -15 -8 -32
-2 -30 -11 -42 -27 -38 -3 0 -13 -6 -22 -15 -21 -21 -30 -10 -36 48 -4 44 -3
47 18 47 13 0 25 -6 28 -12 5 -15 41 1 38 17 -2 7 15 18 37 24 1 1 -3 -8 -10
-19z"/>
<path d="M1874 7405 c13 -31 9 -52 -15 -86 -22 -31 -40 -41 -96 -54 -33 -7
-33 -7 -33 33 0 23 -6 47 -13 54 -8 7 -17 20 -20 28 -4 8 -4 2 0 -15 4 -16 7
-50 6 -74 l-1 -44 49 6 c66 8 99 25 126 66 27 40 29 66 6 89 -16 16 -16 16 -9
-3z"/>
<path d="M3125 7630 c-9 -15 -128 -68 -210 -95 -45 -14 -83 -34 -106 -56 -20
-19 -62 -50 -93 -69 -82 -50 -164 -126 -187 -174 l-20 -41 36 42 c60 70 153
133 305 206 158 76 312 167 307 181 -5 15 -24 18 -32 6z"/>
<path d="M1445 7557 c-83 -96 -179 -317 -226 -517 -11 -47 -23 -137 -26 -200
-7 -129 2 -148 11 -25 10 132 17 179 26 200 5 11 14 40 21 65 9 34 13 40 18
27 4 -11 7 6 8 38 1 32 6 62 12 68 6 6 11 21 11 33 0 13 5 26 10 29 6 3 10 14
10 23 0 19 58 139 78 160 6 7 12 19 12 26 0 7 11 22 25 34 14 12 25 29 25 37
0 18 -2 18 -15 2z"/>
<path d="M5002 7550 c-35 -22 -44 -37 -11 -20 11 7 27 9 34 6 14 -5 29 20 16
28 -4 3 -22 -4 -39 -14z"/>
<path d="M5665 7519 c-82 -40 -82 -41 -90 -176 -4 -72 -3 -123 2 -123 5 0 22
14 38 30 16 17 35 30 43 30 24 0 4 -51 -36 -92 -19 -21 -33 -40 -30 -43 3 -4
25 -1 48 5 54 14 67 45 75 171 3 52 8 122 11 157 5 70 2 72 -61 41z m12 -145
c-2 -2 -18 -7 -37 -10 -32 -7 -33 -7 -26 22 4 16 19 40 34 53 l27 25 3 -43 c2
-24 2 -45 -1 -47z"/>
<path d="M4930 7483 c0 -21 5 -45 10 -53 7 -11 10 -6 10 22 0 20 3 43 6 52 4
11 1 16 -10 16 -12 0 -16 -10 -16 -37z"/>
<path d="M4989 7501 c-13 -11 -21 -22 -18 -25 11 -11 37 5 42 25 6 24 5 24
-24 0z"/>
<path d="M8391 7495 c-2 -33 -36 -99 -72 -141 l-33 -39 37 35 c44 41 80 110
74 142 -4 20 -4 20 -6 3z"/>
<path d="M4887 7493 c-10 -10 -8 -113 2 -113 14 0 21 27 21 76 0 41 -8 53 -23
37z"/>
<path d="M4992 7444 c-19 -19 -31 -34 -28 -34 14 0 57 34 67 51 14 28 -2 21
-39 -17z"/>
<path d="M4821 7456 c-12 -15 -7 -70 9 -96 14 -22 41 7 35 36 -3 13 -7 35 -10
49 -6 28 -17 32 -34 11z m16 -38 c-3 -8 -6 -5 -6 6 -1 11 2 17 5 13 3 -3 4
-12 1 -19z"/>
<path d="M8108 7439 c-14 -7 -18 -22 -16 -57 l1 -47 4 40 c3 22 12 48 20 58
18 19 16 21 -9 6z"/>
<path d="M4780 7383 c0 -41 3 -54 10 -43 13 20 13 100 0 100 -6 0 -10 -26 -10
-57z"/>
<path d="M5497 7412 c-18 -19 -27 -39 -27 -61 0 -19 4 -30 10 -26 6 4 10 -42
10 -129 0 -115 2 -136 15 -136 25 0 35 45 46 191 9 131 3 189 -19 189 -4 0
-20 -13 -35 -28z"/>
<path d="M4723 7413 c-17 -6 -16 -19 3 -70 9 -23 20 -40 25 -37 23 14 -4 116
-28 107z"/>
<path d="M2250 7273 c0 -171 -62 -358 -165 -503 -64 -89 -183 -206 -226 -223
-11 -4 -10 -6 2 -6 9 -1 22 6 29 14 7 8 17 12 23 8 6 -3 7 -1 3 5 -4 7 -1 12
8 12 9 0 16 5 16 10 0 6 6 10 13 10 8 0 22 9 32 20 11 12 25 18 36 15 9 -3 20
-1 24 5 3 5 1 10 -4 10 -16 0 -13 30 3 36 8 3 27 25 42 50 15 24 35 44 43 43
11 0 12 -2 4 -6 -15 -6 -17 -33 -3 -33 6 0 10 5 10 10 0 6 7 10 16 10 35 0 62
68 33 85 -11 7 -5 50 14 95 12 29 18 50 19 68 1 6 5 12 10 12 4 0 8 15 8 34 0
19 5 47 10 61 14 37 22 225 10 225 -6 0 -10 -30 -10 -67z"/>
<path d="M8132 7294 c8 -9 23 -14 33 -12 12 2 7 7 -16 15 -30 12 -32 11 -17
-3z"/>
<path d="M6447 7223 c-16 -8 -31 -21 -34 -29 -3 -8 -9 -12 -14 -9 -4 3 -17
-12 -28 -33 -16 -32 -18 -45 -9 -85 9 -42 13 -47 36 -47 15 0 41 9 59 20 l32
19 3 -32 c7 -73 -23 -105 -95 -102 -43 2 -51 -6 -43 -41 10 -36 57 -31 124 14
15 10 45 120 37 139 -3 9 0 11 7 7 7 -5 9 1 6 19 -3 15 -1 24 3 21 16 -9 9 13
-10 37 l-19 24 -12 -27 c-16 -34 -68 -58 -81 -37 -15 24 -10 49 16 74 27 28
65 33 65 10 0 -15 19 -22 21 -7 0 7 6 39 11 64 4 19 -42 19 -75 1z"/>
<path d="M4288 7168 c-10 -10 -18 -24 -18 -30 -1 -7 -7 -30 -14 -50 -11 -32
-11 -38 0 -38 7 0 17 8 22 18 11 20 34 113 30 117 -2 1 -11 -7 -20 -17z"/>
<path d="M4908 7139 c-65 -33 -78 -51 -78 -107 0 -21 -11 -72 -25 -112 -14
-40 -25 -88 -25 -107 0 -30 3 -33 30 -33 17 0 43 8 58 17 26 17 27 17 12 -1
-14 -18 -14 -19 5 -9 24 13 59 50 74 80 17 32 14 120 -5 148 -19 29 -31 31
-56 8 -16 -14 -18 -14 -18 0 0 9 20 32 45 52 82 68 71 109 -17 64z m2 -199 c0
-45 -27 -80 -61 -80 -25 0 -20 25 17 83 31 48 44 47 44 -3z"/>
<path d="M4202 7132 c-18 -14 -21 -23 -16 -50 8 -41 26 -41 40 1 6 17 14 40
19 50 10 23 -13 22 -43 -1z m14 -29 c-10 -10 -19 5 -10 18 6 11 8 11 12 0 2
-7 1 -15 -2 -18z"/>
<path d="M2373 7104 c-7 -7 -13 -23 -12 -36 1 -20 3 -18 15 11 17 37 15 46 -3
25z"/>
<path d="M6230 7113 c-55 -21 -115 -102 -92 -125 6 -6 14 3 22 22 14 34 45 60
72 60 26 0 34 -47 16 -97 -9 -24 -12 -43 -7 -43 5 0 9 4 9 9 0 5 9 12 19 16
39 12 56 126 24 151 -19 14 -38 16 -63 7z"/>
<path d="M4138 7104 c-4 -3 -2 -19 3 -37 5 -17 6 -33 3 -36 -8 -8 -24 21 -24
44 0 13 -3 16 -10 9 -11 -11 13 -84 28 -84 16 0 32 25 32 51 0 46 -15 71 -32
53z"/>
<path d="M4505 7070 c3 -5 8 -10 11 -10 2 0 4 5 4 10 0 6 -5 10 -11 10 -5 0
-7 -4 -4 -10z"/>
<path d="M4033 7055 c-31 -13 -53 -41 -53 -68 0 -18 36 -15 57 6 23 23 8 34
-17 12 -24 -22 -27 -4 -4 20 21 20 48 16 52 -9 4 -21 -54 -86 -77 -86 -11 0
-12 -3 -4 -11 9 -9 22 -4 52 21 44 34 57 64 47 105 -7 29 -10 29 -53 10z"/>
<path d="M2443 6880 c0 -25 2 -35 4 -22 2 12 2 32 0 45 -2 12 -4 2 -4 -23z"/>
<path d="M6191 6888 c-32 -33 -65 -93 -76 -140 -6 -24 -4 -28 13 -28 11 0 26
8 33 17 12 15 12 16 -3 10 -28 -10 -23 35 7 63 29 27 78 110 65 110 -4 0 -22
-14 -39 -32z"/>
<path d="M5705 6861 c-63 -38 -75 -55 -75 -107 0 -37 11 -54 34 -54 2 0 11 20
21 45 9 25 26 50 37 56 36 19 35 2 -6 -93 -16 -37 -16 -38 6 -35 20 2 23 -2
21 -27 -3 -42 -31 -68 -64 -61 -22 5 -31 1 -44 -19 -21 -32 -17 -82 8 -80 10
1 42 17 72 35 64 39 81 71 70 132 -4 23 -7 60 -6 82 9 172 8 174 -74 126z"/>
<path d="M6243 6829 c-27 -19 -40 -35 -37 -44 8 -19 12 -19 59 8 25 14 41 31
43 45 5 30 -14 27 -65 -9z"/>
<path d="M3548 6809 c-13 -7 -18 -23 -18 -52 0 -24 -5 -48 -12 -55 -18 -18 3
-14 42 9 32 18 33 20 8 16 -21 -3 -25 -1 -18 12 15 28 29 81 22 81 -4 0 -15
-5 -24 -11z"/>
<path d="M4150 6771 c-54 -29 -73 -56 -74 -103 -1 -32 3 -43 16 -46 12 -2 19
5 24 25 8 32 41 73 60 73 18 0 26 -33 14 -64 -5 -14 -30 -61 -55 -105 -46 -80
-70 -171 -45 -171 22 0 105 50 119 72 13 20 12 21 -28 15 -23 -3 -41 -2 -41 2
0 4 16 34 37 67 62 101 73 127 73 172 0 81 -30 100 -100 63z"/>
<path d="M3483 6773 c-7 -3 -13 -21 -13 -41 0 -19 -8 -44 -17 -54 -16 -18 -16
-18 7 -10 35 13 57 117 23 105z"/>
<path d="M5490 6761 c-47 -25 -80 -75 -80 -122 0 -22 4 -39 9 -39 6 0 22 24
38 53 19 35 35 53 51 55 34 5 29 -43 -14 -114 -63 -102 -94 -170 -94 -203 0
-17 3 -31 8 -31 4 1 43 20 87 43 59 31 82 49 89 69 15 42 -1 46 -56 15 -28
-16 -52 -26 -55 -24 -6 7 17 50 71 130 39 58 46 76 46 117 0 39 -4 52 -19 60
-27 14 -41 13 -81 -9z"/>
<path d="M3404 6734 c-19 -13 -21 -19 -12 -54 14 -52 30 -52 22 1 -6 35 -4 41
15 46 22 6 29 23 9 22 -7 0 -23 -7 -34 -15z"/>
<path d="M3303 6688 c-32 -15 -43 -26 -43 -42 0 -28 10 -39 24 -27 6 5 21 12
34 15 39 13 25 -20 -19 -42 -22 -11 -36 -23 -30 -27 11 -6 46 9 74 33 12 10
17 30 17 64 0 26 -3 48 -7 48 -5 -1 -27 -10 -50 -22z m41 -14 c3 -9 6 -16 6
-17 0 -1 -16 -2 -36 -3 l-36 -1 24 18 c29 23 34 23 42 3z"/>
<path d="M1390 6618 c0 -7 14 -28 30 -47 17 -18 27 -37 24 -43 -4 -7 -2 -8 5
-4 6 4 13 1 16 -6 3 -7 18 -14 33 -14 l27 -2 -30 15 c-17 8 -47 37 -68 65 -20
28 -37 44 -37 36z"/>
<path d="M1762 6505 c-18 -8 -55 -17 -82 -21 -27 -4 -47 -10 -44 -15 8 -13 47
-11 85 5 19 7 41 11 49 8 8 -2 11 -1 7 4 -4 4 3 14 15 21 31 17 11 16 -30 -2z"/>
<path d="M4956 6497 c-56 -32 -79 -67 -84 -132 -4 -46 -1 -58 13 -69 18 -13
18 -16 1 -74 -20 -73 -10 -108 27 -96 43 12 101 49 121 77 18 25 21 44 22 155
1 70 -2 135 -7 145 -13 23 -46 21 -93 -6z m34 -105 c-6 -26 -17 -50 -23 -54
-8 -5 -7 -8 4 -8 9 0 20 -7 23 -16 19 -49 -8 -114 -46 -114 -19 0 -20 4 -13
58 4 31 6 78 6 104 -2 40 3 53 25 75 34 34 41 20 24 -45z"/>
<path d="M1527 6493 c-3 -4 16 -9 41 -11 26 -2 44 -1 42 1 -10 9 -79 17 -83
10z"/>
<path d="M1980 6420 c0 -11 5 -20 10 -20 6 0 10 9 10 20 0 11 -4 20 -10 20 -5
0 -10 -9 -10 -20z"/>
<path d="M3395 6394 c-9 -14 -21 -40 -26 -56 -7 -24 -5 -29 8 -26 9 2 21 18
25 37 13 48 18 34 8 -19 -5 -25 -11 -104 -12 -177 -3 -130 -3 -132 17 -119 17
11 21 29 27 122 15 257 15 259 -8 262 -14 2 -27 -6 -39 -24z m22 -316 c-2 -13
-4 -3 -4 22 0 25 2 35 4 23 2 -13 2 -33 0 -45z"/>
<path d="M4751 6375 c-32 -35 -41 -52 -41 -80 0 -35 16 -48 26 -20 14 35 19 9
15 -76 -1 -49 0 -105 3 -124 6 -32 9 -33 30 -24 30 14 36 55 36 229 0 152 -7
162 -69 95z"/>
<path d="M7711 6166 c31 -7 82 -27 113 -44 69 -39 87 -42 26 -4 -62 39 -124
62 -163 61 -25 -1 -20 -4 24 -13z"/>
<path d="M4215 6138 c-71 -36 -85 -55 -85 -114 0 -36 5 -58 15 -66 9 -7 22
-19 30 -25 19 -18 29 -16 50 7 23 25 35 17 35 -24 0 -23 -9 -40 -31 -62 -18
-16 -33 -24 -36 -18 -2 6 -9 19 -17 29 -12 16 -13 16 -30 0 -12 -12 -16 -30
-14 -59 3 -37 5 -41 28 -37 70 10 136 67 160 140 12 39 12 46 -3 72 -12 22
-14 36 -7 55 14 35 12 98 -2 112 -17 17 -47 14 -93 -10z m35 -82 c0 -24 -9
-43 -29 -65 -16 -17 -32 -31 -35 -31 -3 0 -6 16 -6 36 0 26 8 43 29 65 16 16
32 29 35 29 3 0 6 -15 6 -34z"/>
<path d="M7390 6110 c-8 -5 -10 -10 -5 -10 6 0 17 5 25 10 8 5 11 10 5 10 -5
0 -17 -5 -25 -10z"/>
<path d="M4025 6039 c-62 -55 -85 -130 -35 -114 19 6 20 2 21 -87 2 -124 8
-148 35 -138 16 6 23 20 28 56 10 74 7 314 -4 314 -5 0 -25 -14 -45 -31z"/>
<path d="M3764 5720 c0 -179 2 -252 3 -162 2 89 2 235 0 325 -1 89 -3 16 -3
-163z"/>
<path d="M5319 6021 c-115 -45 -302 -203 -535 -451 -142 -151 -254 -284 -254
-301 0 -22 22 -50 53 -66 18 -9 91 -42 162 -73 l130 -57 12 28 c14 35 143 205
232 309 115 133 495 530 507 530 6 0 27 -6 45 -14 19 -7 41 -16 51 -19 12 -4
-33 -55 -181 -204 -295 -296 -599 -651 -575 -672 5 -4 79 -38 164 -76 85 -37
238 -106 339 -152 102 -46 218 -96 259 -109 66 -22 80 -24 125 -14 101 21 138
62 276 300 124 214 168 287 219 362 59 88 112 190 112 217 0 41 -56 76 -266
165 -115 49 -249 106 -299 128 -49 22 -117 48 -150 59 -33 12 -74 29 -91 40
-43 26 -228 89 -261 89 -15 -1 -49 -9 -74 -19z m88 -155 c-61 -57 -141 -136
-177 -176 -116 -129 -132 -145 -122 -125 6 11 19 29 31 39 11 10 18 23 15 28
-3 5 68 83 157 173 117 118 169 165 186 165 18 0 0 -21 -90 -104z m-335 -318
c-7 -7 -12 -19 -12 -27 -1 -9 -28 -47 -61 -86 -34 -38 -102 -121 -152 -182
-50 -62 -95 -113 -100 -113 -6 0 -3 8 5 18 8 9 41 55 73 102 73 107 237 300
254 300 3 0 0 -5 -7 -12z"/>
<path d="M7190 6020 c-19 -11 -30 -19 -25 -19 6 0 26 8 45 19 19 11 31 19 25
19 -5 0 -26 -8 -45 -19z"/>
<path d="M8140 6025 c16 -20 14 -22 -37 -28 -30 -3 -51 1 -73 14 -65 40 -41
16 30 -30 178 -115 236 -143 302 -148 45 -3 68 -1 82 9 18 14 17 15 -12 27
-17 7 -33 20 -37 29 -5 14 -4 15 6 5 7 -7 18 -13 23 -13 22 0 -73 56 -157 92
-98 43 -105 44 -87 23 11 -13 10 -14 -4 -9 -9 3 -16 12 -16 19 0 7 -7 16 -16
19 -14 5 -15 4 -4 -9z m230 -111 c0 -2 -9 0 -20 6 -11 6 -20 13 -20 16 0 2 9
0 20 -6 11 -6 20 -13 20 -16z"/>
<path d="M7544 5952 c-57 -22 -233 -98 -252 -110 -9 -7 -12 -74 -10 -303 l3
-294 25 2 c26 2 703 339 726 361 18 18 18 66 -1 102 -25 49 -174 165 -282 219
-80 41 -142 47 -209 23z"/>
<path d="M3535 5930 c-4 -6 3 -10 14 -10 25 0 27 6 6 13 -8 4 -17 2 -20 -3z"/>
<path d="M3442 5890 c-35 -16 -70 -36 -78 -45 -9 -8 -24 -15 -34 -15 -23 0
-75 -27 -61 -31 16 -6 1 -79 -15 -79 -8 0 -14 -10 -14 -24 0 -20 4 -23 23 -19
12 3 19 3 16 -1 -4 -4 -17 -8 -30 -9 -13 -1 -38 -9 -56 -17 -30 -13 -32 -19
-35 -69 -3 -50 -5 -55 -31 -64 -48 -16 -57 -5 -57 67 0 71 12 112 38 133 11
10 12 12 2 7 -8 -4 -25 -16 -37 -27 -23 -20 -23 -22 -23 -314 0 -241 2 -295
14 -299 12 -5 643 293 674 318 6 6 12 18 11 27 0 10 -2 11 -6 4 -8 -20 -19
-15 -20 9 -1 13 -7 24 -13 26 -5 2 -10 11 -10 20 -1 24 -24 52 -44 52 -9 0
-16 5 -16 10 0 6 9 10 20 10 13 0 20 7 20 20 0 13 7 20 20 20 18 0 20 7 20 64
0 61 -11 91 -24 64 -5 -10 -7 -10 -12 0 -3 6 -12 12 -20 12 -7 0 -17 12 -20
28 -4 15 -15 39 -25 54 -11 14 -19 34 -19 43 0 13 -6 16 -24 11 -25 -6 -76 11
-76 25 0 4 6 10 13 12 6 3 8 5 2 5 -5 0 -38 -13 -73 -28z m145 -240 c-2 -157
-2 -160 -28 -185 -14 -15 -46 -31 -70 -36 -24 -6 -47 -15 -51 -22 -5 -7 -8 -3
-8 11 0 13 -11 33 -24 45 l-24 22 20 25 c18 22 20 35 15 99 -6 77 9 129 47
160 19 16 109 50 118 45 4 -3 6 -76 5 -164z m-229 -113 l-3 -159 -30 -26 -30
-25 -3 105 -3 105 -25 -5 c-27 -5 -44 10 -44 38 0 9 25 46 56 83 81 95 86 88
82 -116z"/>
<path d="M3468 5683 c-8 -32 0 -42 27 -29 33 15 33 46 1 46 -14 0 -25 -7 -28
-17z"/>
<path d="M3462 5559 c1 -17 4 -25 8 -18 7 10 2 49 -5 49 -2 0 -3 -14 -3 -31z"/>
<path d="M5040 5895 c-7 -9 -11 -17 -9 -20 3 -2 10 5 17 15 14 24 10 26 -8 5z"/>
<path d="M8564 5797 c-32 -19 -67 -49 -96 -85 -49 -58 -34 -130 39 -192 30
-25 31 -27 7 -11 -17 11 -34 18 -38 14 -3 -3 -6 -2 -6 4 0 6 -7 13 -14 16 -10
4 -13 1 -9 -9 3 -9 -2 -14 -15 -14 -12 0 -25 -6 -29 -13 -12 -19 -53 -35 -108
-41 -27 -4 -51 -11 -53 -16 -5 -14 -39 -12 -46 3 -5 10 -7 10 -12 0 -3 -7 -12
-13 -21 -13 -18 0 -43 -24 -44 -42 -1 -7 -5 -2 -9 12 -4 14 -9 70 -10 125 -2
123 -17 93 -20 -40 -1 -49 -5 -99 -10 -110 l-9 -20 -1 20 c-1 19 -2 18 -10 -2
-5 -13 -13 -23 -18 -23 -4 0 -8 -10 -9 -22 -2 -28 -24 -49 -98 -93 -80 -48
-123 -59 -152 -40 -14 10 -23 11 -23 5 0 -6 -4 -9 -8 -6 -5 3 -22 -8 -37 -24
-22 -23 -38 -30 -67 -30 -26 0 -38 -4 -38 -14 0 -11 -10 -13 -39 -9 -33 5 -43
1 -67 -24 -16 -16 -37 -32 -46 -36 -10 -3 -18 -11 -18 -17 0 -5 -17 -10 -37
-10 -20 0 -51 -5 -69 -12 -25 -9 -39 -9 -59 0 l-25 12 0 161 c0 89 -2 160 -5
157 -3 -3 -10 -88 -15 -189 l-10 -184 -30 -26 c-23 -20 -30 -35 -30 -62 0 -28
-6 -40 -29 -56 -34 -24 -171 -91 -186 -91 -7 0 -22 12 -36 26 -24 25 -24 26
-4 40 11 9 66 40 123 71 57 30 101 57 98 60 -2 3 -22 -4 -43 -14 -21 -10 -47
-18 -58 -18 -11 0 -19 -5 -18 -12 3 -16 -34 -36 -53 -29 -8 3 -14 0 -14 -7 0
-9 -2 -9 -8 1 -5 7 -26 11 -51 10 -36 -1 -41 -3 -27 -13 9 -7 16 -15 16 -18 0
-7 -90 -1 -97 7 -18 18 23 48 148 109 77 38 138 71 136 74 -3 2 -63 -25 -133
-61 -213 -107 -245 -119 -263 -102 -8 9 -13 17 -10 20 2 2 67 36 144 75 217
111 338 179 352 198 10 12 13 86 13 292 0 152 -4 282 -8 289 -10 15 -114 -25
-232 -90 -192 -105 -242 -158 -419 -441 -96 -153 -136 -231 -127 -246 3 -5 27
-11 53 -15 79 -11 183 -52 220 -88 39 -38 45 -83 13 -93 -11 -4 -18 -11 -15
-16 9 -13 -9 -11 -24 4 -10 8 -12 9 -7 0 4 -8 -5 -14 -29 -19 -19 -3 -33 -10
-30 -14 3 -4 -21 -2 -53 6 -85 19 -224 44 -249 44 -21 0 -38 31 -46 87 -5 38
-15 37 -26 -4 -15 -54 -14 -139 4 -172 8 -16 27 -38 42 -50 15 -11 22 -21 16
-21 -25 0 -12 -18 17 -23 26 -6 30 -11 30 -38 0 -35 -31 -69 -62 -69 -10 0
-18 -4 -18 -9 0 -5 -20 -18 -45 -30 -25 -12 -45 -23 -45 -26 0 -3 9 -1 19 5
28 15 67 12 81 -5 19 -23 5 -84 -26 -117 -34 -35 -47 -35 -74 -1 -19 25 -21
41 -7 83 1 3 -2 5 -8 5 -5 0 -10 -4 -11 -10 0 -5 -2 -17 -2 -26 -2 -12 -14
-18 -39 -21 -44 -6 -135 -39 -145 -53 -12 -16 -9 -25 7 -25 26 0 16 -18 -14
-25 -16 -3 -37 -15 -47 -26 -17 -19 -16 -19 36 -19 29 0 51 -2 48 -5 -5 -5
-146 -25 -205 -29 -11 0 -19 -4 -17 -8 2 -3 -11 -11 -30 -18 -70 -23 -261
-181 -361 -300 -20 -25 -33 -36 -27 -25 41 77 220 241 340 311 64 38 76 53 27
34 -19 -7 -30 -7 -35 -1 -4 7 -17 8 -36 2 -16 -4 -35 -6 -41 -4 -7 3 -13 -2
-13 -10 0 -9 -13 -17 -32 -20 -18 -3 -68 -12 -110 -20 -70 -12 -78 -12 -79 2
-1 9 -6 0 -12 -19 -26 -83 -171 -189 -309 -226 -82 -21 -199 -18 -259 7 l-49
21 1 57 c0 31 4 65 8 76 7 17 2 21 -40 32 -73 19 -267 96 -444 178 -88 40
-198 90 -245 111 -174 76 -366 172 -390 193 l-25 22 25 -6 c14 -4 57 -22 95
-40 145 -69 293 -134 367 -164 43 -17 122 -53 175 -79 121 -61 390 -170 458
-186 32 -8 79 -10 130 -6 53 4 65 7 35 8 -110 4 -214 24 -276 52 -35 17 -69
30 -75 30 -6 0 -7 5 -4 10 6 9 -10 14 -42 13 -7 -1 -10 4 -7 9 3 5 0 8 -8 6
-13 -3 -67 20 -143 60 -16 9 -31 15 -33 14 -1 -1 -24 9 -52 23 -27 14 -56 25
-65 25 -8 0 -15 4 -15 10 0 5 -3 9 -7 9 -23 -4 -43 2 -38 11 4 6 -1 7 -11 3
-11 -4 -15 -2 -11 4 4 6 -4 9 -21 6 -23 -3 -24 -2 -7 6 l20 10 -20 1 c-11 2
-25 2 -32 1 -12 -2 -123 47 -123 53 0 7 45 -7 59 -18 11 -8 13 -8 7 1 -4 7
-24 20 -44 30 -20 9 -39 20 -42 23 -10 13 -68 31 -103 33 -19 1 -33 6 -30 10
3 5 -2 16 -12 26 -15 18 -12 21 51 56 38 20 115 66 173 103 57 36 152 85 209
109 58 25 150 71 206 102 55 32 122 68 148 81 27 13 46 25 44 27 -4 5 -182
-82 -249 -121 -23 -14 -91 -47 -152 -73 -60 -27 -166 -85 -235 -128 -148 -93
-252 -140 -280 -125 -10 6 -28 10 -40 10 -24 0 -28 9 -40 76 -7 44 -8 39 -9
-43 -1 -119 -20 -163 -67 -163 -57 0 -123 73 -124 137 -1 23 -8 15 -40 -47
-43 -82 -62 -138 -90 -269 -11 -47 -22 -97 -26 -111 -5 -19 0 -15 25 18 35 47
68 54 120 28 42 -22 98 -90 112 -136 11 -35 10 -47 -7 -87 -23 -56 -57 -83
-112 -90 -39 -5 -45 -3 -79 33 -42 45 -63 90 -63 135 0 18 -3 30 -6 26 -11
-11 7 -138 18 -131 6 4 8 -2 3 -16 -4 -12 -2 -58 5 -101 11 -72 16 -82 48
-109 43 -36 409 -227 530 -277 48 -19 269 -116 492 -216 223 -99 429 -188 457
-198 114 -39 275 -45 379 -14 15 5 23 0 33 -21 24 -53 71 -101 128 -132 106
-56 307 -132 380 -144 132 -21 248 30 388 168 95 94 146 178 191 309 31 93 38
127 42 221 6 150 -15 224 -89 307 -55 62 -93 83 -168 93 -182 24 -413 -155
-511 -395 -82 -200 -78 -431 9 -561 60 -90 63 -94 26 -55 -112 122 -143 332
-80 548 30 105 51 147 118 245 64 94 132 153 231 202 90 46 149 51 250 23 50
-14 71 -27 117 -73 63 -65 86 -107 101 -188 16 -87 18 -90 30 -68 5 10 144 84
307 165 352 175 693 351 848 437 l111 62 30 -48 c16 -26 45 -59 64 -74 38 -29
350 -159 435 -181 87 -23 229 7 227 48 0 9 -1 40 -2 67 l-2 50 -25 -16 c-33
-21 -120 -22 -160 -1 -111 58 -159 217 -120 399 21 99 94 246 154 307 58 60
160 112 230 118 37 3 56 -2 98 -26 62 -37 96 -89 119 -184 15 -61 15 -73 0
-161 -33 -197 -123 -347 -259 -431 -14 -8 -15 -21 -10 -67 l6 -57 60 47 c125
99 189 199 268 422 29 83 33 108 34 195 1 223 -97 357 -271 372 -182 15 -397
-168 -491 -418 -69 -183 -70 -367 -4 -498 11 -21 36 -60 56 -87 l36 -49 -41
45 c-48 53 -94 144 -109 218 -44 210 61 505 242 683 72 71 192 129 266 129
208 0 331 -148 331 -398 0 -72 2 -81 23 -95 35 -22 107 -35 147 -24 58 15 61
20 58 124 l-3 95 -82 36 c-97 41 -93 29 -63 202 31 179 27 229 -22 281 -24 26
-25 31 -20 127 7 149 4 154 -91 167 -55 7 -142 52 -173 88 -46 54 -25 119 63
197 45 39 48 51 7 27z m-261 -484 c-7 -2 -21 -2 -30 0 -10 3 -4 5 12 5 17 0
24 -2 18 -5z m-189 -37 c-3 -9 2 -16 13 -18 16 -3 16 -5 -4 -16 -21 -12 -23
-11 -23 11 0 13 3 27 7 30 10 11 13 8 7 -7z m417 -11 c64 -23 117 -63 151
-114 l30 -46 -36 42 c-34 39 -93 83 -111 83 -4 0 4 -9 19 -21 14 -11 23 -25
20 -31 -4 -7 -2 -8 4 -4 7 4 10 -2 9 -14 -1 -15 -5 -18 -17 -13 -8 5 -71 8
-140 8 -124 0 -126 0 -204 -38 -43 -20 -100 -53 -126 -72 -40 -29 -50 -33 -62
-22 -7 7 -22 17 -33 21 -13 5 -15 10 -7 13 6 3 12 12 12 20 0 8 -6 13 -13 10
-8 -3 -14 1 -14 8 0 7 24 28 52 46 97 63 93 60 61 48 -60 -20 -176 -116 -271
-222 -126 -140 -216 -352 -258 -607 -3 -14 -3 7 0 45 10 156 70 326 168 475
184 279 403 419 636 405 47 -2 105 -12 130 -20z m-486 -63 c-6 -5 -35 -28 -65
-52 -30 -24 -89 -77 -130 -119 -47 -48 -64 -61 -45 -36 38 53 68 82 140 140
33 26 62 51 65 55 3 4 12 10 20 13 22 8 25 8 15 -1z m712 -44 c-3 -7 -5 -2 -5
12 0 14 2 19 5 13 2 -7 2 -19 0 -25z m-752 -88 c3 -5 -1 -10 -9 -10 -9 0 -16
-7 -16 -15 0 -8 -4 -15 -10 -15 -5 0 -10 -7 -10 -15 0 -18 -17 -20 -22 -3 -4
12 40 67 54 68 4 0 10 -4 13 -10z m-927 -284 c-7 -8 -15 -14 -18 -13 -3 0 -18
-5 -33 -11 -47 -20 -45 -13 3 13 52 28 66 31 48 11z m-3329 -425 c234 -112
547 -253 716 -321 172 -69 185 -76 185 -101 0 -16 -4 -19 -17 -14 -10 4 -49
20 -88 35 -119 47 -245 103 -450 200 -49 24 -112 53 -140 65 -225 97 -399 188
-403 208 -2 10 0 17 4 17 4 0 91 -40 193 -89z m98 83 c-3 -3 -12 -4 -19 -1 -8
3 -5 6 6 6 11 1 17 -2 13 -5z m-47 -222 c265 -129 685 -315 803 -355 9 -4 17
-15 17 -27 l0 -20 -52 21 c-29 11 -75 29 -103 39 -43 16 -176 76 -514 231
-276 127 -396 190 -399 209 -3 20 -2 20 50 -4 29 -13 118 -55 198 -94z m3749
74 c-8 -8 -66 -41 -129 -73 -63 -33 -207 -109 -320 -168 -236 -126 -736 -375
-750 -375 -37 0 22 35 253 149 144 72 366 185 492 252 419 221 502 260 454
215z m-3963 -85 c10 -10 568 -271 579 -271 6 0 337 -149 385 -173 14 -7 26
-20 28 -29 3 -13 -28 -4 -143 42 -80 33 -153 64 -163 70 -9 5 -111 53 -227
106 -115 53 -255 118 -310 144 -55 26 -117 55 -137 64 -27 10 -38 21 -38 35 0
22 10 27 26 12z m2402 -38 c-10 -2 -26 -2 -35 0 -10 3 -2 5 17 5 19 0 27 -2
18 -5z m49 -9 c-3 -3 -12 -4 -19 -1 -8 3 -5 6 6 6 11 1 17 -2 13 -5z m-36 -18
c101 -22 205 -80 230 -129 9 -17 4 -15 -22 9 -19 18 -47 38 -64 47 -36 17 -84
32 -70 20 6 -4 16 -20 22 -34 l11 -27 -76 -1 c-169 -3 -252 -31 -393 -131 -38
-28 -72 -50 -77 -50 -4 0 0 5 9 10 23 13 13 60 -12 60 -14 0 -19 7 -19 25 0
14 5 25 10 25 6 0 10 5 10 10 0 23 -26 5 -114 -80 -147 -142 -251 -312 -298
-488 -13 -50 -24 -77 -26 -65 -6 38 36 173 83 268 119 243 368 475 565 527 80
21 145 22 231 4z m-2336 -93 c33 -14 202 -91 375 -171 173 -80 348 -158 389
-173 41 -16 82 -36 90 -45 15 -15 13 -16 -19 -11 -30 4 -155 54 -295 117 -22
10 -112 50 -200 90 -272 123 -445 208 -445 220 0 13 20 8 105 -27z m906 -31
c-7 -2 -18 1 -23 6 -8 8 -4 9 13 5 13 -4 18 -8 10 -11z m77 -9 c-10 -2 -26 -2
-35 0 -10 3 -2 5 17 5 19 0 27 -2 18 -5z m-658 -221 c247 -116 320 -147 410
-178 61 -20 80 -31 80 -47 0 -27 -129 21 -395 148 -77 37 -165 77 -195 90
-223 96 -340 159 -340 185 0 5 46 -13 103 -39 56 -27 208 -98 337 -159z m-585
26 c83 -37 231 -103 330 -146 99 -44 290 -131 425 -192 135 -62 294 -132 353
-157 59 -24 130 -57 157 -74 88 -54 147 -69 275 -69 127 0 147 -14 37 -25
-110 -11 -208 8 -311 59 -48 25 -130 62 -182 84 -98 41 -221 97 -524 239 -99
47 -248 114 -332 148 -175 74 -363 166 -410 202 -18 13 -33 31 -33 40 0 11 9
7 33 -13 18 -16 100 -59 182 -96z m300 -2 c322 -156 714 -336 734 -336 6 0 11
-7 11 -15 0 -8 -7 -15 -16 -15 -26 0 -141 49 -295 126 -81 40 -236 114 -345
164 -110 51 -205 96 -211 102 -14 11 -18 42 -5 36 4 -2 61 -30 127 -62z m1840
14 c-3 -5 -12 -10 -18 -10 -7 0 -6 4 3 10 19 12 23 12 15 0z m450 -121 c182
-46 230 -324 100 -584 -41 -84 -120 -175 -181 -211 -48 -29 -133 -54 -179 -54
-67 0 -161 86 -185 168 -48 165 1 376 124 539 41 54 59 68 129 102 112 54 126
57 192 40z m-1239 -140 c42 -26 92 -89 104 -131 31 -105 -91 -221 -177 -168
-117 71 -146 235 -54 297 42 28 84 29 127 2z"/>
<path d="M5580 4010 c-9 -6 -10 -10 -3 -10 6 0 15 5 18 10 8 12 4 12 -15 0z"/>
<path d="M5940 3628 c0 -18 -7 -58 -15 -88 -18 -68 -19 -110 -2 -109 6 0 46
19 87 42 60 34 76 48 78 68 5 46 -73 119 -128 119 -16 0 -20 -6 -20 -32z"/>
<path d="M5760 3604 c-61 -48 -123 -135 -141 -195 -7 -21 -10 -41 -8 -43 8 -8
159 49 176 66 11 12 18 44 23 115 3 54 6 99 6 99 -1 1 -26 -18 -56 -42z"/>
<path d="M6010 3331 c-49 -26 -86 -53 -88 -64 -4 -19 102 -136 114 -125 3 4
19 59 34 123 15 63 27 114 26 114 0 -1 -39 -22 -86 -48z"/>
<path d="M5796 3341 c-12 -13 -16 -32 -14 -58 2 -31 7 -39 26 -41 43 -6 82 52
67 99 -8 25 -56 25 -79 0z"/>
<path d="M5675 3213 c-110 -31 -108 -30 -101 -90 6 -54 39 -133 54 -133 17 0
52 48 83 113 25 55 30 74 23 96 l-9 28 -50 -14z"/>
<path d="M5836 3123 c-5 -25 -25 -160 -26 -173 0 -3 28 21 62 52 44 42 64 55
70 46 6 -10 8 -9 8 4 0 16 -84 98 -101 98 -4 0 -10 -12 -13 -27z"/>
<path d="M4665 3550 c-3 -6 1 -7 9 -4 18 7 21 14 7 14 -6 0 -13 -4 -16 -10z"/>
<path d="M4745 5711 c-3 -6 -1 -11 6 -11 7 0 22 -8 33 -17 13 -11 16 -12 9 -3
-6 8 -11 20 -12 25 0 14 -28 18 -36 6z"/>
<path d="M4356 5591 c-8 -50 1 -94 30 -152 23 -46 75 -99 97 -99 7 0 27 17 45
37 24 28 20 19 -14 -30 -35 -51 -44 -71 -35 -80 8 -8 11 -6 11 9 0 22 37 78
84 127 31 34 28 43 -19 51 -19 4 -37 11 -40 16 -9 15 39 12 54 -2 11 -10 14
-10 18 0 3 6 11 12 19 12 8 0 14 5 14 10 0 6 5 10 11 10 6 0 8 -7 5 -16 -5
-14 -4 -15 9 -4 34 28 -73 103 -192 134 -86 23 -90 22 -97 -23z"/>
<path d="M4610 5605 c7 -8 27 -24 46 -36 29 -17 32 -24 24 -40 -18 -32 -4 -22
36 29 32 40 33 43 7 19 l-30 -28 -15 23 c-9 13 -30 28 -47 35 -28 10 -31 10
-21 -2z"/>
<path d="M4275 5481 c-80 -20 -125 -67 -125 -130 0 -32 32 -63 56 -54 21 8 17
-12 -16 -74 -16 -31 -30 -67 -30 -81 0 -23 1 -24 22 -10 13 9 26 30 29 47 7
35 47 84 60 75 5 -3 4 -14 -2 -25 -5 -11 -9 -27 -7 -35 2 -11 9 -10 36 8 30
21 32 26 27 63 -3 24 1 61 10 90 8 28 15 62 15 77 0 25 -23 59 -38 57 -4 -1
-20 -4 -37 -8z m8 -72 c12 -19 -9 -67 -36 -83 -38 -24 -48 63 -10 92 20 14 33
12 46 -9z"/>
<path d="M4000 5368 c-43 -29 -68 -65 -76 -105 -6 -29 -4 -33 14 -33 14 0 27
11 37 31 26 49 54 72 71 58 8 -6 14 -18 14 -26 0 -20 -37 -90 -78 -148 -36
-50 -77 -133 -70 -141 8 -7 186 66 198 82 18 20 -8 19 -70 -5 -30 -12 -50 -15
-50 -8 0 5 25 43 55 84 31 40 60 85 65 99 16 42 12 92 -10 114 -26 26 -59 25
-100 -2z"/>
<path d="M7853 5319 c-29 -17 -53 -33 -53 -35 0 -6 71 31 95 50 31 24 15 18
-42 -15z"/>
<path d="M7610 5325 c-14 -8 -20 -14 -15 -14 6 0 21 6 35 14 14 8 21 14 15 14
-5 0 -21 -6 -35 -14z"/>
<path d="M7760 5270 c0 -5 7 -7 15 -4 8 4 15 8 15 10 0 2 -7 4 -15 4 -8 0 -15
-4 -15 -10z"/>
<path d="M3518 5126 c-20 -14 -24 -36 -8 -36 6 0 10 5 10 10 0 6 14 9 30 8 29
-2 30 -4 30 -55 0 -65 16 -77 30 -21 16 58 -6 108 -47 108 -16 0 -36 -7 -45
-14z"/>
<path d="M7150 5099 c-22 -18 -22 -19 -3 -10 12 6 25 16 28 21 9 15 3 12 -25
-11z"/>
<path d="M3442 5073 c-7 -12 -12 -30 -12 -40 1 -13 5 -11 16 10 8 16 13 34 11
40 -2 7 -9 3 -15 -10z"/>
<path d="M7088 5064 c-38 -20 -36 -28 2 -9 17 9 30 18 30 20 0 7 -1 6 -32 -11z"/>
<path d="M7271 5064 c0 -11 3 -14 6 -6 3 7 2 16 -1 19 -3 4 -6 -2 -5 -13z"/>
<path d="M3271 5012 c-19 -9 -43 -28 -53 -42 -22 -31 -35 -90 -20 -90 7 0 19
15 28 33 20 39 63 87 80 87 15 0 44 -44 44 -68 0 -16 -37 -71 -147 -224 -28
-38 -32 -84 -5 -73 9 4 46 18 81 31 69 26 101 48 101 71 0 10 -17 5 -57 -17
-58 -30 -93 -38 -93 -21 0 5 19 32 43 61 102 124 128 195 91 248 -18 27 -47
28 -93 4z"/>
<path d="M3501 4954 c0 -11 3 -14 6 -6 3 7 2 16 -1 19 -3 4 -6 -2 -5 -13z"/>
<path d="M3905 4950 c-3 -6 1 -7 9 -4 18 7 21 14 7 14 -6 0 -13 -4 -16 -10z"/>
<path d="M3575 4840 c-3 -5 -2 -10 4 -10 5 0 13 5 16 10 3 6 2 10 -4 10 -5 0
-13 -4 -16 -10z"/>
<path d="M3660 4820 c-8 -5 -10 -10 -5 -10 6 0 17 5 25 10 8 5 11 10 5 10 -5
0 -17 -5 -25 -10z"/>
<path d="M3415 4798 c-2 -7 -3 -27 -2 -45 2 -27 4 -30 15 -19 11 11 11 18 3
35 -7 12 -9 26 -6 31 3 6 4 10 0 10 -3 0 -7 -6 -10 -12z"/>
<path d="M8406 4739 c-4 -28 -16 -75 -27 -103 -21 -57 -24 -86 -8 -86 6 0 49
18 95 39 94 44 101 57 63 118 -21 33 -83 83 -105 83 -6 0 -14 -23 -18 -51z"/>
<path d="M8215 4721 c-64 -52 -122 -136 -131 -192 l-6 -34 59 3 c49 3 63 9 90
34 37 36 56 105 51 186 l-3 50 -60 -47z"/>
<path d="M8979 4637 c0 -1 -2 -37 -3 -79 l-2 -78 31 0 c28 0 173 -58 273 -109
102 -52 154 -139 133 -219 -16 -58 -56 -100 -142 -148 -41 -23 -124 -69 -186
-104 l-112 -62 -3 -89 c-2 -49 0 -89 3 -89 13 0 434 222 484 256 128 84 189
195 166 299 -16 73 -63 139 -130 184 -62 41 -104 62 -301 146 -74 32 -140 62
-145 66 -12 9 -65 30 -66 26z"/>
<path d="M8565 4509 c-4 -6 -45 -29 -90 -51 -112 -54 -117 -85 -31 -167 l36
-35 0 31 c0 17 3 40 7 50 6 15 8 13 13 -12 l6 -30 22 41 c11 23 26 69 31 103
5 34 13 66 16 71 3 6 4 10 1 10 -3 0 -8 -5 -11 -11z m-54 -116 c-12 -20 -14
-14 -5 12 4 9 9 14 11 11 3 -2 0 -13 -6 -23z"/>
<path d="M8283 4479 c-42 -15 -59 -93 -27 -120 14 -11 20 -9 45 19 47 52 34
121 -18 101z"/>
<path d="M8115 4314 c-27 -7 -61 -14 -74 -14 -21 0 -23 -3 -17 -37 19 -104 35
-136 73 -148 20 -5 27 3 63 75 42 83 49 133 20 137 -8 1 -37 -5 -65 -13z"/>
<path d="M8295 4215 c4 -16 6 -40 6 -52 -1 -13 3 -23 8 -23 18 0 18 26 -1 65
-16 35 -18 36 -13 10z"/>
<path d="M5430 4210 c-9 -6 -10 -10 -3 -10 6 0 15 5 18 10 8 12 4 12 -15 0z"/>
<path d="M5250 4174 c-33 -13 -33 -14 -5 -8 17 3 34 10 40 15 11 11 8 11 -35
-7z"/>
<path d="M5788 4183 c7 -3 16 -2 19 1 4 3 -2 6 -13 5 -11 0 -14 -3 -6 -6z"/>
<path d="M3221 4154 c-12 -15 -21 -32 -21 -38 0 -6 6 -2 12 9 6 11 18 28 26
38 8 9 12 17 9 17 -3 0 -15 -12 -26 -26z"/>
<path d="M3161 4114 c0 -11 3 -14 6 -6 3 7 2 16 -1 19 -3 4 -6 -2 -5 -13z"/>
<path d="M9621 4068 c-20 -65 -115 -151 -246 -223 l-110 -60 -3 -160 c-2 -136
-5 -162 -19 -172 -9 -7 -13 -13 -7 -13 13 1 45 26 46 37 0 4 5 7 11 5 16 -5
96 27 142 57 22 14 43 24 48 23 4 -1 7 5 7 13 0 8 9 19 21 25 11 7 18 14 16
17 -3 3 10 25 28 49 59 77 77 141 83 302 2 78 3 142 0 142 -3 0 -10 -19 -17
-42z m-134 -473 c-15 -14 -33 -25 -40 -25 -6 0 4 11 23 25 45 31 53 31 17 0z"/>
<path d="M8755 3717 c-99 -51 -231 -121 -292 -156 l-113 -63 0 -90 0 -90 26
17 c43 28 238 132 406 216 l157 78 3 91 c2 49 1 90 -2 90 -3 0 -86 -42 -185
-93z"/>
<path d="M9090 3698 c-63 -33 -118 -65 -122 -72 -4 -6 -8 -37 -8 -69 0 -76
-24 -74 -28 2 -2 41 -6 50 -16 42 -7 -6 -96 -53 -197 -105 -101 -52 -224 -117
-274 -144 l-90 -49 -6 -134 c-4 -74 -4 -144 -2 -157 7 -29 19 -26 156 43 59
30 107 50 107 45 0 -6 60 20 132 58 95 50 133 75 133 87 0 10 6 19 13 21 7 1
8 0 2 -3 -14 -7 -2 -23 16 -23 10 0 12 5 8 13 -5 8 -2 8 9 -2 16 -12 17 -6 17
93 0 58 -3 106 -7 106 -3 0 -65 -35 -137 -79 -72 -43 -151 -89 -176 -101 -25
-12 -60 -33 -77 -47 -26 -19 -33 -21 -33 -8 0 16 70 64 155 107 28 14 84 47
125 74 88 57 157 90 168 80 4 -4 9 -42 12 -84 4 -59 8 -77 20 -77 8 0 20 11
27 25 7 14 13 19 13 12 0 -10 5 -10 20 -2 11 6 18 15 15 20 -3 4 3 6 12 4 10
-3 27 2 38 11 17 14 17 16 3 11 -32 -10 -19 5 17 20 42 17 48 18 39 2 -4 -7
-3 -8 5 -4 6 4 8 12 5 18 -5 7 -2 9 7 6 13 -5 15 19 18 158 1 90 1 164 -1 164
-2 -1 -55 -28 -118 -62z m-410 -553 c0 -2 -10 -9 -22 -15 -22 -11 -22 -10 -4
4 21 17 26 19 26 11z"/>
<path d="M8225 3230 c-49 -25 -252 -131 -450 -236 -313 -167 -519 -274 -1095
-572 -69 -35 -197 -104 -285 -152 -88 -48 -272 -147 -410 -220 -137 -73 -317
-170 -400 -215 -82 -45 -200 -107 -260 -139 l-110 -58 3 -146 c1 -81 4 -152 5
-159 2 -11 38 8 327 167 127 70 200 109 335 180 50 26 167 89 260 140 94 51
294 158 445 238 151 79 307 161 345 182 39 21 149 77 245 125 96 49 189 99
207 112 17 12 37 23 43 23 6 0 32 18 58 39 86 72 252 149 474 220 78 24 243
61 277 61 3 0 4 23 2 51 -3 50 -2 53 43 93 l46 42 -7 135 c-3 74 -6 134 -7
134 0 0 -41 -20 -91 -45z"/>
<path d="M2650 3040 l-65 -6 68 -4 c49 -4 67 -2 67 8 0 6 -1 11 -2 10 -2 -1
-32 -4 -68 -8z"/>
<path d="M1010 2770 c-7 -129 2 -266 21 -319 19 -56 69 -128 110 -160 13 -10
138 -76 278 -147 139 -71 264 -139 278 -151 27 -25 38 -30 27 -10 -4 6 2 4 13
-5 11 -10 22 -18 26 -18 4 0 31 -11 61 -25 30 -14 60 -25 66 -25 6 0 8 -4 5
-10 -3 -5 0 -8 7 -5 7 3 92 -35 188 -84 96 -49 418 -210 714 -359 297 -149
544 -278 548 -287 5 -8 22 -15 38 -15 16 0 33 -7 38 -16 5 -9 11 -15 13 -14
12 5 58 -13 53 -21 -3 -5 2 -6 10 -3 9 3 16 2 16 -4 0 -5 11 -13 24 -16 13 -3
30 -8 38 -11 10 -4 14 25 16 149 l4 154 -764 381 c-419 210 -792 396 -828 415
-36 19 -150 76 -255 126 -470 228 -571 281 -632 330 -69 56 -91 90 -103 159
l-8 46 -2 -55z"/>
<path d="M3521 2633 c-1 -29 3 -53 8 -53 17 0 18 14 5 60 l-12 45 -1 -52z"/>
<path d="M3668 2523 c7 -3 16 -2 19 1 4 3 -2 6 -13 5 -11 0 -14 -3 -6 -6z"/>
<path d="M3551 2424 c0 -11 3 -14 6 -6 3 7 2 16 -1 19 -3 4 -6 -2 -5 -13z"/>
<path d="M7798 2402 c-83 -86 -101 -191 -52 -291 82 -164 402 -275 698 -242
202 23 342 73 436 158 63 56 90 110 90 178 0 65 -27 119 -85 175 l-47 45 6
-35 c16 -100 17 -123 6 -169 -37 -156 -334 -275 -603 -241 -184 23 -323 90
-392 189 -34 50 -45 141 -26 217 7 26 10 48 8 50 -2 2 -19 -13 -39 -34z"/>
<path d="M8250 2414 c-70 -30 -96 -80 -74 -139 8 -21 72 -53 121 -61 43 -7
140 15 178 40 30 20 41 59 27 91 -16 36 -77 76 -123 82 l-42 6 6 -36 c6 -38
-3 -46 -32 -28 -9 6 -10 11 -2 15 6 4 11 16 11 27 0 23 -21 24 -70 3z"/>
<path d="M4243 2303 c9 -2 23 -2 30 0 6 3 -1 5 -18 5 -16 0 -22 -2 -12 -5z"/>
<path d="M4198 2293 c7 -3 16 -2 19 1 4 3 -2 6 -13 5 -11 0 -14 -3 -6 -6z"/>
<path d="M4290 2270 c-11 -7 -4 -10 28 -10 23 0 42 5 42 10 0 13 -50 13 -70 0z"/>
<path d="M4255 2230 c-3 -5 15 -7 47 -3 70 8 74 13 10 13 -28 0 -53 -4 -57
-10z"/>
<path d="M4240 2169 c0 -5 -4 -7 -10 -4 -6 3 -10 -4 -10 -18 0 -21 -23 -49
-57 -70 -7 -4 -31 -10 -55 -13 -24 -3 -47 -11 -53 -16 -7 -8 -5 -9 7 -5 9 3
62 11 118 18 72 9 99 17 96 25 -3 7 -10 31 -16 53 -10 39 -20 53 -20 30z"/>
<path d="M4423 2137 c-45 -10 -48 -13 -34 -36 10 -15 35 -9 70 18 30 23 17 30
-36 18z"/>
<path d="M3872 2010 c0 -19 2 -27 5 -17 2 9 2 25 0 35 -3 9 -5 1 -5 -18z"/>
<path d="M9397 1989 c-10 -27 -14 -55 -10 -62 4 -6 6 -20 5 -29 -2 -10 1 -18
6 -18 9 0 27 148 20 156 -2 1 -12 -19 -21 -47z"/>
<path d="M7284 1974 c-10 -80 2 -312 20 -408 17 -85 20 -92 87 -176 24 -30 44
-61 46 -68 1 -8 5 -17 9 -20 4 -4 4 1 1 10 -5 15 -4 16 13 5 11 -6 18 -17 16
-24 -3 -7 6 -13 22 -15 16 -2 26 -8 24 -16 -1 -7 14 -33 34 -57 36 -45 111
-84 134 -70 6 4 17 -1 25 -11 13 -18 13 -18 12 1 -1 11 -9 26 -17 32 -12 10
-9 11 17 2 18 -6 30 -15 27 -20 -3 -5 1 -7 8 -4 17 6 141 -29 132 -38 -4 -3
-15 -2 -26 4 -25 13 -68 3 -68 -15 0 -22 24 -26 136 -26 63 0 104 -4 104 -10
0 -5 9 -10 20 -10 11 0 20 -4 20 -10 0 -5 -7 -10 -15 -10 -34 0 -12 -18 28
-23 40 -5 58 -8 120 -23 21 -5 27 -3 27 10 0 9 8 16 20 16 13 0 20 -7 20 -20
0 -15 7 -20 29 -20 17 0 33 5 37 11 3 6 17 9 30 6 16 -3 24 0 24 9 0 10 13 14
40 14 22 0 40 5 40 10 0 6 12 10 26 10 14 0 32 7 40 15 11 10 36 15 79 15 67
0 95 6 95 21 0 11 -34 12 -44 2 -8 -8 -19 -9 -156 -16 -58 -3 -89 -3 -70 -1
153 18 318 45 373 61 16 4 18 1 12 -19 -5 -18 -4 -20 4 -8 7 10 11 11 11 3 0
-7 7 -13 15 -13 18 0 20 36 3 44 -7 3 -4 5 7 3 12 -1 21 -11 23 -25 4 -27 22
-30 22 -3 0 21 22 33 45 25 8 -4 15 -1 15 5 0 13 54 42 72 39 7 -2 12 5 12 14
-1 10 2 15 7 12 5 -3 9 -1 9 4 0 6 9 8 20 5 11 -3 30 4 46 16 15 12 31 21 36
21 18 0 68 44 68 60 0 9 12 27 26 41 55 50 102 136 114 209 15 92 9 105 -15
33 -37 -107 -174 -228 -350 -306 -286 -128 -697 -162 -1050 -87 -94 20 -182
48 -153 49 9 1 29 -4 45 -10 91 -35 385 -73 508 -67 l70 4 -83 2 c-82 2 -257
18 -299 27 -15 4 -23 13 -23 25 0 13 -7 20 -20 20 -11 0 -20 5 -20 10 0 6 -9
10 -21 10 -30 0 -18 -24 17 -32 24 -5 22 -6 -13 -5 -24 0 -43 5 -43 10 0 4 -4
5 -10 2 -6 -4 -10 18 -10 59 0 59 2 66 20 66 13 0 20 7 20 20 0 17 -7 20 -40
20 -33 0 -40 3 -40 20 0 13 7 20 20 20 13 0 20 7 20 20 0 11 -4 20 -10 20 -5
0 -10 7 -10 15 0 8 -4 15 -10 15 -5 0 -10 11 -10 25 0 17 6 25 18 25 15 1 15
2 -3 16 -19 15 -19 15 10 8 64 -15 16 5 -75 31 -243 69 -449 218 -519 374
l-19 44 -8 -59z m321 -654 c3 -6 -1 -7 -9 -4 -18 7 -21 14 -7 14 6 0 13 -4 16
-10z m1596 -43 c-6 -8 -7 -18 -3 -22 4 -5 1 -5 -6 -1 -10 6 -10 11 -1 22 6 8
14 14 16 14 3 0 0 -6 -6 -13z m-71 -57 c-24 -15 -36 -11 -14 4 10 8 21 12 24
10 2 -3 -2 -9 -10 -14z m-1485 -30 c3 -6 -1 -7 -9 -4 -18 7 -21 14 -7 14 6 0
13 -4 16 -10z m1375 -19 c-8 -5 -26 -11 -40 -15 -21 -5 -20 -3 5 9 32 15 60
20 35 6z m-1335 -21 c3 -6 -1 -7 -9 -4 -18 7 -21 14 -7 14 6 0 13 -4 16 -10z
m1255 -10 c-8 -5 -22 -9 -30 -9 -10 0 -8 3 5 9 27 12 43 12 25 0z m-1086 -48
c3 -5 -1 -9 -9 -9 -8 0 -15 4 -15 9 0 4 4 8 9 8 6 0 12 -4 15 -8z m166 -7 c58
-10 66 -13 35 -13 -22 -1 -65 5 -95 13 -70 17 -38 17 60 0z m247 -31 c-3 -3
-12 -4 -19 -1 -8 3 -5 6 6 6 11 1 17 -2 13 -5z"/>
<path d="M4240 2007 l-55 -11 58 -6 c35 -3 62 -11 67 -20 11 -17 12 -5 4 28
-4 12 -9 21 -13 21 -3 -1 -31 -6 -61 -12z"/>
<path d="M4440 2008 c0 -7 5 -20 10 -28 8 -12 10 -9 10 13 0 15 -4 27 -10 27
-5 0 -10 -6 -10 -12z"/>
<path d="M3880 1963 c0 -6 8 -17 18 -24 16 -13 16 -13 2 6 -8 11 -16 22 -17
24 -2 2 -3 0 -3 -6z"/>
<path d="M4460 1951 c0 -6 4 -13 10 -16 6 -3 7 1 4 9 -7 18 -14 21 -14 7z"/>
<path d="M9345 1904 c-9 -15 -12 -23 -6 -20 11 7 35 46 28 46 -3 0 -12 -12
-22 -26z"/>
<path d="M4358 1873 c12 -2 32 -2 45 0 12 2 2 4 -23 4 -25 0 -35 -2 -22 -4z"/>
<path d="M4000 1860 c8 -5 20 -10 25 -10 6 0 3 5 -5 10 -8 5 -19 10 -25 10 -5
0 -3 -5 5 -10z"/>
<path d="M4635 1860 c-3 -6 1 -7 9 -4 18 7 21 14 7 14 -6 0 -13 -4 -16 -10z"/>
<path d="M9275 1832 c-63 -60 -221 -152 -331 -193 -56 -21 -155 -49 -220 -63
-65 -14 -106 -25 -91 -25 88 -2 296 62 451 140 77 38 101 47 109 37 6 -10 7
-8 4 4 -6 17 19 46 29 35 3 -3 23 14 44 38 23 27 40 40 43 32 3 -6 4 -2 4 11
-1 12 -1 22 -2 22 0 0 -18 -17 -40 -38z"/>
<path d="M9412 1760 c0 -14 2 -19 5 -12 2 6 2 18 0 25 -3 6 -5 1 -5 -13z"/>
<path d="M9402 1675 c0 -16 2 -22 5 -12 2 9 2 23 0 30 -3 6 -5 -1 -5 -18z"/>
<path d="M9361 1618 c-1 -14 -10 -18 -41 -18 -33 0 -40 -3 -40 -20 0 -18 20
-26 53 -21 12 2 8 -9 -13 -31 -22 -24 -19 -38 4 -19 20 16 50 96 43 113 -4 9
-6 7 -6 -4z"/>
<path d="M5136 1591 c-4 -5 -51 -32 -106 -60 -54 -27 -164 -86 -243 -130 -276
-154 -436 -199 -676 -188 -137 6 -239 30 -364 86 -38 17 -73 31 -78 31 -5 0
-9 -66 -9 -148 l0 -148 108 -52 c137 -66 221 -84 387 -85 237 0 366 40 675
212 52 30 132 73 176 96 45 24 94 51 110 61 16 10 30 19 32 20 16 9 21 289 5
305 -8 8 -13 7 -17 0z"/>
<path d="M7930 1570 c-12 -9 -11 -10 5 -6 11 3 34 2 50 -3 17 -5 24 -10 17
-10 -22 -2 -2 -21 21 -21 18 0 20 2 7 11 -12 9 -12 10 3 5 10 -3 35 -7 55 -7
l37 -2 -40 -7 c-22 -4 60 -6 183 -5 122 1 225 5 229 8 3 4 -63 7 -148 7 -132
0 -248 11 -374 35 -16 3 -37 1 -45 -5z"/>
<path d="M8553 1543 c9 -2 25 -2 35 0 9 3 1 5 -18 5 -19 0 -27 -2 -17 -5z"/>
<path d="M9250 1481 c0 -5 6 -12 13 -15 8 -3 7 -8 -5 -16 -10 -6 -18 -15 -18
-20 0 -6 11 0 24 11 21 18 23 24 11 35 -16 16 -25 18 -25 5z"/>
<path d="M9200 1410 c0 -5 5 -10 11 -10 5 0 7 5 4 10 -3 6 -8 10 -11 10 -2 0
-4 -4 -4 -10z"/>
<path d="M9174 1392 c3 -5 0 -13 -6 -15 -9 -4 -10 -6 -1 -6 17 -1 25 16 12 25
-7 4 -9 3 -5 -4z"/>
<path d="M9114 1348 c-3 -4 2 -8 10 -8 8 0 17 4 20 8 3 5 -2 9 -10 9 -8 0 -17
-4 -20 -9z"/>
<path d="M9040 1310 c0 -5 5 -10 10 -10 6 0 10 5 10 10 0 6 -4 10 -10 10 -5 0
-10 -4 -10 -10z"/>
<path d="M9000 1300 c0 -5 4 -10 9 -10 6 0 13 5 16 10 3 6 -1 10 -9 10 -9 0
-16 -4 -16 -10z"/>
<path d="M8630 1190 c-8 -5 -10 -10 -5 -10 6 0 17 5 25 10 8 5 11 10 5 10 -5
0 -17 -5 -25 -10z"/>
<path d="M7798 1113 c7 -3 16 -2 19 1 4 3 -2 6 -13 5 -11 0 -14 -3 -6 -6z"/>
<path d="M3750 960 c8 -5 22 -9 30 -9 10 0 8 3 -5 9 -27 12 -43 12 -25 0z"/>
</g>
</svg>
